<svg id="Layer_1" enable-background="new 0 0 500 500" viewBox="0 0 500 500" xmlns="http://www.w3.org/2000/svg"><path clip-rule="evenodd" d="m215.548 186.404c-13.718 6.176-22.58 19.891-22.58 34.933 0 5.737.798 11.837 2.394 18.134 1.035 4.088-2.056 8.045-6.266 8.045-2.887 0-5.519-1.946-6.26-4.875-1.855-7.332-2.793-14.498-2.793-21.305 0-20.117 11.852-38.457 30.193-46.719 3.26-1.466 7.084-.018 8.551 3.239 1.462 3.259.016 7.083-3.239 8.548zm127.743-136.693c4.192 0 8.188 1.808 10.966 4.97 2.568 2.943 7.14 2.937 9.717 0 8.814-10.046 25.549-3.828 25.549 9.614 0 14.766-15.796 33.384-30.41 41.103-14.609-7.719-30.411-26.337-30.411-41.103 0-8.045 6.54-14.584 14.589-14.584zm13.215 68.773c1.646.74 3.57.73 5.219 0 19.657-8.677 40.724-32.522 40.724-54.189 0-22.322-25.264-35.22-43.336-22.501-18.061-12.71-43.331.159-43.331 22.501 0 21.666 21.051 45.512 40.724 54.189zm-111.506-35.942c5.21 0 4.898 4.515 9.95 4.515 5.07 0 4.743-4.515 9.961-4.515 3.731 0 6.768 3.041 6.768 6.772 0 7.96-8.613 18.315-16.729 23.104-8.116-4.79-16.724-15.145-16.724-23.104.001-3.731 3.043-6.772 6.774-6.772zm7.349 43.049c1.653.738 3.565.732 5.214 0 13.06-5.763 27.042-21.72 27.042-36.277 0-15.19-16.553-24.651-29.654-16.989-13.036-7.651-29.644 1.757-29.644 16.989 0 14.567 13.982 30.514 27.042 36.277zm183.402 203.423c-27.945 26.369-69.957 62.83-105.934 86.159-26.026 16.875-53.675 32.779-79.494 34.88-21.403 1.744-44.276-6.489-66.377-9.675-28.835-4.16-59.251-4.454-90.47-4.168v-85.142c8.577-2.017 16.159-3.858 23.948-5.978 9.784-2.672 18.33-6.962 26.602-11.106 15.34-7.693 28.586-14.335 46.113-9.053l68.502 20.649c7.639 2.31 11.972 10.389 9.67 18.031-2.498 8.296-11.23 11.08-18.553 9.537-13.96-2.93-31.93-7.702-44.901-8.941-5.638-.543-11.277-.381-17.242.474-3.529.508-5.975 3.782-5.467 7.314s3.778 5.978 7.312 5.478c4.929-.715 9.562-.844 14.164-.405 11.904 1.135 30.193 5.93 43.47 8.727 12.83 2.702 26.058-2.725 31.877-14.171 8.743-.802 17.195-2.542 25.171-5.213 29.659-9.921 76.381-36.466 115.792-58.685 5.436-3.067 12.013-1.842 15.972 2.974l.881 1.085c4.198 5.108 3.731 12.681-1.036 17.229zm-265.943-107.677c0 29.911 16.843 65.516 46.253 97.916l46.305 13.956c11.448 3.456 18.988 13.776 19.465 25.096 6.312-.82 12.412-2.207 18.211-4.144 5.924-1.982 12.604-4.679 19.813-7.909 34.728-27.706 74.985-76.828 74.985-124.915 0-33.882-27.571-61.451-61.454-61.451-17.683 0-34.526 7.642-46.207 20.961-2.556 2.915-7.135 2.938-9.707 0-11.686-13.319-28.529-20.961-46.222-20.961-33.882.001-61.442 27.569-61.442 61.451zm-89.258 222.334h-20.221v-101.123h20.221zm366.239-140.105-.881-1.077c-7.929-9.588-21.502-12.122-32.313-6.023-17.765 10.017-36.273 20.48-54.265 30.092 26.234-29.317 48.43-67.309 48.43-105.222 0-41.008-33.365-74.372-74.373-74.372-19.061 0-37.319 7.331-51.068 20.321-13.739-12.99-31.996-20.321-51.068-20.321-41.009 0-74.363 33.364-74.363 74.372 0 28.238 13.153 60.631 36.64 91.128-22.29-6.581-39.07 1.826-55.292 9.968-7.712 3.866-15.672 7.856-24.207 10.183-6.711 1.834-13.293 3.453-20.554 5.176v-1.705c0-3.567-2.897-6.462-6.462-6.462h-33.142c-3.566 0-6.463 2.895-6.463 6.462v114.044c0 3.565 2.897 6.46 6.463 6.46h33.142c3.565 0 6.462-2.895 6.462-6.46v-1c30.742-.285 60.635 0 88.631 4.032 22.944 3.312 45.402 11.729 69.269 9.768 28.669-2.334 58.023-19.124 85.469-36.915 36.281-23.522 79.83-61.094 107.769-87.622 9.743-9.198 10.676-24.498 2.176-34.827z" fill-rule="evenodd"/></svg>