<svg height="480pt" viewBox="0 0 480 480" width="480pt" xmlns="http://www.w3.org/2000/svg"><path d="m152 296h24v-16h-24v-16h32v-16h-40c-4.417969 0-8 3.582031-8 8v72h16zm0 0"/><path d="m264 304v-32c0-13.253906-10.746094-24-24-24h-16c-13.253906 0-24 10.746094-24 24v32c0 13.253906 10.746094 24 24 24h16c13.253906 0 24-10.746094 24-24zm-16 0c0 4.417969-3.582031 8-8 8h-16c-4.417969 0-8-3.582031-8-8v-32c0-4.417969 3.582031-8 8-8h16c4.417969 0 8 3.582031 8 8zm0 0"/><path d="m328 312v16h16v-16c-.015625-8.070312-3.105469-15.835938-8.640625-21.710938 7.765625-6.441406 10.648437-17.066406 7.203125-26.550781-3.441406-9.484375-12.472656-15.78125-22.5625-15.738281h-32c-4.417969 0-8 3.582031-8 8v72h16v-32h16c8.835938 0 16 7.164062 16 16zm-32-32v-16h24c4.417969 0 8 3.582031 8 8s-3.582031 8-8 8zm0 0"/><path d="m104 368c0 13.253906 10.746094 24 24 24h8c4.417969 0 8 3.582031 8 8s-3.582031 8-8 8h-32v16h32c13.253906 0 24-10.746094 24-24s-10.746094-24-24-24h-8c-4.417969 0-8-3.582031-8-8s3.582031-8 8-8h32v-16h-32c-13.253906 0-24 10.746094-24 24zm0 0"/><path d="m208 344c-17.671875 0-32 14.328125-32 32v48h16v-24h32v24h16v-48c0-17.671875-14.328125-32-32-32zm-16 40v-8c0-8.835938 7.164062-16 16-16s16 7.164062 16 16v8zm0 0"/><path d="m272 344h-16v72c0 4.417969 3.582031 8 8 8h40v-16h-32zm0 0"/><path d="m320 352v64c0 4.417969 3.582031 8 8 8h48v-16h-40v-16h24v-16h-24v-16h40v-16h-48c-4.417969 0-8 3.582031-8 8zm0 0"/><path d="m456 192h-41.144531c2.65625-9.578125.644531-19.847656-5.425781-27.714844-6.070313-7.871094-15.492188-12.421875-25.429688-12.285156-5.109375.035156-10.132812 1.308594-14.640625 3.710938l-108.359375-120.328126c1.9375-3.480468 2.972656-7.398437 3-11.382812 0-13.253906-10.746094-24-24-24s-24 10.746094-24 24c.027344 3.984375 1.0625 7.902344 3 11.382812l-108.359375 120.328126c-4.507813-2.402344-9.53125-3.675782-14.640625-3.710938-9.9375-.136719-19.359375 4.414062-25.429688 12.285156-6.070312 7.867188-8.082031 18.136719-5.425781 27.714844h-41.144531c-13.253906 0-24 10.746094-24 24v240c0 13.253906 10.746094 24 24 24h432c13.253906 0 24-10.746094 24-24v-240c0-13.253906-10.746094-24-24-24zm-56-8c-.007812 2.8125-.761719 5.574219-2.191406 8h-27.617188c-1.429687-2.425781-2.183594-5.1875-2.191406-8 0-8.835938 7.164062-16 16-16s16 7.164062 16 16zm-277.367188-17.6875 108.199219-120.152344c5.867188 2.453125 12.46875 2.453125 18.335938 0l108.199219 120.152344c-5.136719 7.515625-6.683594 16.921875-4.222657 25.6875h-226.289062c2.460937-8.765625.914062-18.171875-4.222657-25.6875zm117.367188-150.3125c4.417969 0 8 3.582031 8 8s-3.582031 8-8 8-8-3.582031-8-8 3.582031-8 8-8zm-160 168c0-8.835938 7.164062-16 16-16s16 7.164062 16 16c-.007812 2.8125-.761719 5.574219-2.191406 8h-27.617188c-1.429687-2.425781-2.183594-5.1875-2.191406-8zm384 272c0 4.417969-3.582031 8-8 8h-432c-4.417969 0-8-3.582031-8-8v-240c0-4.417969 3.582031-8 8-8h432c4.417969 0 8 3.582031 8 8zm0 0"/><path d="m32 248v32h16v-32c0-4.417969 3.582031-8 8-8h32v-16h-32c-13.253906 0-24 10.746094-24 24zm0 0"/><path d="m432 424c0 4.417969-3.582031 8-8 8h-32v16h32c13.253906 0 24-10.746094 24-24v-32h-16zm0 0"/></svg>