<svg enable-background="new 0 0 32 32" viewBox="0 0 32 32" xmlns="http://www.w3.org/2000/svg"><g id="Grid" display="none"/><g id="AI"><path d="m21.98 17.156c.487-.174.814-.639.814-1.156s-.327-.982-.812-1.156l-2.23-.804c-2.202-.793-3.92-2.512-4.714-4.714l-.804-2.23c-.175-.485-.639-.812-1.154-.812h-.001c-.516 0-.98.326-1.156.812l-.803 2.23c-.794 2.203-2.512 3.921-4.715 4.714l-2.228.804c-.487.175-.814.639-.814 1.156s.327.981.812 1.156l2.23.804c2.202.793 3.92 2.511 4.714 4.714l.804 2.231c.175.485.64.811 1.156.811h.001c.516 0 .98-.327 1.154-.812l.804-2.23c.793-2.202 2.512-3.92 4.714-4.714zm-2.906-1.078c-2.765.996-4.922 3.153-5.918 5.918l-.078.216-.078-.216c-.997-2.765-3.154-4.922-5.918-5.918l-.215-.078.216-.078c2.765-.996 4.922-3.153 5.918-5.918l.078-.216.078.216c.996 2.765 3.153 4.922 5.917 5.918l.216.078z"/><path d="m18.548 7.463 1.129.407c.977.352 1.738 1.114 2.09 2.09l.406 1.128c.159.442.581.739 1.05.739s.892-.297 1.05-.738l.407-1.129c.352-.977 1.114-1.739 2.09-2.09l1.13-.407c.439-.159.736-.58.737-1.047s-.293-.89-.737-1.052l-1.13-.407c-.976-.352-1.738-1.114-2.09-2.09l-.407-1.129c-.159-.442-.58-.738-1.049-.738-.47 0-.892.297-1.05.738l-.407 1.129c-.352.977-1.114 1.738-2.09 2.09l-1.132.408c-.44.16-.736.583-.735 1.051s.298.889.738 1.047zm4.676-3.008c.474.812 1.147 1.485 1.958 1.958-.812.474-1.485 1.147-1.958 1.958-.474-.811-1.147-1.485-1.958-1.958.811-.474 1.484-1.147 1.958-1.958z"/><path d="m27.899 24.537-1.129-.407c-.976-.352-1.738-1.114-2.09-2.09l-.407-1.129c-.159-.441-.581-.738-1.05-.738-.47 0-.892.297-1.05.738l-.407 1.129c-.352.977-1.114 1.739-2.09 2.09l-1.128.406c-.441.158-.738.58-.739 1.048s.294.891.738 1.052l1.129.407c.977.352 1.739 1.113 2.09 2.09l.406 1.128c.16.442.582.739 1.052.739s.892-.297 1.05-.738l.407-1.129c.352-.976 1.114-1.738 2.09-2.09l1.134-.408c.439-.161.734-.583.733-1.051s-.299-.888-.739-1.047zm-4.675 3.008c-.474-.812-1.147-1.485-1.958-1.958.811-.474 1.485-1.147 1.958-1.958.474.811 1.147 1.485 1.958 1.958-.811.474-1.485 1.147-1.958 1.958z"/></g><g id="artificial_intelligence"/><g id="ai_image_generator"/><g id="ai_assistant"/><g id="prompt"/><g id="ai_message"/><g id="ai_cloud"/><g id="data"/><g id="ai_photo_generator"/><g id="innovation"/><g id="ai_voice_generator"/><g id="search"/><g id="migration"/><g id="setting"/><g id="connection"/><g id="protection"/><g id="brain"/><g id="website"/><g id="ai_text_generator"/><g id="regenerate"/><g id="ai_3d_generator"/><g id="ai_document_generator"/><g id="ai_video_generator"/><g id="cloud_data"/><g id="automation"/></svg>