<svg id="Layer_3" enable-background="new 0 0 64 64" height="512" viewBox="0 0 64 64" width="512" xmlns="http://www.w3.org/2000/svg"><g><path d="m56.398 23h-2.398c0-12.131-9.869-22-22-22-3.217 0-6.312.683-9.206 2.02-.132-.008-.262-.02-.396-.02h-14.796c-3.64 0-6.602 2.962-6.602 6.602 0 .312.021.624.065.934l1.237 8.656c.473 3.311 3.352 5.808 6.698 5.808h1.096c.578 6.436 3.912 12.22 9.258 15.979 1.684 1.183 2.975 2.796 3.772 4.696-.681.551-1.126 1.383-1.126 2.325 0 .768.29 1.469.766 2-.476.531-.766 1.232-.766 2s.29 1.469.766 2c-.476.531-.766 1.232-.766 2 0 1.395.961 2.56 2.253 2.894.903 2.443 3.217 4.106 5.87 4.106h3.754c2.653 0 4.967-1.663 5.87-4.106 1.292-.334 2.253-1.499 2.253-2.894 0-.768-.29-1.469-.766-2 .476-.531.766-1.232.766-2s-.29-1.469-.766-2c.476-.531.766-1.232.766-2 0-.942-.445-1.774-1.127-2.324.129-.307.27-.607.425-.899.553.143 1.122.223 1.702.223h3v3c0 .404.243.77.617.924.124.052.254.076.383.076.26 0 .516-.102.707-.293l3.707-3.707h3.586c3.346 0 6.225-2.497 6.697-5.809l1.237-8.657c.045-.308.066-.62.066-.932 0-3.64-2.962-6.602-6.602-6.602zm-52.115-4.092-1.237-8.655c-.03-.215-.046-.433-.046-.651 0-2.538 2.064-4.602 4.602-4.602h14.797c2.537 0 4.601 2.064 4.601 4.602 0 .218-.015.435-.047.651l-1.236 8.655c-.332 2.333-2.361 4.092-4.717 4.092h-4c-.553 0-1 .447-1 1v1.586l-2.293-2.293c-.187-.188-.441-.293-.707-.293h-4c-2.356 0-4.385-1.759-4.717-4.092zm16.222 20.435c-4.811-3.383-7.833-8.566-8.404-14.343h.484l3.707 3.707c.192.191.448.293.708.293.129 0 .259-.024.383-.076.374-.154.617-.52.617-.924v-3h3c3.346 0 6.225-2.497 6.697-5.809l1.235-8.653c.046-.307.068-.622.068-.936 0-2.381-1.272-4.466-3.168-5.627 1.979-.644 4.044-.975 6.168-.975 11.028 0 20 8.972 20 20 0 6.49-3.18 12.6-8.505 16.343-2.023 1.422-3.564 3.368-4.503 5.657h-13.984c-.939-2.289-2.48-4.235-4.503-5.657zm13.372 21.657h-3.754c-1.503 0-2.85-.781-3.617-2h10.989c-.768 1.219-2.115 2-3.618 2zm5.123-4h-14c-.552 0-1-.448-1-1s.448-1 1-1h14c.552 0 1 .448 1 1s-.448 1-1 1zm0-4h-14c-.552 0-1-.448-1-1s.448-1 1-1h14c.552 0 1 .448 1 1s-.448 1-1 1zm0-4h-14c-.552 0-1-.448-1-1s.448-1 1-1h14c.552 0 1 .448 1 1s-.448 1-1 1zm21.954-18.748-1.237 8.656c-.332 2.333-2.361 4.092-4.717 4.092h-4c-.266 0-.52.105-.707.293l-2.293 2.293v-1.586c0-.553-.447-1-1-1h-4c-.162 0-.319-.03-.479-.046.614-.744 1.322-1.41 2.125-1.975 1.251-.88 2.387-1.884 3.411-2.979h9.943v-2h-8.282c.919-1.251 1.709-2.589 2.345-4h5.937v-2h-5.16c.543-1.609.901-3.285 1.059-5h2.5c2.537 0 4.601 2.064 4.601 4.602 0 .218-.016.436-.046.65z"/><path d="m26 32c0-1.654-1.346-3-3-3s-3 1.346-3 3 1.346 3 3 3 3-1.346 3-3zm-4 0c0-.552.448-1 1-1s1 .448 1 1-.448 1-1 1-1-.448-1-1z"/><path d="m32 35c1.654 0 3-1.346 3-3s-1.346-3-3-3-3 1.346-3 3 1.346 3 3 3zm0-4c.552 0 1 .448 1 1s-.448 1-1 1-1-.448-1-1 .448-1 1-1z"/><path d="m41 35c1.654 0 3-1.346 3-3s-1.346-3-3-3-3 1.346-3 3 1.346 3 3 3zm0-4c.552 0 1 .448 1 1s-.448 1-1 1-1-.448-1-1 .448-1 1-1z"/><path d="m11 10h13v2h-13z"/><path d="m6 16h18v2h-18z"/></g></svg>