<svg id="Layer_1" enable-background="new 0 0 512 512" viewBox="0 0 512 512" xmlns="http://www.w3.org/2000/svg"><path d="m503.521 302.822v115.909c0 28.719-23.352 52.085-52.056 52.085h-25.264v33.695c0 2.713-1.571 5.181-4.029 6.33-.944.442-1.954.658-2.958.658-1.609 0-3.201-.556-4.483-1.628l-46.716-39.056h-121.804c-28.719 0-52.084-23.366-52.084-52.085v-2.263c0-3.86 3.129-6.988 6.988-6.988s6.988 3.129 6.988 6.988v2.263c0 21.013 17.096 38.108 38.108 38.108h124.34c1.638 0 3.225.576 4.482 1.628l37.191 31.094v-25.733c0-3.86 3.129-6.988 6.988-6.988h32.252c20.998 0 38.081-17.096 38.081-38.108v-115.909c0-21.013-17.083-38.108-38.081-38.108h-115.145c-3.859 0-6.988-3.129-6.988-6.988s3.129-6.988 6.988-6.988h115.146c28.704-.001 52.056 23.365 52.056 52.084zm-185.167 43.625v-115.938c0-23.348-15.768-43.999-38.346-50.221-3.723-1.029-7.567 1.16-8.593 4.88-1.025 3.721 1.16 7.568 4.881 8.594 16.535 4.557 28.083 19.667 28.083 36.747v115.938c0 20.998-17.096 38.08-38.108 38.08h-112.884c-1.55 0-3.056.516-4.281 1.465l-48.851 37.862v-32.338c0-3.86-3.129-6.988-6.988-6.988h-32.251c-20.997 0-38.08-17.082-38.08-38.08v-115.939c0-17.077 11.538-32.188 28.057-36.748 3.72-1.026 5.904-4.874 4.877-8.595s-4.874-5.903-8.596-4.877c-22.559 6.225-38.315 26.876-38.315 50.22v115.938c0 28.704 23.352 52.057 52.056 52.057h25.265v39.607c0 2.667 1.518 5.101 3.912 6.275.976.479 2.028.713 3.075.713 1.522 0 3.033-.497 4.282-1.465l58.229-45.131h110.492c28.719.001 52.084-23.352 52.084-52.056zm-232.073-128.918c-10.097-12.02-22.662-26.979-22.662-59.955 0-54.07 44.877-98.058 100.038-98.058s100.038 43.989 100.038 98.058c0 32.976-12.566 47.935-22.663 59.955-7.521 8.954-12.956 15.424-12.956 27.551 0 7.32-4.633 13.577-11.147 16.094v17.063c0 10.546-9.011 19.126-20.087 19.126h-.764v.904c0 16.864-14.544 30.584-32.422 30.584s-32.422-13.72-32.422-30.584v-.904h-.792c-11.06 0-20.059-8.58-20.059-19.126v-17.063c-6.513-2.517-11.147-8.774-11.147-16.094.002-12.127-5.433-18.597-12.955-27.551zm95.822 79.833h-36.892v.904c0 9.158 8.275 16.607 18.446 16.607s18.446-7.449 18.446-16.607zm20.851-19.126v-15.87h-78.594v15.87c0 2.791 2.786 5.149 6.083 5.149h66.4c3.312.001 6.111-2.357 6.111-5.149zm-20.426-118.681c0-10.405-8.465-18.87-18.87-18.87s-18.87 8.465-18.87 18.87c0 10.421 8.465 18.899 18.87 18.899s18.87-8.478 18.87-18.899zm-104.933-1.981c0 27.884 9.856 39.618 19.388 50.965 7.98 9.499 16.231 19.322 16.231 36.54 0 1.794 1.607 3.31 3.508 3.31h39.948v-56.716c-14.765-3.215-25.858-16.391-25.858-32.119 0-18.111 14.734-32.846 32.846-32.846s32.846 14.735 32.846 32.846c0 15.728-11.093 28.904-25.858 32.119v56.716h39.947c1.902 0 3.508-1.516 3.508-3.31 0-17.218 8.251-27.041 16.231-36.54 9.532-11.347 19.389-23.081 19.389-50.965 0-46.363-38.607-84.081-86.062-84.081s-86.064 37.718-86.064 84.081zm86.062-117.777c3.859 0 6.988-3.129 6.988-6.988v-25.321c0-3.86-3.129-6.988-6.988-6.988s-6.988 3.129-6.988 6.988v25.321c0 3.86 3.129 6.988 6.988 6.988zm58.152 15.161c1.101.635 2.302.938 3.488.938 2.415 0 4.764-1.253 6.058-3.495l12.448-21.558c1.93-3.342.785-7.616-2.557-9.546-3.342-1.929-7.616-.785-9.546 2.558l-12.448 21.558c-1.93 3.342-.785 7.616 2.557 9.545zm49.588 45.498c1.185 0 2.386-.302 3.486-.937l20.596-11.883c3.343-1.929 4.489-6.202 2.56-9.545s-6.203-4.49-9.545-2.56l-20.596 11.883c-3.343 1.929-4.489 6.202-2.56 9.545 1.294 2.242 3.643 3.497 6.059 3.497zm-255.93 62.211h22.237c3.859 0 6.988-3.129 6.988-6.988 0-3.86-3.129-6.988-6.988-6.988h-22.237c-3.859 0-6.988 3.129-6.988 6.988s3.129 6.988 6.988 6.988zm267.155-6.989c0 3.86 3.129 6.988 6.988 6.988h22.209c3.859 0 6.988-3.129 6.988-6.988 0-3.86-3.129-6.988-6.988-6.988h-22.209c-3.859 0-6.988 3.129-6.988 6.988zm-250.79-68.044 20.568 11.883c1.101.636 2.303.939 3.489.939 2.414 0 4.762-1.252 6.057-3.493 1.931-3.342.787-7.616-2.555-9.547l-20.568-11.883c-3.341-1.931-7.616-.789-9.546 2.555-1.931 3.341-.787 7.615 2.555 9.546zm64.126-35.233c1.295 2.242 3.643 3.495 6.058 3.495 1.186 0 2.387-.302 3.488-.938 3.342-1.93 4.487-6.204 2.557-9.546l-12.448-21.557c-1.93-3.342-6.203-4.487-9.546-2.558-3.342 1.93-4.487 6.204-2.557 9.546z"/></svg>