<svg id="Layer_1" height="512" viewBox="0 0 1000 1000" width="512" xmlns="http://www.w3.org/2000/svg" data-name="Layer 1"><path d="m580.09 262.31h-160.18a16 16 0 0 1 0-32h160.18a16 16 0 0 1 0 32z"/><path d="m580.09 367.51h-160.18a16 16 0 0 1 0-32h160.18a16 16 0 0 1 0 32z"/><path d="m470.6 588.08a38.77 38.77 0 0 1 -37.31-48.43 181.32 181.32 0 0 0 5.3-34.73 215 215 0 0 1 -153.51-206 214.9 214.9 0 1 1 257.54 210.69c-10.46 28.15-26.29 51.38-47.13 69.13a38.28 38.28 0 0 1 -24.89 9.34zm29.4-472.08c-100.86 0-182.92 82.06-182.92 182.92 0 85.63 58.17 158.9 141.45 178.2a16 16 0 0 1 12.39 15.55 218.37 218.37 0 0 1 -6.65 55 6.3 6.3 0 0 0 2.86 7.35 6.11 6.11 0 0 0 7.62-.61c18.45-15.72 32.1-37.16 40.56-63.71a16 16 0 0 1 12.81-11c88.25-13.62 154.8-91.34 154.8-180.78 0-100.86-82.06-182.92-182.92-182.92z"/><path d="m576 882.82c-1.51 0-3-.06-4.32-.17-42.76-3.67-118.46-23.78-171.1-51.11a97.19 97.19 0 0 0 -80.58-4.12 16 16 0 0 1 -20-7.34l-71.8-134.54a16 16 0 0 1 10.21-23c16-4 157.25-39.36 188.07-39.36 27.66 0 148.17 31.32 204.95 58a57 57 0 0 1 31.31 38.3l150.47-68a47.72 47.72 0 0 1 43.72 2c20.76 12.16 28.05 37.6 20 69.8a48.17 48.17 0 0 1 -18 26.88c-20.65 15.35-77.4 49.12-136.6 79-70.58 35.61-119.77 53.66-146.33 53.66zm-220.28-94.23a129.25 129.25 0 0 1 59.57 14.55c48.44 25.15 120.3 44.3 159.08 47.62 6.85.59 36.74-1.3 133.52-50.22 56.91-28.76 112.8-61.93 132-76.16a16.12 16.12 0 0 0 6-9c2.06-8.25 5.68-28.1-5.13-34.44a15.72 15.72 0 0 0 -14.37-.42l-166.92 75.48a56.55 56.55 0 0 1 -8 12.81c-.6.72-1.22 1.45-1.87 2.17a56.77 56.77 0 0 1 -61.6 15.57l-84.14-30a62.14 62.14 0 0 0 -54.14 5.91 16 16 0 0 1 -17-27.12 94 94 0 0 1 81.87-8.93l84.14 30a24.88 24.88 0 0 0 27-6.75c.38-.42.74-.83 1.08-1.25a24.15 24.15 0 0 0 4.95-20.83 25.24 25.24 0 0 0 -14-17.47c-56.13-26.4-172.7-55-191.33-55-18.27 0-99.59 18.5-160.39 33.45l55.75 104.54a129.14 129.14 0 0 1 33.93-4.51z"/><path d="m256 916a43.67 43.67 0 0 1 -38.52-23l-92.48-172.39a43.68 43.68 0 0 1 17.84-59.07l45.74-24.54a43.63 43.63 0 0 1 59.07 17.83l92.43 172.37a43.67 43.67 0 0 1 -17.83 59.07l-45.74 24.53a43.35 43.35 0 0 1 -20.51 5.2zm-46.82-252.17a11.58 11.58 0 0 0 -5.48 1.38l-45.7 24.53a11.64 11.64 0 0 0 -4.75 15.75l92.43 172.37a11.62 11.62 0 0 0 15.75 4.75l45.74-24.53a11.62 11.62 0 0 0 4.75-15.74l-92.47-172.34a11.65 11.65 0 0 0 -10.27-6.14z"/></svg>