<svg id="OBJECT" height="512" viewBox="0 0 512 512" width="512" xmlns="http://www.w3.org/2000/svg"><path d="m477 0h-321a35 35 0 0 0 -35 35v86h-86a35 35 0 0 0 -35 35v321a35 35 0 0 0 35 35h321a35 35 0 0 0 35-35v-86h86a35 35 0 0 0 35-35v-321a35 35 0 0 0 -35-35zm-116 477a5 5 0 0 1 -5 5h-321a5 5 0 0 1 -5-5v-321a5 5 0 0 1 5-5h86v205a35 35 0 0 0 35 35h205zm121-121a5 5 0 0 1 -5 5h-321a5 5 0 0 1 -5-5v-321a5 5 0 0 1 5-5h321a5 5 0 0 1 5 5z"/><path d="m396.5 180.5h-65v-65a15 15 0 0 0 -30 0v65h-65a15 15 0 0 0 0 30h65v65a15 15 0 0 0 30 0v-65h65a15 15 0 0 0 0-30z"/></svg>