<?xml version="1.0" encoding="UTF-8"?>
<svg xmlns="http://www.w3.org/2000/svg" id="Icons" viewBox="0 0 60 60" width="512" height="512"><path d="M42,24c-.075,0-.147.008-.221.009A21,21,0,1,0,0,21a20.686,20.686,0,0,0,2.115,9.176L.068,39.057a2.389,2.389,0,0,0,2.867,2.878l8.89-2.049A20.691,20.691,0,0,0,21,42a21.109,21.109,0,0,0,3.01-.224c0,.076-.01.148-.01.224A18.007,18.007,0,0,0,49.513,58.361l6.872,1.583a2.2,2.2,0,0,0,.488.056,2.13,2.13,0,0,0,2.071-2.615l-1.437-6.242A18,18,0,0,0,42,24ZM12.405,37.939a1.006,1.006,0,0,0-.455-.109,1.061,1.061,0,0,0-.224.025L2.477,39.987a.388.388,0,0,1-.462-.472l2.13-9.241a1.01,1.01,0,0,0-.084-.679A18.7,18.7,0,0,1,2,21,19,19,0,1,1,25.829,39.382,19.276,19.276,0,0,1,21,40,18.7,18.7,0,0,1,12.405,37.939Zm43.188,12.5a1,1,0,0,0-.127.756L57,57.836a.126.126,0,0,1-.034.125.13.13,0,0,1-.127.034l-7.21-1.66a1.012,1.012,0,0,0-.659.074A16.008,16.008,0,0,1,26,42c0-.209.018-.409.026-.613.1-.025.205-.043.307-.07A20.853,20.853,0,0,0,34.557,37H51a1,1,0,0,0,0-2H36.611a20.941,20.941,0,0,0,4.767-8.974c.207-.008.411-.026.622-.026A16.019,16.019,0,0,1,58,42,15.852,15.852,0,0,1,55.593,50.438Z"/><path d="M37,21A16,16,0,1,0,21,37,16.019,16.019,0,0,0,37,21ZM21,35A14,14,0,1,1,35,21,14.015,14.015,0,0,1,21,35Z"/><path d="M22,20.222V14.07a5.492,5.492,0,0,1,3.442,1.585,1,1,0,0,0,1.511-1.31A7.521,7.521,0,0,0,22,12.053V11a1,1,0,0,0-2,0v1.054c-3.434.338-6,2.386-6,4.946,0,3.022,3.045,4.021,6,4.778V27.93a5.492,5.492,0,0,1-3.442-1.585,1,1,0,0,0-1.511,1.31A7.521,7.521,0,0,0,20,29.947V31a1,1,0,0,0,2,0V29.946c3.434-.338,6-2.386,6-4.946C28,21.978,24.955,20.979,22,20.222ZM16,17c0-1.421,1.749-2.649,4-2.936v5.643C17.547,19.043,16,18.378,16,17Zm6,10.936V22.293c2.453.664,4,1.329,4,2.707C26,26.421,24.251,27.649,22,27.936Z"/><path d="M51,41H33a1,1,0,0,0,0,2H51a1,1,0,0,0,0-2Z"/><path d="M48,47H33a1,1,0,0,0,0,2H48a1,1,0,0,0,0-2Z"/></svg>
