<svg id="Layer_1" enable-background="new 0 0 512 512" height="512" viewBox="0 0 512 512" width="512" xmlns="http://www.w3.org/2000/svg"><path d="m148.412 251.744c10.014 0 18.968-4.614 24.855-11.826l56.949 26.229c-.337 1.86-.522 3.772-.522 5.727 0 17.689 14.392 32.081 32.081 32.081s32.081-14.392 32.081-32.081c0-5.355-1.326-10.404-3.656-14.846l104.009-93.727-1.626 19.938c-.359 4.403 2.92 8.265 7.323 8.624.222.018.44.027.659.027 4.123 0 7.623-3.168 7.965-7.35l3.362-41.21c.195-2.391-.693-4.743-2.42-6.408-1.725-1.664-4.095-2.469-6.491-2.187l-41.062 4.843c-4.388.518-7.525 4.494-7.008 8.882s4.493 7.526 8.883 7.008l17.499-2.064-101.805 91.741c-5.08-3.377-11.169-5.35-17.712-5.35-10.014 0-18.968 4.614-24.856 11.826l-56.949-26.229c.337-1.86.522-3.772.522-5.728 0-17.689-14.392-32.081-32.081-32.081s-32.081 14.391-32.081 32.081c0 2.947.407 5.799 1.155 8.512l-105.465 60.472c-3.833 2.198-5.158 7.086-2.961 10.919 1.479 2.578 4.175 4.022 6.948 4.022 1.349 0 2.717-.342 3.972-1.062l105.48-60.483c5.831 5.979 13.963 9.7 22.952 9.7zm113.363 4.049c8.867 0 16.081 7.214 16.081 16.081s-7.214 16.081-16.081 16.081-16.081-7.214-16.081-16.081 7.214-16.081 16.081-16.081zm-113.363-52.211c8.867 0 16.081 7.214 16.081 16.081s-7.214 16.081-16.081 16.081-16.081-7.214-16.081-16.081 7.214-16.081 16.081-16.081zm276.136 170.158c.851 6.999-1.039 13.401-5.463 18.517-4.559 5.271-11.778 8.96-20.051 10.404v4.002c0 4.418-3.582 8-8 8s-8-3.582-8-8v-4.132c-12.731-2.576-22.499-11.151-25.477-23.093-1.068-4.287 1.54-8.628 5.827-9.697 4.29-1.07 8.629 1.54 9.698 5.827 2.232 8.959 11.534 11.93 18.807 11.76 6.294-.15 12.359-2.375 15.094-5.537 1.45-1.677 1.985-3.623 1.682-6.122-.521-4.288-3.134-9.541-18.854-12.122-23.781-3.905-29.336-16.333-29.808-26.071-.652-13.421 8.597-24.651 23.03-27.989v-4.267c0-4.418 3.582-8 8-8s8 3.582 8 8v4.196c9.375 2.055 18.313 7.979 22.974 19.079 1.711 4.074-.205 8.763-4.279 10.473-4.069 1.71-8.763-.204-10.473-4.279-3.784-9.012-13.036-11.332-20.527-9.634-1.868.424-11.165 2.976-10.744 11.645.112 2.306.409 8.429 16.42 11.059 19.627 3.222 30.443 11.963 32.144 25.981zm-33.514-105.952c-48.608 0-88.154 39.545-88.154 88.153s39.546 88.154 88.154 88.154c48.607 0 88.153-39.545 88.153-88.154.001-48.608-39.545-88.153-88.153-88.153zm0 160.307c-39.786 0-72.154-32.368-72.154-72.154s32.368-72.153 72.154-72.153c39.785 0 72.153 32.368 72.153 72.153s-32.368 72.154-72.153 72.154zm0-185.121c-62.291 0-112.968 50.677-112.968 112.967s50.677 112.967 112.968 112.967c62.29 0 112.967-50.677 112.967-112.967s-50.677-112.967-112.967-112.967zm0 209.935c-53.469 0-96.968-43.5-96.968-96.967s43.499-96.967 96.968-96.967c53.468 0 96.967 43.5 96.967 96.967s-43.499 96.967-96.967 96.967zm-198.944-80.098c16.031-11 26.571-29.448 26.571-50.316 0-33.63-27.359-60.99-60.989-60.99s-60.99 27.36-60.99 60.99c0 20.868 10.54 39.315 26.571 50.315-41.56 13.231-72.87 49.854-77.737 95.352-.242 2.257.486 4.51 2.004 6.199 1.518 1.688 3.681 2.652 5.95 2.652h208.402c2.27 0 4.433-.964 5.95-2.653 1.518-1.688 2.246-3.941 2.004-6.198-4.868-45.496-36.177-82.119-77.736-95.351zm-79.408-50.315c0-24.808 20.183-44.99 44.99-44.99s44.989 20.182 44.989 44.99-20.182 44.99-44.989 44.99-44.99-20.183-44.99-44.99zm-49.901 138.518c8.979-44.777 48.308-77.528 94.89-77.528 46.581 0 85.91 32.751 94.89 77.528zm125.49-286.278h6.934v27.95c0 3.265 1.984 6.202 5.013 7.421.969.39 1.981.579 2.985.579 2.137 0 4.232-.856 5.771-2.458l32.175-33.492h76.385c14.143 0 25.648-11.506 25.648-25.648v-88.453c0-14.143-11.506-25.648-25.648-25.648h-129.263c-14.143 0-25.648 11.506-25.648 25.648v88.453c-.001 14.142 11.505 25.648 25.648 25.648zm-9.649-114.101c0-5.32 4.328-9.648 9.648-9.648h129.263c5.32 0 9.648 4.328 9.648 9.648v88.453c0 5.32-4.328 9.648-9.648 9.648h-79.793c-2.178 0-4.261.888-5.77 2.458l-20.767 21.617v-16.075c0-4.418-3.582-8-8-8h-14.934c-5.32 0-9.648-4.328-9.648-9.648v-88.453zm21.714 12.44c0-4.418 3.582-8 8-8h89.132c4.418 0 8 3.582 8 8s-3.582 8-8 8h-89.132c-4.418 0-8-3.582-8-8zm0 31.786c0-4.418 3.582-8 8-8h89.132c4.418 0 8 3.582 8 8s-3.582 8-8 8h-89.132c-4.418 0-8-3.581-8-8zm0 31.786c0-4.418 3.582-8 8-8h89.132c4.418 0 8 3.582 8 8s-3.582 8-8 8h-89.132c-4.418 0-8-3.581-8-8z"/></svg>