<svg id="Слой_1" enable-background="new 0 0 56 56" height="512" viewBox="0 0 56 56" width="512" xmlns="http://www.w3.org/2000/svg"><g id="XMLID_1494_"><path id="XMLID_7_" d="m12.285 37.515c-.253 0-.509-.049-.753-.152-.736-.307-1.211-1.024-1.211-1.826v-3.461h-2.877c-1.623 0-2.944-1.33-2.944-2.965v-19.647c0-1.635 1.321-2.964 2.944-2.964h26.917c1.623 0 2.944 1.33 2.944 2.965v19.647c0 1.635-1.32 2.965-2.941 2.965h-15.869l-4.824 4.858c-.377.379-.877.58-1.386.58zm-4.841-29.039c-.541 0-.981.443-.981.988v19.647c0 .545.44.988.981.988h3.858c.542 0 .981.442.981.988v4.449l5.112-5.148c.184-.185.434-.29.694-.29h16.275c.54 0 .978-.443.978-.988v-19.646c0-.545-.44-.988-.981-.988z"/><path id="XMLID_6_" d="m43.716 49.5c-.51 0-1.009-.201-1.386-.58l-4.825-4.859h-15.87c-1.622 0-2.941-1.33-2.941-2.965v-6.218c0-.546.439-.988.981-.988s.981.442.981.988v6.218c0 .545.439.988.978.988h16.276c.261 0 .51.104.694.29l5.112 5.149v-4.45c0-.546.439-.988.981-.988h3.857c.541 0 .981-.443.981-.988v-19.649c0-.545-.44-.988-.981-.988h-12.229c-.542 0-.981-.442-.981-.988s.439-.988.981-.988h12.232c1.623 0 2.944 1.33 2.944 2.965v19.647c0 1.635-1.321 2.965-2.944 2.965h-2.877v3.462c0 .802-.475 1.519-1.211 1.826-.244.101-.5.151-.753.151z"/><g id="XMLID_1498_"><path id="XMLID_5_" d="m20.902 22.993c-.542 0-.981-.442-.981-.988v-2.903c0-.546.439-.988.981-.988h3.128v-4.138h-6.256v2.1c0 .546-.439.988-.981.988s-.981-.442-.981-.988v-3.088c0-.546.439-.988.981-.988h8.218c.542 0 .981.442.981.988v6.115c0 .546-.439.988-.981.988h-3.128v1.915c.001.544-.439.987-.981.987z"/><ellipse id="XMLID_1522_" cx="20.903" cy="25.342" rx="1.227" ry="1.235"/></g><path id="XMLID_4_" d="m45.054 26.639h-4.805c-.542 0-.981-.442-.981-.988s.439-.988.981-.988h4.805c.542 0 .981.442.981.988s-.439.988-.981.988z"/><path id="XMLID_3_" d="m45.054 31.994h-4.805c-.542 0-.981-.442-.981-.988s.439-.988.981-.988h4.805c.542 0 .981.442.981.988s-.439.988-.981.988z"/><path id="XMLID_2_" d="m45.054 37.305h-19.524c-.542 0-.981-.442-.981-.988s.439-.988.981-.988h19.524c.542 0 .981.442.981.988s-.439.988-.981.988z"/></g></svg>