<svg id="Capa_1" enable-background="new 0 0 512.026 512.026" height="512" viewBox="0 0 512.026 512.026" width="512" xmlns="http://www.w3.org/2000/svg"><g><g><path d="m508.085 349.29c-8.638-18.033-29.466-26.89-48.444-20.602l-120.6 39.948c-2.704-18.804-17.879-33.99-37.423-36.081l-55.271-5.914-73.674-17.907c-33.497-8.143-68.025 3.657-89.619 29.135l-.445-1.142c-.962-2.472-2.867-4.459-5.295-5.527s-5.181-1.125-7.652-.164l-63.289 24.64c-5.146 2.004-7.694 7.8-5.691 12.947l53.332 136.988c1.54 3.955 5.318 6.375 9.321 6.375 1.206 0 2.434-.22 3.625-.684l63.289-24.639c2.471-.962 4.459-2.867 5.527-5.295.926-2.107 1.09-4.458.489-6.658l144.103.154h.217c22.312 0 44.084-4.321 64.707-12.843l142.081-58.711c10.216-4.222 18.021-12.231 21.979-22.553 3.959-10.324 3.509-21.498-1.267-31.467zm-439.06 139.746-46.076-118.351 44.651-17.384 46.076 118.351zm421.655-115.44c-1.97 5.139-5.856 9.126-10.942 11.228l-142.081 58.711c-18.189 7.517-37.389 11.328-57.071 11.328-.064 0-.128 0-.192 0l-151.855-.162-36.846-94.644c15.617-26.067 46.461-39.132 76.257-31.887l74.315 18.063c.427.104.861.179 1.298.226l55.927 5.984c11.761 1.258 20.527 11.499 19.957 23.312-.29 6.017-2.92 11.546-7.405 15.569-4.484 4.022-10.262 6.044-16.28 5.675l-89.756-5.425c-5.514-.338-10.252 3.866-10.585 9.378-.333 5.513 3.866 10.252 9.378 10.585 0 0 91.504 5.504 92.375 5.504 10.442 0 20.381-3.794 28.224-10.829 4.89-4.386 8.607-9.72 10.994-15.629l129.539-42.909c9.447-3.13 19.817 1.28 24.118 10.257 2.377 4.963 2.601 10.526.631 15.665z"/><path d="m69.919 28.647c21.794 5.054 43.113 11.585 63.833 19.5.197 31.878 10.019 63.549 28.009 89.902 3.114 4.561 9.336 5.734 13.897 2.621 4.561-3.114 5.735-9.336 2.621-13.897-14.175-20.764-22.56-45.3-24.225-70.344 79.666 34.599 149.424 90.11 201.488 161.387 1.958 2.681 5 4.102 8.083 4.102 2.046 0 4.111-.626 5.89-1.925 4.46-3.258 5.434-9.514 2.177-13.974-53.922-73.821-126.094-131.39-208.523-167.431 36.046-24.849 84.688-25.009 121.105 1.203l7.934 5.71-6.919 2.988c-4.153 1.794-6.585 6.152-5.93 10.628.655 4.477 4.233 7.956 8.727 8.484 43.097 5.068 79.867 33.146 96.431 72.716l-13.352 2.644c-4.141.82-7.321 4.152-7.947 8.327s1.438 8.293 5.156 10.291c15.838 8.511 28.963 21.133 37.956 36.501 12.144 20.754 29.594 38.249 50.164 50.551-21.079 11.454-43.958 18.709-68.235 21.617-48.667 5.83-93.003-29.022-98.832-77.689-.563-4.705-4.352-8.368-9.073-8.774-4.72-.403-9.079 2.558-10.437 7.098l-4.081 13.641-23.758-18.929c-4.318-3.44-10.61-2.729-14.053 1.59-3.441 4.32-2.729 10.611 1.59 14.053l35.33 28.148c2.598 2.07 6.053 2.715 9.222 1.721 1.896-.594 3.541-1.728 4.761-3.225 17.572 37.736 55.889 63.008 98.679 63.004 4.3 0 8.656-.256 13.03-.78 33.29-3.988 64.214-15.384 91.913-33.873 3.049-2.035 4.74-5.576 4.407-9.227s-2.638-6.827-6.005-8.276c-23.844-10.264-44.214-28.288-57.36-50.752-6.663-11.386-15.198-21.52-25.212-30.02l1.463-.29c2.785-.551 5.204-2.26 6.654-4.701s1.795-5.382.948-8.092c-13.395-42.855-46.38-76.108-87.714-90.425 1.419-1.546 2.342-3.527 2.576-5.685.389-3.58-1.177-7.092-4.1-9.195l-22.249-16.014c-46.827-33.705-110.646-30.795-154.184 6.247-21.847-8.392-44.337-15.307-67.336-20.641-5.381-1.253-10.753 2.103-12.001 7.482-1.248 5.383 2.102 10.755 7.482 12.003z"/><circle cx="200.713" cy="165.31" r="10"/></g></g></svg>