<svg height="512pt" viewBox="0 0 512 512.00072" width="512pt" xmlns="http://www.w3.org/2000/svg"><path d="m502 492h-44v-13.28125c0-5.519531-4.480469-10-10-10-5.523438 0-10 4.480469-10 10v13.28125h-172v-13.28125c0-5.519531-4.476562-10-10-10s-10 4.480469-10 10v13.28125h-172v-13.28125c0-5.519531-4.476562-10-10-10s-10 4.480469-10 10v13.28125h-44c-5.523438 0-10 4.480469-10 10 0 5.523438 4.476562 10 10 10h492c5.519531 0 10-4.476562 10-10 0-5.519531-4.476562-10-10-10zm0 0"/><path d="m40.003906 438c0 5.523438 4.476563 10 10 10h100.125v13.28125c0 5.523438 4.476563 10 10 10 5.519532 0 10-4.476562 10-10v-13.28125h171.996094v13.28125c0 5.523438 4.480469 10 10 10 5.523438 0 10-4.476562 10-10v-13.28125h139.875c5.519531 0 10-4.476562 10-10 0-5.519531-4.480469-10-10-10h-451.996094c-5.523437 0-10 4.476562-10 10zm0 0"/><path d="m10 448c2.628906 0 5.210938-1.070312 7.070312-2.929688 1.859376-1.859374 2.929688-4.441406 2.929688-7.070312s-1.070312-5.210938-2.929688-7.070312c-1.859374-1.859376-4.441406-2.929688-7.070312-2.929688s-5.210938 1.070312-7.070312 2.929688c-1.859376 1.863281-2.929688 4.441406-2.929688 7.070312s1.070312 5.210938 2.929688 7.070312c1.859374 1.859376 4.441406 2.929688 7.070312 2.929688zm0 0"/><path d="m27.9375 234.6875c23.074219 11.894531 64.699219 27.460938 124.425781 27.460938 27.195313 0 58.144531-3.226563 92.796875-11.5 2.007813-.476563 3.984375-.96875 5.960938-1.464844 1.738281-.433594 3.328125-1.328125 4.605468-2.589844l37.039063-36.648438 7.375 14.6875c2.332031 4.648438 7.839844 6.730469 12.664063 4.792969 33.28125-13.371093 60.871093-29.523437 82.003906-48.007812 2.144531-1.875 3.386718-4.574219 3.414062-7.421875l.226563-21.300782 4.691406 4.691407c2.066406 2.0625 4.933594 3.125 7.832031 2.898437 2.910156-.222656 5.578125-1.703125 7.304688-4.054687 21.308594-29.046875 24.609375-59.632813 9.917968-84.632813 4.746094-3.648437 9.453126-7.355468 14.109376-11.128906l52.703124-42.699219c4.289063-3.476562 4.953126-9.773437 1.472657-14.0625-3.472657-4.292969-9.773438-4.953125-14.0625-1.476562l-52.703125 42.699219c-4.589844 3.71875-9.222656 7.367187-13.886719 10.957031-19.511719-19.8125-40.628906-30.375-64.46875-32.25-30.042969-2.367188-64.238281 8.847656-104.570313 34.269531-6.828124 4.308594-10.59375 6.59375-17.429687 10.746094l-5.027344 3.050781c-2.863281 1.742187-4.664062 4.800781-4.796875 8.144531-.136718 3.347656 1.414063 6.539063 4.128906 8.503906l4.496094 3.253907-25.011718-4.167969c-2.339844-.386719-4.742188.066406-6.78125 1.285156-58.605469 35.070313-131.34375 76.804688-169.484376 98.5625-8.589843 4.898438-13.796874 14.082032-13.585937 23.964844.207031 9.910156 5.820313 18.890625 14.640625 23.4375zm380.625-100.164062-12.792969-12.792969c-2.847656-2.847657-7.121093-3.707031-10.847656-2.1875s-6.179687 5.128906-6.222656 9.152343l-.425781 40.542969c-17.140626 14.269531-38.769532 27.054688-64.4375 38.097657l-9.375-18.671876c-1.4375-2.863281-4.15625-4.863281-7.316407-5.382812-3.164062-.523438-6.378906.507812-8.652343 2.757812l-44.882813 44.402344c-1.023437.253906-2.050781.507813-3.089844.753906-33.101562 7.898438-62.507812 10.96875-88.246093 10.96875-55.511719 0-93.914063-14.292968-115.171876-25.253906-.007812-.003906-.015624-.007812-.023437-.011718.253906.019531.507813.035156.765625.035156.195312 0 .390625-.003906.589844-.015625 73.496094-4.28125 145.566406-19.9375 214.214844-46.53125 56.773437-21.992188 110.234374-51.097657 159.390624-86.722657 8 15.113282 6.835938 32.582032-3.476562 50.859376zm-205.082031-26.75 63.398437 10.558593c4.589844.761719 9.082032-1.726562 10.871094-6.007812 1.789062-4.285157.398438-9.234375-3.363281-11.957031l-26.804688-19.394532c3.035157-1.859375 5.957031-3.675781 9.875-6.144531 36.550781-23.042969 66.753907-33.277344 92.332031-31.253906 18.320313 1.445312 34.273438 9.246093 49.828126 24.410156-102.15625 73.976563-221.3125 117.90625-347.542969 127.945313 39.511719-22.605469 100.367187-57.671876 151.40625-88.15625zm0 0"/><path d="m123.734375 374.335938c5.519531 0 10-4.480469 10-10 0-5.523438-4.480469-10-10-10h-.121094c-5.523437 0-10 4.476562-10 10 0 5.519531 4.476563 10 10 10zm0 0"/><path d="m79.703125 362.027344c1.625.988281 3.417969 1.457031 5.191406 1.457031 3.375 0 6.667969-1.707031 8.550781-4.800781 2.871094-4.71875 1.375-10.871094-3.34375-13.742188-19.472656-11.851562-31.101562-32.539062-31.101562-55.339844 0-5.519531-4.476562-10-10-10s-10 4.480469-10 10c0 29.835938 15.21875 56.910157 40.703125 72.425782zm0 0"/><path d="m458 242.421875c0-5.519531-4.480469-10-10-10-5.523438 0-10 4.480469-10 10 0 18.75-15.253906 34-34 34-5.523438 0-10 4.480469-10 10 0 5.523437 4.476562 10 10 10 29.777344 0 54-24.222656 54-54zm0 0"/></svg>