<svg clip-rule="evenodd" fill-rule="evenodd" stroke-linejoin="round" stroke-miterlimit="2" viewBox="0 0 100 100" xmlns="http://www.w3.org/2000/svg" xmlns:serif="http://www.serif.com/"><g transform="translate(-450)"><g id="Page-5" transform="translate(450)"><path d="m0 0h100v100h-100z" fill="none"/><g transform="translate(-450)"><path d="m467.432 54.922v7.728c-7.125 1.789-12.407 8.241-12.407 15.917 0 6.212 3.46 11.623 8.556 14.408h-7.556c-.552 0-1 .448-1 1s.448 1 1 1h87.95c.552 0 1-.448 1-1s-.448-1-1-1h-7.556c5.096-2.785 8.556-8.196 8.556-14.408 0-9.057-7.352-16.409-16.408-16.409-.657 0-1.305.039-1.94.114l-2.482-13.929h7.623c.303 0 .549.246.549.549v4.435c0 .302-.244.548-.547.549l-1.886.007c-.552.002-.998.452-.996 1.004s.452.998 1.004.996c0 0 .975-.004 1.885-.007 1.405-.005 2.54-1.145 2.54-2.549v-4.435c0-1.408-1.141-2.549-2.549-2.549-2.891 0-8.817 0-8.817 0-.296 0-.577.131-.767.358s-.269.526-.218.817l.72 4.041h-28.583l-.411-2.31h4.322c.552 0 1-.448 1-1s-.448-1-1-1h-9.095c-.552 0-.999.448-.999.999v.001c0 .553.447 1 1 1h2.74l.54 3.028-10.925 13.162c-1.568-1.177-3.353-2.081-5.284-2.639v-7.878h2.611c2.019 0 3.911-.982 5.074-2.632s1.451-3.762.772-5.664c0 0-1.043-2.922-1.043-2.922.126-.494.193-1.011.193-1.543 0-2.049-.994-3.878-2.551-5.058 0 0-.238-.669-.238-.669.405-.83.631-1.757.631-2.734 0-2.5-1.482-4.676-3.658-5.739.001.001-.399-1.12-.399-1.12.327-.758.508-1.591.508-2.464 0-2.081-1.027-3.936-2.626-5.113.326-.627.51-1.339.51-2.094 0-2.309-1.723-4.218-3.953-4.511l-.126-.015c-.155-.016-.311-.024-.47-.024-2.511 0-4.55 2.039-4.55 4.55 0 .755.184 1.467.51 2.094-1.598 1.177-2.625 3.032-2.625 5.113 0 .976.225 1.901.63 2.73-2.455.953-4.18 3.272-4.18 5.966 0 1.277.387 2.468 1.055 3.47-1.507 1.182-2.465 2.981-2.465 4.991 0 .658.103 1.293.294 1.892 0-.001-1.143 3.2-1.143 3.2-.679 1.902-.391 4.014.771 5.664 1.163 1.65 3.056 2.632 5.075 2.632zm9.004 24.94c-.576 2.225-2.598 3.871-5.003 3.871-2.851 0-5.166-2.315-5.166-5.166 0-2.852 2.315-5.167 5.166-5.167.962 0 1.863.264 2.634.722l5.929-7.142c-2.395-1.773-5.357-2.822-8.563-2.822-7.952 0-14.408 6.456-14.408 14.409 0 7.952 6.456 14.408 14.408 14.408 7.516 0 13.696-5.767 14.352-13.113zm48.574-15.261c-6.234 1.585-10.852 7.24-10.852 13.966 0 7.952 6.456 14.408 14.409 14.408 7.952 0 14.408-6.456 14.408-14.408 0-7.953-6.456-14.409-14.408-14.409-.537 0-1.067.029-1.589.087l1.631 9.156c2.832.023 5.124 2.329 5.124 5.166 0 2.851-2.315 5.166-5.166 5.166-2.852 0-5.167-2.315-5.167-5.166 0-2.172 1.344-4.033 3.244-4.796zm-.352-1.974-1.423-7.989-24.571 24.926-.077.07c-.11.091-.242.159-.389.197l-.106.021c-.051.007-.102.01-.152.01h-10.148c-.443 5.663-3.767 10.523-8.506 13.113h41.428c-5.096-2.785-8.556-8.196-8.556-14.408 0-7.71 5.328-14.185 12.5-15.94zm4.312 12.799.351 1.967c.096.543-.266 1.063-.809 1.159-.544.097-1.064-.265-1.16-.809l-.345-1.932c-.959.544-1.607 1.575-1.607 2.756 0 1.747 1.419 3.166 3.167 3.166 1.747 0 3.166-1.419 3.166-3.166 0-1.611-1.205-2.942-2.763-3.141zm-58.448 3.024c.036-.08.083-.157.142-.227l2.1-2.53c-.405-.188-.856-.293-1.331-.293-1.747 0-3.166 1.419-3.166 3.167 0 1.747 1.419 3.166 3.166 3.166 1.287 0 2.395-.769 2.89-1.871h-2.89c-.084-.002-.167-.012-.249-.032l-.162-.057c-.08-.036-.157-.083-.227-.142-.114-.095-.202-.209-.262-.335l-.009-.019c-.058-.127-.091-.267-.091-.415 0-.092.013-.181.036-.266zm3.041-.588h.957c-.063-.281-.165-.548-.298-.795zm12.262-.001c-.181-3.747-1.796-7.12-4.308-9.583l-5.959 7.18c.52.688.871 1.509.994 2.404zm10.933 0-4.099-23.006-9.861 11.88c2.95 2.835 4.844 6.761 5.029 11.126zm-2.299-24.302 4.138 23.223 22.893-23.223zm-20.468 8.797v-7.434h-4.559v7.357c.656-.08 1.324-.121 2.001-.121.87 0 1.724.068 2.558.198zm-2.521-47.723s.131.014.18.022c1.206.202 2.125 1.252 2.125 2.515 0 .662-.252 1.265-.667 1.719-.211.231-.302.548-.245.856s.255.572.535.712c1.475.74 2.493 2.215 2.493 3.92 0 .701-.172 1.363-.477 1.951-.127.247-.147.535-.054.797l.683 1.911c.096.268.301.482.565.59 1.657.674 2.832 2.241 2.832 4.074 0 .78-.212 1.513-.585 2.148-.149.255-.178.563-.079.842l.493 1.379c.071.199.203.371.378.49 1.177.802 1.951 2.115 1.951 3.602 0 .444-.068.872-.196 1.276-.066.208-.062.432.011.638l1.152 3.224c.46 1.289.265 2.721-.524 3.839-.788 1.119-2.071 1.784-3.439 1.784h-14.004c-1.369 0-2.651-.665-3.44-1.784-.788-1.118-.983-2.55-.523-3.839 0 0 1.262-3.535 1.262-3.535.081-.227.078-.475-.009-.699-.186-.477-.287-.992-.287-1.531 0-1.557.849-2.922 2.119-3.711.188-.089.39-.256.503-.573l.102-.286c.128-.346.055-.737-.195-1.014-.695-.773-1.119-1.777-1.119-2.877 0-2.135 1.591-3.906 3.687-4.332.209-.029.619-.153.799-.659l.069-.193c.115-.315.065-.671-.14-.943-.543-.723-.865-1.61-.865-2.569 0-1.705 1.017-3.18 2.493-3.92.28-.14.478-.404.535-.712s-.034-.625-.245-.856c-.415-.454-.668-1.057-.668-1.719 0-1.407 1.143-2.55 2.55-2.55zm27.282 13.869v1.566c0 .552.448 1 1 1s1-.448 1-1v-1.566c0-.552-.448-1-1-1s-1 .448-1 1zm36.386 2.565c-.392-.016-.74-.261-.886-.627 0 0-.201-.501-.473-1.181-.23-.575-.717-1.008-1.315-1.169s-1.237-.031-1.724.35c-.173.135-.285.223-.306.239-.342.268-.619.215-.619.215-.552 0-1-.448-1-1 0-.441.387-.79.387-.79s.133-.105.306-.239c.983-.769 2.271-1.031 3.476-.706.877.236 1.636.763 2.163 1.479l.013-.017c.526-.707 1.28-1.228 2.15-1.462 1.205-.325 2.493-.063 3.477.706.172.134.305.239.305.239s.388.349.388.79c0 .552-.449 1-1 1 0 0-.278.053-.62-.215-.021-.016-.133-.104-.305-.239-.488-.381-1.127-.511-1.725-.35-.597.161-1.085.594-1.315 1.169-.272.68-.472 1.181-.472 1.181-.148.369-.5.615-.896.628zm-26.14-5.243-1.107-1.108c-.391-.39-1.024-.39-1.414 0-.391.39-.391 1.024 0 1.414l1.107 1.108c.39.39 1.024.39 1.414 0 .39-.391.39-1.024 0-1.414zm-17.385-1.108-1.108 1.108c-.39.39-.39 1.023 0 1.414.391.39 1.024.39 1.414 0l1.108-1.108c.39-.39.39-1.024 0-1.414s-1.024-.39-1.414 0zm8.139-14.871c-4.496 0-8.146 3.65-8.146 8.146s3.65 8.146 8.146 8.146 8.146-3.65 8.146-8.146-3.65-8.146-8.146-8.146zm0 2c3.392 0 6.146 2.754 6.146 6.146s-2.754 6.146-6.146 6.146-6.146-2.754-6.146-6.146 2.754-6.146 6.146-6.146zm29.645 7.733c-.392-.017-.739-.261-.886-.628 0 0-.201-.501-.473-1.181-.23-.575-.717-1.008-1.315-1.169s-1.236-.031-1.724.35c-.172.135-.285.223-.305.239-.343.268-.62.215-.62.215-.552 0-1-.448-1-1 0-.441.388-.79.388-.79s.133-.104.305-.239c.983-.769 2.271-1.031 3.477-.706.877.237 1.636.763 2.162 1.479l.013-.016c.526-.708 1.28-1.228 2.15-1.463 1.206-.325 2.494-.063 3.477.706.172.135.305.239.305.239s.388.349.388.79c0 .552-.448 1-1 1 0 0-.277.053-.62-.215-.02-.016-.133-.104-.305-.239-.488-.381-1.127-.511-1.724-.35-.598.161-1.085.594-1.315 1.169-.272.68-.473 1.181-.473 1.181-.148.37-.5.615-.896.628zm-17.569-2.587h-1.566c-.552 0-1 .448-1 1s.448 1 1 1h1.566c.552 0 1-.448 1-1s-.448-1-1-1zm-22.587 0h-1.566c-.552 0-1 .448-1 1s.448 1 1 1h1.566c.552 0 1-.448 1-1s-.448-1-1-1zm18.343-8.246-1.107 1.107c-.391.391-.391 1.024 0 1.414.39.391 1.023.391 1.414 0l1.107-1.107c.39-.39.39-1.024 0-1.414s-1.024-.39-1.414 0zm-14.557 1.107-1.108-1.107c-.39-.39-1.023-.39-1.414 0-.39.39-.39 1.024 0 1.414l1.108 1.107c.39.391 1.024.391 1.414 0 .39-.39.39-1.023 0-1.414zm5.725-3.937v1.566c0 .552.448 1 1 1s1-.448 1-1v-1.566c0-.552-.448-1-1-1s-1 .448-1 1z"/></g></g></g></svg>