<svg id="Layer_1" height="512" viewBox="0 0 66 66" width="512" xmlns="http://www.w3.org/2000/svg"><g><g><path d="m64.3 39.3c-.1-.5-.5-.8-1-.8h-9.1c-.6 0-1.1.5-1 1.1.2 2.6-.2 3.1-.2 3.1-2.6 2.6-7.4 4.5-13.2 5.3l.8-4.3.5.1c1.8.5 3.8-.5 4.3-2.4s-.5-3.8-2.4-4.3c-.4-.1-.8-.2-1.1-.3l1.1-6c.1-.5-.3-1.1-.8-1.2s-1.1.3-1.2.8l-1 5.8c-13.5-3.8-13.5-4-15.1-4.1-3.3-.1-6.1 2.5-6.1 5.9l-.2 8c-2.3-.9-4.2-2-5.5-3.4 0 0-.4-.5-.2-3.1.1-.6-.4-1.1-1-1.1h-9.2c-.5 0-.9.3-1 .8-1.2 6.6-.9 10.8.9 12.5 1.7 1.7 4.2 3.2 7.3 4.4-.3 0-.6.1-1 .1-2.9 0-3.3-2-6.9-2-.6 0-1 .4-1 1s.4 1 1 1c2.9 0 3.3 2 6.9 2 2 0 3-.6 3.9-1.1 2-1.2 3.8-1.2 5.9 0 2.6 1.5 5.2 1.6 7.9 0 2-1.2 3.8-1.2 5.9 0 .8.5 1.8 1 3.4 1.1l-.9 4.8c-.7-.1-1.1-.3-1.5-.6-5-2.9-6.2 2.2-10 0-2-1.1-4-1.2-6 0-1.4.8-2.6.8-4 0-.7-.4-1.5-.9-3-.9-.6 0-1 .4-1 1s.4 1 1 1c1 0 1.4.3 2 .6 2 1.2 4 1.2 6 0 1.4-.8 2.6-.8 4 0 2 1.1 4 1.2 6 0 1.4-.8 2.6-.8 4 0 2 1.1 4 1.2 6 0 1.4-.8 2.6-.8 4 0 2 1.2 4 1.2 6 0 1.4-.8 2.6-.8 4 0 .7.4 1.5.9 3 .9.6 0 1-.4 1-1s-.4-1-1-1c-1 0-1.4-.3-2-.6-2-1.2-4-1.2-6 0-1.4.8-2.6.8-4 0-2-1.1-4-1.2-6 0-.1.1-.2.1-.4.2l.8-4.5c1.1-.2 1.8-.6 2.4-1 2-1.2 3.8-1.2 5.9 0 2.6 1.5 5.2 1.6 7.9 0 4.5-2.6 5.6 1.1 9.8 1.1.6 0 1-.4 1-1s-.4-1-1-1c-2.3 0-2.7-1-4.5-1.6 1.5-.9 2.9-1.8 3.9-2.9 1.9-1.7 2.2-5.9 1-12.4zm-26.6 8.9c-2.5.2-4.8.3-7.3.2l.2-7.5 8 2.3zm-17-10.2c0-2.2 1.9-3.9 4.1-3.9 1.4.1 1.7.5 17.7 4.9.8.2 1.3 1.1 1 1.9-.2.8-1.1 1.3-1.9 1l-11.7-3.3c-.6-.2-1.3.3-1.3.9l-.2 8.7c-2.9-.3-5.6-.8-8-1.5zm4.9 17.4c-2 1.2-3.8 1.2-5.9 0-2.6-1.5-5.3-1.4-7.2-.4-3.8-1.3-6.6-2.8-8.5-4.7-1.1-1.1-1.3-4.8-.5-9.9h7.2c-.1 1.8.2 3 .8 3.6 5.6 5.6 17.8 6.8 25.8 6.1l-1.1 6.1c-3 0-5.3-3.8-10.6-.8zm36.4-5.1c-3.1 3.1-6.7 3.8-8.8 5.1-2 1.2-3.9 1.2-5.9 0-2.6-1.5-5.2-1.6-7.9 0-.3.2-.7.4-1 .5l1.1-6c6.6-.8 12.1-2.9 15-5.9.6-.6.9-1.8.8-3.6h7.2c.8 5.1.6 8.8-.5 9.9z"/></g><g><path d="m25.7 18.5c-3.3 0-6 2.7-6 6s2.7 6 6 6 6-2.7 6-6-2.7-6-6-6zm0 10c-2.2 0-4-1.8-4-4s1.8-4 4-4 4 1.8 4 4-1.8 4-4 4z"/></g><g><path d="m62 6.1c0-1.1-.3-2.2-1-3.1-3-3.8-9-1.7-9 3-2.3-.2-4.4 1.7-4.4 4 0 2.2 1.8 4 4 4h9.4c2.6 0 4-2 4-4 0-1.8-1.1-3.5-3-3.9zm-1 5.9h-9.3c-1.1 0-2-.9-2-2 0-1.2 1.1-2 2-2 1.1 0 1.4.9 2.2.3 1.1-.9-.7-2 .6-3.9 1.9-2.7 6.2-.8 5.4 2.4-.1.3 0 .6.2.9.4.5.9.3 1 .4 1.5 0 2 1.3 2 2-.1.8-.6 1.9-2.1 1.9z"/></g><g><path d="m2 3c1.7 0 3 1.3 3 3 0 .6.4 1 1 1s1-.4 1-1c0-1.7 1.3-3 3-3 .6 0 1-.4 1-1s-.4-1-1-1c-1.6 0-3.1.8-4 2-.9-1.2-2.4-2-4-2-.6 0-1 .4-1 1 0 .5.4 1 1 1z"/></g><g><path d="m33.1 12c0 .6.4 1 1 1s1-.4 1-1c0-1.7 1.3-3 3-3 .6 0 1-.4 1-1s-.4-1-1-1c-1.6 0-3.1.8-4 2-.9-1.2-2.4-2-4-2-.6 0-1 .4-1 1s.4 1 1 1c1.7 0 3 1.3 3 3z"/></g></g></svg>