<svg id="Capa_1" enable-background="new 0 0 512 512" height="512" viewBox="0 0 512 512" width="512" xmlns="http://www.w3.org/2000/svg"><g><circle cx="190.154" cy="342.727" r="10"/><path d="m495.574 187.725c-10.317-6.909-23.341-8.206-34.84-3.47-38.662 15.927-79.045 27.317-120.154 33.902-1.887-3.426-4.429-6.494-7.55-9.041-2.825-2.305-5.973-4.061-9.314-5.235l14.04-79.53s4.266-5.605 4.319-5.678c4.827-6.705 6.754-14.89 5.426-23.045-1.328-8.156-5.753-15.305-12.458-20.131-13.775-9.917-33.026-6.84-43.034 6.834l-19.663 24.917c-.712.902-1.716 1.561-2.827 1.853l-36.775 9.695c12.737-10.095 20.932-25.685 20.932-43.162 0-30.363-24.702-55.065-55.065-55.065s-55.065 24.702-55.065 55.065c0 14.91 5.966 28.446 15.624 38.371-26.026 8.05-46.337 29.955-51.513 57.906-.006.035-.013.071-.019.108l-5.281 30.375c-17.305-5.182-34.392-11.242-51.216-18.186-11.422-4.715-24.382-3.424-34.664 3.457-10.318 6.902-16.477 18.43-16.477 30.839v41.063c0 24.892 9.69 48.292 27.287 65.888 17.612 17.6 41.013 27.292 65.893 27.292h51.094c5.534 0 10.02-4.486 10.02-10.02 0-5.533-4.486-10.02-10.02-10.02h-51.094c-19.53 0-37.902-7.61-51.726-21.425-13.81-13.809-21.415-32.176-21.415-51.716v-41.063c0-5.792 2.762-10.962 7.579-14.184 4.783-3.201 10.569-3.78 15.876-1.589 57.001 23.526 116.912 37.359 178.171 41.148l1.495 3.214c5.999 12.896 19.11 21.146 33.197 21.145.887 0 36.112-2.584 36.112-2.584l-11.838 67.053h-44.597c-5.534 0-10.02 4.486-10.02 10.02 0 5.533 4.486 10.02 10.02 10.02h41.059l-3.924 22.226c-17.477 1.071-32.92 12.935-38.025 30.431l-13.385 45.872c-4.172 14.299 5.304 29.508 19.947 32.092l43.54 7.685c14.667 2.591 28.755-8.484 29.728-23.326l3.127-47.682c1.19-18.145-9.21-34.542-25.203-41.559l.093-.526 4.452-25.214h121.377c51.38 0 93.18-41.8 93.18-93.18v-41.063c0-12.383-6.14-23.89-16.426-30.777zm-220.949-59.246c5.286-1.393 10.062-4.523 13.45-8.816 0 0 19.967-25.307 20.053-25.427 3.509-4.875 10.329-5.986 15.205-2.476 2.362 1.7 3.92 4.217 4.387 7.089.461 2.835-.194 5.679-1.845 8.023l-31.25 41.041c-.775 1.018-1.892 1.724-3.145 1.988l-40.323 8.485-1.374-3.109c-2.815-6.371-6.463-12.203-10.768-17.411zm35.943 31.575-6.991 42.63-29.793 1.695c-1.308.059-2.531-.637-3.109-1.819l-11.239-25.438 36.172-7.612c5.959-1.253 11.272-4.612 14.96-9.456zm-111.959-119.445c19.314 0 35.026 15.712 35.026 35.025 0 19.314-15.712 35.026-35.026 35.026s-35.026-15.712-35.026-35.026c0-19.313 15.713-35.025 35.026-35.025zm9.008 146.867c-2.682.926-4.846 2.944-5.955 5.556s-1.059 5.57.137 8.143l10.195 21.916c-30.524-2.512-60.675-7.618-90.243-15.275l5.617-32.307c4.834-25.967 27.502-44.808 53.919-44.808 21.703 0 41.395 12.827 50.166 32.678l6.088 13.778zm90.488 231.258-3.127 47.682c-.205 3.132-3.155 5.445-6.249 4.903l-43.54-7.685c-3.087-.545-5.073-3.729-4.193-6.746l13.385-45.872c2.196-7.525 8.025-13.057 15.1-15.15l-2.67 15.121c-.937 5.307 2.649 10.527 7.931 11.572 5.43 1.074 10.84-2.638 11.803-8.086l2.663-15.082c5.872 4.396 9.408 11.563 8.897 19.343zm-40.56-170.579c-6.817.502-13.333-3.316-16.215-9.514l-16.674-35.843 21.015-7.248 6.728 15.228c.026.059.053.117.08.176 4.049 8.705 12.851 13.986 22.445 13.432 0 0 37.305-2.125 37.452-2.14 2.89-.299 5.729.557 7.985 2.397 2.254 1.84 3.658 4.446 3.951 7.341.602 5.939-3.709 11.264-9.627 11.926zm234.416 11.412c0 40.33-32.811 73.141-73.141 73.141h-117.84l12.109-68.585s3.415-.255 3.505-.264c14.262-1.447 25.298-12.419 27.435-25.958 42.543-6.836 84.33-18.635 124.337-35.116 5.382-2.214 11.235-1.637 16.058 1.592 4.79 3.207 7.537 8.357 7.537 14.128z"/></g></svg>