<svg id="Capa_1" enable-background="new 0 0 512 512" height="512" viewBox="0 0 512 512" width="512" xmlns="http://www.w3.org/2000/svg"><g><path d="m511.899 453.629-25.411-153.343c-1.097-6.618-4.592-12.566-9.84-16.746l-41.904-33.368-26.876-87.796c-.56-1.829-1.796-3.376-3.457-4.325l-30.847-17.626-23.646-30.653-26.435-42.842c-.909-1.474-2.3-2.589-3.937-3.156l-36.531-12.644c-9.598-3.326-20.131-1.042-27.492 5.953l-45.142 42.884-52.704 14.726c-7.006 1.959-13.018 6.747-16.492 13.137l-20.753 38.17c-1.982 3.647-.634 8.209 3.012 10.192 3.646 1.982 8.208.632 10.191-3.012l20.754-38.169c.279-.513.606-.993.954-1.456 14.951 38.952 24.542 46.325 31.314 48.207 15.759 4.378 23.983-10.219 29.987-20.88 2.818-5.003 6.326-11.23 9.073-12.498 3.359-1.55 9.33-.704 14.858 2.108 7.508 3.819 12.807 10.184 14.176 17.027 1.981 9.904 4.226 21.128 9.126 30.134 8.113 14.911 20.263 17.134 29.028 16.372 15.607-1.357 20.632-15.127 23.956-24.24 1.101-3.018 3.151-8.636 4.477-9.262.112-.037.661-.064 1.631.221.087.046 2.158 1.233 4.763 9.847 2.024 6.692 3.627 15.288 5.323 24.388 2.415 12.956 4.913 26.353 9.096 36.863 5.452 13.697 13.352 20.629 23.498 20.628.489 0 .983-.016 1.483-.048 19.152-1.235 26.329-26.014 33.928-52.247 1.404-4.846 2.829-9.755 4.332-14.538l15.662 51.163c.444 1.451 1.317 2.734 2.504 3.679l43.726 34.819c2.334 1.858 3.888 4.503 4.376 7.446l23.962 144.6h-59.43c-4.15 0-7.515 3.364-7.515 7.515s3.365 7.515 7.515 7.515h68.293c2.208 0 4.304-.971 5.731-2.655 1.429-1.685 2.044-3.912 1.683-6.09zm-125.274-237.636c-5.275 18.21-11.839 40.875-20.459 41.431-9.829.628-14.728-25.857-18.334-45.2-4.381-23.498-7.841-42.059-20.457-45.843-7.091-2.128-13.456-.418-17.92 4.815-3.158 3.702-4.964 8.652-6.71 13.437-3.445 9.442-5.667 13.942-11.14 14.419-10.132.887-16.029-4.054-22.114-34.48-2.264-11.318-10.525-21.589-22.1-27.477-9.853-5.011-20.309-5.892-27.97-2.357-7.16 3.305-11.588 11.166-15.87 18.768-5.959 10.58-9.068 14.835-12.838 13.784-.324-.117-7.643-3.183-21.728-40.149l47.241-13.2c1.182-.331 2.264-.945 3.154-1.79l46.497-44.17c3.273-3.111 7.956-4.127 12.224-2.647l34 11.768 25.233 40.896c.137.222.286.437.445.644l24.802 32.152c.606.785 1.361 1.442 2.222 1.935l29.566 16.894 3.753 12.258c-4.61 10.405-8.114 22.431-11.497 34.112z"/><path d="m406.134 447.343h-88.027l-7.053-102.889c-.104-1.518-.666-2.968-1.611-4.159l-20.249-25.506-15.384-38.527c-.83-2.079-2.544-3.68-4.676-4.366l-71.569-23.042c-3.131-1.01-6.551.136-8.445 2.824l-35.951 51.01-18.243 21.395c-.876 1.027-1.459 2.271-1.688 3.602l-7.462 43.378c-.703 4.09 2.042 7.977 6.132 8.68 4.088.709 7.976-2.041 8.68-6.132l7.113-41.345 17.13-20.09c.15-.175.291-.358.424-.547l32.966-46.774 23.079 7.43-21.427 30.402-18.244 21.396c-.876 1.027-1.459 2.271-1.688 3.602l-20.585 119.659h-31.453l7.566-43.981c.703-4.09-2.042-7.977-6.132-8.68-4.09-.707-7.976 2.041-8.68 6.132l-8.005 46.529h-95.899l39.505-189.964c.7-3.364 2.81-6.274 5.79-7.985l41.989-24.112c1.205-.693 2.196-1.705 2.86-2.927l12.304-22.629c1.982-3.647.634-8.209-3.012-10.192-3.648-1.985-8.209-.634-10.191 3.012l-11.288 20.761-40.145 23.053c-6.701 3.847-11.446 10.393-13.02 17.958l-41.388 199.008c-.46 2.214.101 4.518 1.527 6.272 1.427 1.754 3.568 2.773 5.83 2.773h398.619c4.15 0 7.515-3.364 7.515-7.515s-3.364-7.514-7.514-7.514zm-231.529 0 19.797-115.078 17.13-20.09c.15-.175.291-.358.424-.547l24.328-34.519 24.877 8.009 14.481 36.268c.271.678.639 1.314 1.093 1.886l19.482 24.539 6.823 99.532z"/></g></svg>