<svg id="e52c7836-7ddc-4cf9-b65e-05bac7fe6e86" viewBox="0 0 64 64" xmlns="http://www.w3.org/2000/svg" data-name="line"><path d="m40.83105 17.08838c6.66724 2.92195 11.64931-7.46008 5.35246-10.855a5.56852 5.56852 0 0 0 -6.71476 1.71049 1.00017 1.00017 0 0 0 1.543 1.27241c3.05025-3.57128 7.59525-.17561 5.59073 3.97226-1.58968 3.39559-6.35334 3.14259-6.64544-.68573a1.00006 1.00006 0 0 0 -1.99415.15442 5.31631 5.31631 0 0 0 2.86816 4.43115z"/><path d="m30.36523 44.90381 2.79651-5.474 3.11463 4.51794c.2566.31906.18305 1.64557.24516 2.03029a.99982.99982 0 0 0 1.996-.11627l-.08984-1.54585a2.91819 2.91819 0 0 0 -.50488-1.50391l-7.1689-10.39746a1.73106 1.73106 0 0 1 -.083-1.83447l3.60058-6.39844a1.81784 1.81784 0 0 0 -1.07522-2.63279c-.81112-.18686-2.003-.78549-2.77337-.1884l-6.24027 3.87588a1.009 1.009 0 0 1 -1.13472-1.66262l5.19526-3.97654a6.19406 6.19406 0 0 1 4.86036-1.15479l4.16113.79a8.3192 8.3192 0 0 1 4.63086 2.61572l3.74609 4.1753a3.83543 3.83543 0 0 0 3.40723 1.25683l3.69824-.51855a.74291.74291 0 0 1 .35443 1.4341l-5.88959 1.90232a1.83077 1.83077 0 0 1 -1.75683-.34082l-3.03516-2.49609a1.82474 1.82474 0 0 0 -2.82714.669l-2.39161 5.48532a2.118 2.118 0 0 0 .22363 2.0625l4.74708 6.69677a.95441.95441 0 0 1 .1621.62891l-.64062 7.37451c-.1694 1.08544.77 2.15045 1.32331 2.982h-4.46394l.251-1.813a12.24237 12.24237 0 0 0 -.04589-1.48629.99988.99988 0 0 0 -1.9961.11816l.05859.9609c0 .06445.002.12891-.001.1626l-.31834 2.28806a1.55282 1.55282 0 0 0 1.52931 1.76951h5.83983a1.55757 1.55757 0 0 0 1.28608-2.4141l-1.374-2.0112a.605.605 0 0 1 -.09571-.38867l.63965-7.36914a2.95335 2.95335 0 0 0 -.52051-1.95508l-4.7539-6.70654a.11852.11852 0 0 1 -.01465-.10547l2.292-5.25683 2.84766 2.34228a3.8164 3.8164 0 0 0 3.65039.70557l3.84509-1.24451-5.44861 23.1791a1.00033 1.00033 0 0 0 1.94727.458l5.73-24.37635a2.73381 2.73381 0 0 0 -1.4195-5.23736l-3.708.51953a1.84534 1.84534 0 0 1 -1.63965-.60743l-3.749-4.17822a10.3249 10.3249 0 0 0 -5.74805-3.24609l-4.16404-.79063a8.19727 8.19727 0 0 0 -6.44043 1.52881l-5.16767 3.95526-15.64679-12.17445a1.0001 1.0001 0 0 0 -1.22845 1.57817l15.76752 12.26845a2.95375 2.95375 0 0 0 .71 2.79694 3.04852 3.04852 0 0 0 3.78027.49951l6.14746-3.81836 1.01856.29346-3.48536 6.19628a3.71911 3.71911 0 0 0 .17872 3.94629l2.76513 4.011-3.2876 6.4353a1.48687 1.48687 0 0 1 -1.38281.8125l-7.165-.25732c-1.2792-.09462-1.88334 1.31979-2.498 2.17973l-2.06155-4.15874 8.5625-1.14453a3.48205 3.48205 0 0 0 2.5-1.61328l1.89258-3.03222a1.00027 1.00027 0 0 0 -1.69728-1.05856l-1.89266 3.03218a1.48785 1.48785 0 0 1 -1.06836.68945l-8.8252 1.17969a1.82326 1.82326 0 0 0 -1.38081 2.59865l2.3232 4.68748a1.82012 1.82012 0 0 0 3.12305.20844l1.05566-1.56586 7.05957.25391a3.49751 3.49751 0 0 0 3.23632-1.90137z"/><path d="m20.67285 55.00488h-1.33985a2.52043 2.52043 0 0 1 -2.27052-1.43847l-8.73826-18.47559a1.00047 1.00047 0 0 0 -1.80857.85551l8.73826 18.47506a4.53042 4.53042 0 0 0 4.0791 2.58349h1.33984a1.0001 1.0001 0 0 0 0-2z"/><path d="m58.98145 53.9165a.99866.99866 0 0 0 -1.39551.22608l-.792 1.09668a2.51834 2.51834 0 0 1 -2.03711 1.043h-24.04394a1.00011 1.00011 0 0 0 0 2h24.0439a4.52084 4.52084 0 0 0 3.65921-1.87357l.791-1.09619a.9995.9995 0 0 0 -.22555-1.396z"/></svg>