<svg id="Layer_1" height="512" viewBox="0 0 1000 1000" width="512" xmlns="http://www.w3.org/2000/svg" data-name="Layer 1"><path d="m281 914.65a61.38 61.38 0 0 1 -60-71.59 95.08 95.08 0 0 1 2.23-10 60.51 60.51 0 0 1 9.77-19.83l102-136.23a41.77 41.77 0 0 0 8.11-20.71l1.4-113.86a16 16 0 0 1 16-15.81h.2a16 16 0 0 1 15.8 16.19l-1.4 114.55c0 .41 0 .83-.06 1.25a73.87 73.87 0 0 1 -14.42 37.55l-102.01 136.23a28.73 28.73 0 0 0 -4.66 9.34 67.28 67.28 0 0 0 -1.47 6.6 29.12 29.12 0 0 0 10.51 27.77 28.56 28.56 0 0 0 28.75 4.47l.54-.23.39-.15a28.67 28.67 0 0 0 11.92-9.33l121.85-162.42 12.91-58.09a16 16 0 1 1 31.24 6.94l-13.66 61.46a15.88 15.88 0 0 1 -2.82 6.13l-124 165.2a60.81 60.81 0 0 1 -25.36 19.71l-.31.13-1.06.43a61.31 61.31 0 0 1 -22.39 4.3z"/><path d="m370.56 546.55a16 16 0 0 1 -15-21.45l78.89-217.82a80.9 80.9 0 0 1 55.94-51.23c20.11-5.11 40-2.15 59.07 8.82a98.81 98.81 0 0 1 32.81 31.13l67.3 101.47a13.3 13.3 0 0 0 11.12 6h77.92c17.45 0 33.88 8.95 42.88 23.36 9.8 15.7 8.44 33.48-3.72 48.79a50.44 50.44 0 0 1 -39.76 19h-128.09c-26.78 0-51.68-12.82-66.6-34.29-.93-1.33-1.86-2.76-2.75-4.24q-4.79-7.94-9.52-15.86-5.2-8.7-10.45-17.4c-6.26-10.39-11.13-18.31-15.79-25.68l-10.59-16.78a16 16 0 1 1 27-17.08l10.65 16.71c4.77 7.56 9.75 15.65 16.13 26.22 3.52 5.82 7 11.67 10.51 17.5q4.71 7.89 9.45 15.77c.53.87 1.08 1.71 1.62 2.49a48.89 48.89 0 0 0 40.34 20.57h128.08a18.87 18.87 0 0 0 14.71-6.93c4.7-5.91 3.51-8.91 1.62-11.94a18.49 18.49 0 0 0 -15.73-8.3h-77.91a45.24 45.24 0 0 1 -37.8-20.28l-67.29-101.43a66.74 66.74 0 0 0 -22.12-21.06c-11.78-6.77-23.32-8.58-35.25-5.55a49 49 0 0 0 -33.74 31.12l-78.89 217.82a16 16 0 0 1 -15.04 10.55z"/><path d="m571.06 911.17a56.48 56.48 0 0 1 -18.35-3.1c-29.81-10.24-46.64-29.05-46.16-51.59l.6-27.17v-74a41.83 41.83 0 0 0 -10-27.1l-148.89-175.27a16 16 0 1 1 24.39-20.73l148.93 175.27a73.92 73.92 0 0 1 17.57 47.82v74.54l-.61 27.33c-.24 11.23 18.75 18.64 24.57 20.64a22.44 22.44 0 0 0 16.1-.26c13.48-5.74 15.37-23.5 15.55-25.67v-156.88a41.72 41.72 0 0 0 -11-28.27l-74.76-81.63a90.58 90.58 0 0 1 -19-90.53l29.26-85.63a16 16 0 0 1 30.28 10.35l-29.26 85.63a58.56 58.56 0 0 0 12.26 58.56l74.77 81.59a73.63 73.63 0 0 1 19.45 49.93v157.38.71c-.65 14.76-8.76 42.73-35 53.9a52.5 52.5 0 0 1 -20.7 4.18z"/><path d="m347.47 564.32a32.47 32.47 0 0 1 -10.64-1.79c-3.45-1.2-6.88-2.42-10.32-3.64-7.13-2.54-14.5-5.15-21.71-7.5l-45.69-14.85a70.07 70.07 0 0 0 -7.84-2.11c-17.73-3.66-29.69-10.87-35.52-21.42a30.42 30.42 0 0 1 -1.75-25.39l.12-.32c.51-1.36 1-2.64 1.38-3.84l77.28-234.65c2.15-6.54 3.88-13.26 5.71-20.38l.5-1.92a36 36 0 0 1 12.92-19.46 41.19 41.19 0 0 1 35.74-7.1l76.19 20.13c20 4.17 34.39 13.65 42.79 28.19 13.38 23.16 5.31 49.21 4.34 52.1l-30.36-10.12v.11c1.33-4.21 3.62-17.11-1.73-26.21-3.71-6.3-11.07-10.61-21.87-12.81-.3-.06-.6-.13-.89-.21l-76.61-20.24a9 9 0 0 0 -7.87 1.38 3.91 3.91 0 0 0 -1.64 2.23l-.49 1.91c-1.88 7.31-3.82 14.86-6.31 22.4l-77.34 234.66c-.52 1.6-1.07 3.08-1.6 4.52 1.2 1 4.73 3.29 13.48 5.1a105.16 105.16 0 0 1 11.26 3l45.69 14.91c7.63 2.48 15.21 5.17 22.54 7.77q5.06 1.8 10.13 3.58c.68 0 4.45-1.8 9.57-10.14a16 16 0 0 1 14.24-7.61c1 0 100 2.66 134.86-66.31a16 16 0 1 1 28.57 14.42c-18.47 36.56-53 62.67-100 75.49a245.45 245.45 0 0 1 -55.6 8.3c-11.23 14.3-22.83 17.82-31.53 17.82z"/><path d="m582.84 250.7a83.35 83.35 0 1 1 83.39-83.35 83.46 83.46 0 0 1 -83.39 83.35zm0-134.7a51.35 51.35 0 1 0 51.39 51.35 51.42 51.42 0 0 0 -51.39-51.35z"/><path d="m737.83 916a16 16 0 0 1 -16-16v-421.41a16 16 0 0 1 32 0v421.41a16 16 0 0 1 -16 16z"/><path d="m737.83 435.42a16 16 0 0 1 -16-16v-87.55a16 16 0 0 1 32 0v87.55a16 16 0 0 1 -16 16z"/><path d="m439.38 356.55a16.15 16.15 0 0 1 -4.42-.62l-146.18-41.93a16 16 0 1 1 8.82-30.76l146.18 41.93a16 16 0 0 1 -4.4 31.38z"/></svg>