<svg id="Capa_1" enable-background="new 0 0 512 512" height="512" viewBox="0 0 512 512" width="512" xmlns="http://www.w3.org/2000/svg"><g><circle cx="407.402" cy="267.673" r="10"/><path d="m497.751 272.998c-5.522-9.609-15.12-15.344-25.675-15.344h-19.408c-5.534 0-10.02 4.486-10.02 10.02s4.486 10.02 10.02 10.02h19.408c4.577 0 7.165 3.315 8.301 5.291 1.999 3.478 3.04 9.075-.031 14.346-8.415 14.426-19.206 26.997-31.743 37.098-16.934 13.549-37.347 20.856-58.698 20.863l-62.628.02 1.831-37.588c8.891-6.151 14.27-16.826 13.105-28.321-.43-4.242-1.713-8.195-3.657-11.709h23.581c5.534 0 10.02-4.486 10.02-10.02s-4.486-10.02-10.02-10.02h-30.153l6.819-141.822 31.513-46.792c8.673-12.877 9.733-29.003 2.835-43.136-7.306-14.965-21.715-24.604-38.547-25.784-16.655-1.17-31.886 6.257-40.756 19.858-8.64 13.249-9.329 29.643-1.84 43.854l26.787 50.837-.798 16.597c-.936-.086-1.877-.143-2.827-.143-9.76 0-18.991 4.689-24.743 12.556l-19.382 24.565c-.694.876-1.666 1.515-2.73 1.795l-35.659 9.401c12.31-9.994 20.195-25.235 20.195-42.29 0-30.031-24.432-54.463-54.462-54.463s-54.462 24.431-54.462 54.463c0 14.667 5.838 27.989 15.3 37.791-25.625 8.008-45.605 29.619-50.707 57.171l-4.73 25.541h-63.875c-10.554 0-20.148 5.733-25.666 15.335-6.12 10.651-6.08 23.858.107 34.472 10.246 17.562 23.334 32.529 38.899 44.488 19.985 15.354 43.817 23.469 68.929 23.468h.036l184.016-.06-1.057 21.689-31.332 46.23c-8.649 12.76-9.736 28.759-2.91 42.795 7.176 14.754 21.976 24.644 38.625 25.809 1.149.08 2.29.12 3.423.12 15.361 0 29.169-7.317 37.412-19.998 8.558-13.165 9.203-29.435 1.727-43.523l-26.917-50.719 1.092-22.409 63.612-.021c25.947-.009 50.731-8.87 71.234-25.273 14.429-11.626 26.86-26.086 36.512-42.634 6.173-10.593 6.209-23.784.094-34.424zm-164.153 208.082c-4.825 7.423-13.289 11.467-22.635 10.809-9.665-.676-17.891-6.128-22.003-14.583-3.708-7.625-3.17-15.931 1.477-22.789l23.672-34.927 20.316 38.282c4.073 7.675 3.771 16.134-.827 23.208zm-109.327-218.39 20.477-7.061 6.588 14.91c.026.059.053.117.08.175 4.019 8.642 12.758 13.896 22.275 13.331l36.515-2.078c.147-.008.294-.02.44-.034 5.825-.608 11.04 3.667 11.63 9.49.587 5.785-3.612 10.972-9.377 11.617l-56.372 4.189c-6.663.504-13.046-3.245-15.867-9.309zm87.448-.846c-.944 0-39.168 2.196-39.168 2.196-1.248.068-2.392-.602-2.938-1.719l-11.021-24.941 35.523-7.474c5.904-1.24 11.173-4.569 14.838-9.379l5.073-6.66zm-1.086-230.92c4.502-6.902 12.114-10.883 20.632-10.883.641 0 1.288.023 1.938.068 9.608.673 17.809 6.125 21.937 14.583 3.777 7.741 3.25 16.179-1.447 23.153l-23.67 35.145-20.288-38.501c-4.108-7.799-3.782-16.388.898-23.565zm-37.201 158.492c5.225-1.383 9.956-4.48 13.333-8.742 0 0 19.702-24.977 19.789-25.099 1.987-2.763 5.208-4.413 8.617-4.413.63 0 1.251.062 1.862.172l-1.309 27.232-22.709 29.816c-.749.981-1.82 1.661-3.021 1.913l-39.68 8.348-1.312-2.968c-2.753-6.231-6.313-11.941-10.509-17.048zm-75.043-86.689c18.981 0 34.423 15.442 34.423 34.423s-15.442 34.423-34.423 34.423-34.423-15.442-34.423-34.423 15.442-34.423 34.423-34.423zm-70.165 133.036c4.737-25.582 27.059-44.149 53.075-44.149 21.36 0 40.74 12.624 49.372 32.161l5.948 13.461-29.386 10.133c-2.682.926-4.847 2.944-5.956 5.556-.641 1.508-.882 3.131-.752 4.73h-76.355zm-6.009 119.615c-.01 0-.02 0-.029 0-20.656 0-40.27-6.68-56.721-19.319-13.497-10.37-24.869-23.388-33.797-38.692-3.087-5.296-2.046-10.908-.043-14.394 1.133-1.972 3.717-5.28 8.291-5.28h169.234l13.341 28.679c5.941 12.771 18.926 20.939 32.875 20.939.879 0 53.402-3.869 53.402-3.869l-1.553 31.876z"/></g></svg>