<svg id="Layer_1" enable-background="new 0 0 512.001 512.001" height="512" viewBox="0 0 512.001 512.001" width="512" xmlns="http://www.w3.org/2000/svg"><g id="XMLID_1908_"><g id="XMLID_1515_"><path id="XMLID_1516_" d="m496.112 462.451c-17.498 12.749-41.011 12.748-58.509 0-24.542-17.879-57.52-17.876-82.062 0-15.292 11.142-35.949 12.59-52.627 3.688-4.872-2.598-10.93-.758-13.53 4.114s-.758 10.93 4.114 13.53c23.396 12.487 52.372 10.457 73.819-5.167 17.498-12.748 41.011-12.748 58.509 0 12.271 8.939 26.651 13.408 41.031 13.408s28.76-4.469 41.031-13.408c4.464-3.252 5.446-9.507 2.194-13.971-3.25-4.463-9.507-5.446-13.97-2.194z"/><path id="XMLID_1519_" d="m209.173 466.093c-16.696 8.953-37.388 7.524-52.713-3.642-24.542-17.879-57.52-17.878-82.062 0-17.498 12.748-41.011 12.748-58.509 0-4.464-3.25-10.72-2.271-13.971 2.195-3.252 4.464-2.27 10.719 2.194 13.971 12.271 8.939 26.651 13.408 41.031 13.408s28.76-4.469 41.031-13.408c17.499-12.748 41.012-12.747 58.509 0 21.495 15.658 50.518 17.659 73.941 5.103 4.867-2.61 6.697-8.672 4.087-13.539-2.609-4.867-8.67-6.696-13.538-4.088z"/><path id="XMLID_1538_" d="m496.112 392.229c-17.498 12.749-41.011 12.748-58.509 0-23.666-17.239-55.174-17.848-79.4-1.839 9.992-17.079 15.423-36.67 15.423-56.924 0-5.04-3.751-9.293-8.752-9.922l-42.873-5.391v-80.642h35.021c23.063 0 43.986-12.719 54.605-33.191l24.731-47.685c3.796-7.32 4.499-15.676 1.979-23.526-.33-1.029-.713-2.03-1.141-3.006 1.891-.072 3.755-.673 5.356-1.794l65.184-45.642c2.172-1.521 3.652-3.843 4.112-6.455.46-2.611-.135-5.3-1.657-7.472l-31.158-44.498c-1.521-2.173-3.843-3.652-6.455-4.112-2.613-.466-5.3.135-7.472 1.656l-65.183 45.642c-2.878 2.015-4.487 5.393-4.239 8.897l1.837 25.949-107.449 75.237h-.062c4.411-6.538 6.99-14.41 6.99-22.873v-26.954c0-22.607-18.393-41-41-41s-41 18.393-41 41v26.954c0 8.463 2.578 16.335 6.99 22.873h-55.47c-23.063 0-43.987 12.719-54.605 33.191l-24.731 47.685c-3.796 7.319-4.499 15.674-1.979 23.524 2.52 7.852 7.954 14.237 15.301 17.981 3.321 1.692 6.802 2.722 10.296 3.146l-7.787 5.452-23.755-10.601c-3.208-1.433-6.933-1.075-9.812.94l-65.183 45.643c-2.172 1.521-3.652 3.843-4.112 6.455-.46 2.611.135 5.3 1.657 7.472l28.861 41.217c-5.195-1.59-10.196-4.046-14.781-7.387-4.464-3.251-10.72-2.271-13.971 2.195-3.252 4.464-2.27 10.719 2.194 13.971 24.543 17.878 57.521 17.878 82.062 0 17.499-12.747 41.012-12.747 58.509 0 24.542 17.878 57.521 17.878 82.063 0 17.498-12.748 41.011-12.748 58.509 0 24.542 17.878 57.52 17.878 82.062 0 17.498-12.748 41.011-12.748 58.509 0 12.271 8.938 26.651 13.408 41.031 13.408s28.76-4.47 41.031-13.408c4.464-3.252 5.446-9.507 2.194-13.971-3.252-4.466-9.508-5.447-13.971-2.195zm-102.239-197.119c-7.167 13.817-21.287 22.4-36.852 22.4h-45.021c-5.523 0-10 4.478-10 10v88.127l-44.752-5.627c-.828-.104-1.667-.104-2.495 0l-44.753 5.628v-57.644l86.379-60.483h48.63c12.854 0 24.755-6.96 31.058-18.163l8.625-15.331 19.715 10.782zm19.745-38.069-19.118-10.456 5.257-9.344c2.827-5.024 9.063-6.912 14.201-4.292 2.563 1.306 4.458 3.532 5.337 6.271.879 2.738.634 5.653-.69 8.206zm54.769-113.136 19.686 28.114-52.353 36.657-18.273-8.154-1.413-19.96zm-95.247 99.857-14.504 25.779c-2.766 4.916-7.987 7.97-13.627 7.97h-20.067zm-138.139 2.922h42v7.954c0 11.579-9.42 21-21 21s-21-9.421-21-21zm21-40c11.242 0 20.422 8.887 20.949 20h-41.899c.527-11.114 9.708-20 20.95-20zm-126.332 113.227c7.166-13.817 21.287-22.4 36.852-22.4h89.479 5.51l-51.51 36.067v-6.068c0-5.522-4.477-10-10-10h-21.467c-12.854 0-24.755 6.959-31.058 18.162l-9.993 17.762-19.631-10.737zm-25.421 55.889c-.879-2.738-.633-5.652.69-8.205l3.702-7.138 19.034 10.41-3.889 6.913c-2.827 5.025-9.063 6.913-14.2 4.293-2.562-1.306-4.458-3.534-5.337-6.273zm60.658-30.32c2.766-4.915 7.987-7.969 13.627-7.969h11.467v10.072l-43.359 30.36zm-88.626 72.981 18.273 8.154 1.413 19.96-52.353 36.658-19.686-28.114zm-1.882 73.768c-6.552 4.773-13.948 7.759-21.555 8.958l59.234-41.476c2.878-2.016 4.487-5.393 4.239-8.897l-1.836-25.935 75.52-52.88v46.154l-42.872 5.391c-5.001.629-8.752 4.882-8.752 9.922 0 20.249 5.432 39.844 15.425 56.926-24.226-16.011-55.735-15.403-79.403 1.837zm140.571 0c-8.002 5.83-17.263 8.985-26.631 9.483-16.912-15.572-27.397-36.744-29.549-59.477l87.211-10.965v48.287c-10.949 1.593-21.612 5.811-31.031 12.672zm51.032-12.673v-48.287l87.211 10.965c-2.152 22.737-12.634 43.904-29.547 59.477-9.369-.497-18.63-3.652-26.633-9.483-9.419-6.86-20.081-11.078-31.031-12.672z"/><path id="XMLID_1622_" d="m256.061 449.157c-2.63 0-5.21 1.061-7.07 2.93-1.86 1.86-2.93 4.431-2.93 7.07 0 2.63 1.07 5.21 2.93 7.07 1.86 1.859 4.44 2.93 7.07 2.93s5.21-1.07 7.07-2.93c1.87-1.87 2.93-4.44 2.93-7.07 0-2.64-1.06-5.21-2.93-7.07-1.86-1.869-4.431-2.93-7.07-2.93z"/></g></g></svg>