<svg id="Layer_2" height="512" viewBox="0 0 64 64" width="512" xmlns="http://www.w3.org/2000/svg" data-name="Layer 2"><path d="m49 17c-6.62 0-12 5.38-12 12 0 9.22 10.74 23.97 11.19 24.59.19.26.49.41.81.41s.62-.15.81-.41c.46-.62 11.19-15.37 11.19-24.59 0-6.62-5.38-12-12-12zm0 34.26c-2.51-3.64-10-15.09-10-22.26 0-5.51 4.49-10 10-10s10 4.49 10 10c0 7.17-7.49 18.63-10 22.26z"/><path d="m49 25c-2.21 0-4 1.79-4 4s1.79 4 4 4 4-1.79 4-4-1.79-4-4-4zm0 6c-1.1 0-2-.9-2-2s.9-2 2-2 2 .9 2 2-.9 2-2 2z"/><path d="m10 21c.32 0 .62-.15.81-.41.21-.29 5.19-7.13 5.19-11.5 0-3.31-2.69-6-6-6s-6 2.69-6 6c0 4.37 4.98 11.21 5.19 11.5.19.26.49.41.81.41zm0-15.91c2.21 0 4 1.79 4 4 0 2.58-2.42 6.78-4 9.16-1.58-2.37-4-6.58-4-9.16 0-2.21 1.79-4 4-4z"/><path d="m10.77 31.82c-2.41-.15-3.53-.34-4.05-.48.03-.3-.07-.6-.31-.83-.4-.38-1.03-.37-1.41.04-.32.34-.48.71-.48 1.1 0 1.53 1.89 1.91 6.13 2.17h.06c.52 0 .96-.41 1-.94.03-.55-.39-1.03-.94-1.06z"/><path d="m16.92 26.74-.85.18c-1.7.36-3.46.73-5.06 1.13-.54.13-.86.68-.73 1.21.11.45.52.76.97.76.08 0 .16 0 .25-.03 1.56-.39 3.3-.76 4.98-1.12l.85-.18c.54-.11.89-.65.77-1.19-.11-.54-.65-.89-1.19-.77z"/><path d="m10 23.08c.04.52.48.92 1 .92h.08s2.85-.23 5.92-.25c.55 0 1-.45 1-1s-.45-1-1-1c-3.16.01-5.96.24-6.08.25-.55.05-.96.53-.91 1.08z"/><path d="m44.84 52c-1.71 0-3.84-.03-5.99-.08-.53 0-1.01.42-1.02.98s.42 1.01.98 1.02c2.16.05 4.31.08 6.04.09.55 0 1-.45 1-1s-.45-1-1-1z"/><path d="m22.01 26.59c.14.42.53.68.95.68.1 0 .21-.02.32-.05 1.51-.5 3.06-1.2 3.06-2.57 0-.49-.21-.94-.63-1.36-.5-.5-1.31-.85-2.53-1.11-.54-.11-1.07.24-1.18.78s.24 1.07.78 1.18c.87.18 1.26.38 1.43.49-.21.15-.65.39-1.56.69-.52.17-.81.74-.63 1.27z"/><path d="m16.76 32.09c-.54-.02-1.02.4-1.04.96s.4 1.02.96 1.04c1.82.08 3.95.18 5.97.33h.08c.52 0 .96-.4 1-.92.04-.55-.37-1.03-.92-1.07-2.05-.16-4.2-.26-6.03-.33z"/><path d="m20.92 50.93c-2.19-.21-4.18-.44-5.92-.7-.55-.08-1.05.3-1.13.84-.08.55.3 1.05.84 1.13 1.78.26 3.8.5 6.02.71h.1c.51 0 .95-.39.99-.91.05-.55-.35-1.04-.9-1.09z"/><path d="m32.86 51.71c-1.94-.08-3.96-.19-5.98-.32-.55-.03-1.03.38-1.06.93-.04.55.38 1.03.93 1.06 2.04.13 4.07.24 6.02.32h.04c.53 0 .98-.42 1-.96.02-.55-.4-1.02-.96-1.04z"/><path d="m29.08 38.75c-.15-.53-.71-.84-1.24-.68-1.75.5-3.81 1.03-5.78 1.52-.54.13-.86.68-.73 1.21.11.45.52.76.97.76.08 0 .16 0 .24-.03 1.98-.5 4.07-1.02 5.85-1.54.53-.15.84-.71.68-1.24z"/><path d="m17.44 41.79c-.14-.53-.69-.85-1.22-.71-2.43.64-4.29 1.19-5.83 1.72-.52.18-.8.75-.62 1.27.14.41.53.68.95.68.11 0 .22-.02.33-.05 1.5-.52 3.31-1.05 5.7-1.68.53-.14.85-.69.71-1.22z"/><path d="m9.23 49.08c-3.03-.87-3.17-1.59-3.17-1.59 0-.01 0-.11.17-.32.35-.43.28-1.06-.15-1.41s-1.06-.28-1.41.15c-.41.51-.62 1.04-.62 1.58 0 1.97 2.64 2.95 4.62 3.52.09.03.18.04.27.04.44 0 .84-.29.96-.73.15-.53-.16-1.08-.69-1.24z"/><path d="m32.35 34.06c-.95-.36-2.09-.65-3.49-.91-.54-.1-1.06.26-1.16.8s.26 1.06.8 1.16c1.26.23 2.32.51 3.15.82.51.19.78.34.92.44-.1.41.06.86.44 1.1.16.1.35.15.52.15.33 0 .66-.17.85-.47.17-.28.26-.57.26-.87 0-1.35-1.67-1.98-2.29-2.21z"/></svg>