<svg id="Capa_1" enable-background="new 0 0 512 512" viewBox="0 0 512 512" xmlns="http://www.w3.org/2000/svg"><g><g><path d="m176.561 217.797c.879.334 1.781.493 2.669.493 3.021 0 5.87-1.84 7.01-4.833l4.215-11.065h28.704l4.168 11.044c1.462 3.876 5.79 5.832 9.665 4.369 3.875-1.462 5.831-5.79 4.368-9.665l-24.088-63.829c-.025-.069-.053-.137-.08-.205-1.389-3.376-4.644-5.556-8.293-5.556h-.011c-3.654.004-6.909 2.192-8.291 5.575-.022.055-.044.111-.065.167l-24.31 63.826c-1.475 3.872.468 8.205 4.339 9.679zm28.311-53.26 8.625 22.855h-17.331z"/><path d="m303.035 218.289c4.142-.013 7.489-3.381 7.477-7.523-.013-4.134-3.368-7.477-7.499-7.477h-.024c-5.239.017-10.863.025-15.146.017v-57.254c0-4.142-3.357-7.5-7.5-7.5s-7.5 3.358-7.5 7.5v64.683c0 3.654 2.633 6.776 6.234 7.393.606.104 1.081.186 11.614.186 3.134-.002 7.161-.009 12.344-.025z"/><path d="m262.843 210.789v-64.738c0-4.142-3.357-7.5-7.5-7.5s-7.5 3.358-7.5 7.5v64.738c0 4.142 3.357 7.5 7.5 7.5s7.5-3.358 7.5-7.5z"/><path d="m76.282 218.289c4.143 0 7.5-3.358 7.5-7.5v-57.238h10.448c4.143 0 7.5-3.358 7.5-7.5s-3.357-7.5-7.5-7.5h-35.751c-4.143 0-7.5 3.358-7.5 7.5s3.357 7.5 7.5 7.5h10.304v57.238c-.001 4.142 3.357 7.5 7.499 7.5z"/><path d="m161.73 162.875c0-13.413-11.339-24.324-25.276-24.324h-17.203c-1.994 0-3.905.794-5.312 2.206-1.407 1.413-2.194 3.327-2.188 5.321l-.021 64.711c0 4.142 3.357 7.5 7.5 7.5s7.5-3.358 7.5-7.5l.047-19.894 21.823 24.849c1.482 1.685 3.553 2.545 5.633 2.545 1.76 0 3.527-.616 4.952-1.87 3.109-2.736 3.411-7.476.675-10.585l-17.079-19.406c10.886-2.71 18.949-12.242 18.949-23.553zm-25.276 9.325c-2.233 0-6.177.016-9.677.033v-18.682h9.677c5.57 0 10.276 4.27 10.276 9.324 0 5.055-4.706 9.325-10.276 9.325z"/><path d="m151 109.169c4.143 0 7.5-3.358 7.5-7.5s-3.357-7.5-7.5-7.5h-47c-4.143 0-7.5 3.358-7.5 7.5s3.357 7.5 7.5 7.5z"/><path d="m178 266.89h94c4.143 0 7.5-3.358 7.5-7.5s-3.357-7.5-7.5-7.5h-94c-4.143 0-7.5 3.358-7.5 7.5s3.357 7.5 7.5 7.5z"/><path d="m352 94.169h-71c-4.143 0-7.5 3.358-7.5 7.5s3.357 7.5 7.5 7.5h71c4.143 0 7.5-3.358 7.5-7.5s-3.357-7.5-7.5-7.5z"/><path d="m433.482 335.5c4.143 0 7.5-3.358 7.5-7.5v-4c0-4.142-3.357-7.5-7.5-7.5s-7.5 3.358-7.5 7.5v4c0 4.142 3.358 7.5 7.5 7.5z"/><path d="m86.018 328v-4c0-4.142-3.357-7.5-7.5-7.5s-7.5 3.358-7.5 7.5v4c0 4.142 3.357 7.5 7.5 7.5s7.5-3.358 7.5-7.5z"/><path d="m404.913 227.821c1.572.662 3.223.984 4.857.984 3.2 0 6.343-1.233 8.729-3.565l38.759-37.881c2.427-2.372 3.763-5.546 3.763-8.939s-1.336-6.568-3.763-8.939l-38.758-37.882c-3.605-3.524-8.939-4.537-13.587-2.582-4.647 1.957-7.65 6.479-7.65 11.521v9.167h-56.484c-6.893 0-12.5 5.607-12.5 12.5v32.427c0 6.893 5.607 12.5 12.5 12.5h56.484v9.167c0 5.044 3.003 9.566 7.65 11.522zm-61.635-35.688v-27.427h56.484c6.893 0 12.5-5.607 12.5-12.5v-5.729l32.683 31.942-32.683 31.942v-5.729c0-6.893-5.607-12.5-12.5-12.5h-56.484z"/><path d="m484.5 301.078c15.164 0 27.5-12.336 27.5-27.5v-190.317c0-15.164-12.336-27.5-27.5-27.5h-12v-30.988c0-9.649-7.851-17.5-17.5-17.5h-43.034c-9.649 0-17.5 7.851-17.5 17.5v30.988h-62.466c-4.143 0-7.5 3.358-7.5 7.5s3.357 7.5 7.5 7.5h152.5c6.893 0 12.5 5.607 12.5 12.5v10.908h-110c-4.143 0-7.5 3.358-7.5 7.5s3.357 7.5 7.5 7.5h110v142.721h-135c-4.143 0-7.5 3.358-7.5 7.5s3.357 7.5 7.5 7.5h135v6.688c0 6.893-5.607 12.5-12.5 12.5h-140.379c-.658 0-1.303-.267-1.768-.732l-14.845-14.846c-6.823-6.822-17.926-6.824-24.749 0l-14.844 14.844c-.473.473-1.101.733-1.769.733h-258.646c-6.893 0-12.5-5.607-12.5-12.5v-6.688h134c4.143 0 7.5-3.358 7.5-7.5s-3.357-7.5-7.5-7.5h-134v-6.382c0-.667.26-1.295.732-1.768l9.5-9.5c6.823-6.823 6.823-17.925 0-24.749l-9.5-9.5c-.472-.47-.732-1.098-.732-1.766v-89.055h50c4.143 0 7.5-3.358 7.5-7.5s-3.357-7.5-7.5-7.5h-50v-10.908c0-6.893 5.607-12.5 12.5-12.5h139.219c.657 0 1.302.267 1.767.732l13.006 13.007c6.824 6.821 17.925 6.821 24.749-.001l13.005-13.005c.473-.473 1.101-.733 1.769-.733h75.985c4.143 0 7.5-3.358 7.5-7.5s-3.357-7.5-7.5-7.5h-75.985c-4.674 0-9.068 1.82-12.375 5.126l-13.006 13.006c-.975.975-2.561.975-3.535 0l-13.006-13.005c-3.305-3.306-7.699-5.126-12.374-5.126h-49.185v-30.989c0-9.649-7.851-17.5-17.5-17.5h-43.034c-9.649 0-17.5 7.851-17.5 17.5v30.988h-12c-15.164 0-27.5 12.336-27.5 27.5v114.963c0 4.674 1.82 9.068 5.125 12.375l9.5 9.5c.638.637.732 1.381.732 1.768s-.095 1.131-.732 1.768l-9.5 9.5c-3.305 3.305-5.125 7.7-5.125 12.373v28.07c0 15.164 12.336 27.5 27.5 27.5h12v36.922c0 4.142 3.357 7.5 7.5 7.5s7.5-3.358 7.5-7.5v-36.922h48.034v93.705c-4.8-1.968-10.046-3.056-15.534-3.056-13.272 0-25.02 6.195-32.5 15.908v-34.635c0-4.142-3.357-7.5-7.5-7.5s-7.5 3.358-7.5 7.5v48.762c-21.816.799-39.5 19.383-39.5 41.626v18.839c0 12.407 10.094 22.5 22.5 22.5h25.49.01 456.5c4.143 0 7.5-3.358 7.5-7.5s-3.357-7.5-7.5-7.5h-32v-188.649zm-27-245.317h-48.034v-30.988c0-1.378 1.121-2.5 2.5-2.5h43.034c1.379 0 2.5 1.122 2.5 2.5zm-403-30.988c0-1.378 1.121-2.5 2.5-2.5h43.034c1.379 0 2.5 1.122 2.5 2.5v30.988h-48.034zm164.5 464.954h-196.5c-4.136 0-7.5-3.364-7.5-7.5v-18.839c0-14.324 11.347-26.28 25.294-26.651.237-.006.474-.01.711-.01 3.347 0 6.612.633 9.716 1.886 2.274.918 4.853.666 6.903-.673 2.054-1.339 3.322-3.597 3.399-6.046.444-14.112 11.854-25.167 25.977-25.167 13.789 0 25.19 10.773 25.956 24.527.149 2.687 1.728 5.088 4.135 6.292 2.408 1.204 5.274 1.024 7.514-.468 4.27-2.846 9.247-4.35 14.396-4.35 13.573 0 24.96 10.596 25.923 24.122.197 2.764 1.902 5.195 4.435 6.32 2.531 1.125 5.479.764 7.663-.942 4.571-3.57 10.052-5.472 15.85-5.5h.121c6.67 0 13.047 2.692 17.967 7.588 5.11 5.086 8.042 12.064 8.042 19.146v6.265zm41-46.227c-5.79 0-10.5-4.71-10.5-10.5s4.71-10.5 10.5-10.5 10.5 4.71 10.5 10.5-4.71 10.5-10.5 10.5zm48-52.227c-5.79 0-10.5-4.71-10.5-10.5s4.71-10.5 10.5-10.5 10.5 4.71 10.5 10.5-4.71 10.5-10.5 10.5zm48 52.227c-5.79 0-10.5-4.71-10.5-10.5s4.71-10.5 10.5-10.5 10.5 4.71 10.5 10.5-4.71 10.5-10.5 10.5zm101.5 46.227h-48.034v-37.727c0-4.142-3.357-7.5-7.5-7.5s-7.5 3.358-7.5 7.5v37.727h-30.966v-32.354c10.412-3.21 18-12.922 18-24.373 0-14.061-11.439-25.5-25.5-25.5s-25.5 11.439-25.5 25.5c0 11.451 7.588 21.162 18 24.373v32.354h-33v-84.581c10.412-3.21 18-12.922 18-24.373 0-14.061-11.439-25.5-25.5-25.5s-25.5 11.439-25.5 25.5c0 11.451 7.588 21.162 18 24.373v84.581h-33v-32.354c10.412-3.21 18-12.922 18-24.373 0-14.061-11.439-25.5-25.5-25.5s-25.5 11.439-25.5 25.5c0 11.451 7.588 21.162 18 24.373v32.354h-18.5v-6.267c0-11.043-4.542-21.897-12.461-29.778-7.752-7.714-17.883-11.956-28.546-11.956-.065 0-.131 0-.195 0-5.321.026-10.472 1.052-15.27 3.013-5.765-15.792-20.989-27.014-38.528-27.014-4.482 0-8.885.724-13.062 2.129-1.79-5.425-4.685-10.333-8.403-14.479v-104.297h168.612c4.674 0 9.068-1.82 12.375-5.126l14.845-14.845c.975-.976 2.561-.974 3.535 0l14.845 14.844c3.305 3.306 7.7 5.126 12.375 5.126h50.345v115.923c0 4.142 3.357 7.5 7.5 7.5s7.5-3.358 7.5-7.5v-115.922h48.033z"/></g></g><g/><g/><g/><g/><g/><g/><g/><g/><g/><g/><g/><g/><g/><g/><g/></svg>