<?xml version="1.0" encoding="UTF-8"?>
<svg xmlns="http://www.w3.org/2000/svg" width="512" height="512" viewBox="0 0 128 128"><path d="M9.726,36.935h1.412v2a5.515,5.515,0,0,0,5.508,5.509h2.99V74.176H14.27A10.146,10.146,0,0,0,4.135,84.31v5.236a1.751,1.751,0,0,0,1.75,1.75H7.976v18.6a8.066,8.066,0,0,0,8.057,8.057H19.8a9.558,9.558,0,0,0,9.38,7.8H98.816a9.558,9.558,0,0,0,9.38-7.8h3.772a8.066,8.066,0,0,0,8.056-8.057V91.3h2.091a1.75,1.75,0,0,0,1.75-1.75V84.31a10.145,10.145,0,0,0-10.134-10.134h-5.367V44.444h2.99a5.515,5.515,0,0,0,5.508-5.509v-2h1.412a5.921,5.921,0,0,0,5.915-5.914V21.615a5.922,5.922,0,0,0-5.915-5.915h-1.412v-2a5.515,5.515,0,0,0-5.508-5.509H95.673V7.007A4.762,4.762,0,0,0,90.916,2.25H81.961a4.762,4.762,0,0,0-4.756,4.757V8.191H50.8V7.007A4.762,4.762,0,0,0,46.039,2.25H37.084a4.762,4.762,0,0,0-4.757,4.757V8.191H16.646A5.515,5.515,0,0,0,11.138,13.7v2H9.726a5.922,5.922,0,0,0-5.915,5.915v9.406A5.921,5.921,0,0,0,9.726,36.935Zm20.692,7.509c0,.06-.018.116-.018.177V59.827a3.667,3.667,0,0,0,1.927,3.211v5.085c-9.422-3.365-9.157-12.931-9.191-13.031V44.444ZM80.705,63.5H84.69v.125a1.75,1.75,0,1,0,3.5,0V63.5h3.983v8.9a5.734,5.734,0,0,1-11.468,0ZM93.923,44.444h0a.178.178,0,0,1,.178.177v15.2a.178.178,0,0,1-.175.178H88.19V56.024a1.75,1.75,0,0,0-3.5,0V60H78.953a.177.177,0,0,1-.175-.176v-15.2a.177.177,0,0,1,.178-.178ZM77.205,63.038v5.9H50.8v-5.9a3.667,3.667,0,0,0,1.929-3.214V44.62c0-.061-.015-.117-.018-.176H75.3c0,.06-.018.116-.018.177V59.827A3.664,3.664,0,0,0,77.205,63.038ZM35.827,63.5h3.986v.125a1.75,1.75,0,1,0,3.5,0V63.5H47.3v8.9a5.734,5.734,0,1,1-11.468,0ZM49.045,44.444h0a.177.177,0,0,1,.178.177v15.2a.178.178,0,0,1-.175.177H43.313V56.024a1.75,1.75,0,0,0-3.5,0V60H34.076a.178.178,0,0,1-.176-.176v-15.2a.178.178,0,0,1,.178-.178ZM7.635,84.31a6.642,6.642,0,0,1,6.635-6.634h5.366V87.8h-12ZM11.476,109.9V91.3h8.16v23.156h-3.6A4.562,4.562,0,0,1,11.476,109.9ZM94.252,122.25H90.845V101.909a3.992,3.992,0,0,0-4.127-4.128H41.282a3.992,3.992,0,0,0-4.127,4.128V122.25H33.748V101.908a7.541,7.541,0,0,1,7.534-7.533H86.718a7.541,7.541,0,0,1,7.534,7.533Zm-6.907,0H40.655V101.909c0-.47.158-.628.627-.628H86.718c.469,0,.627.158.627.628ZM116.524,109.9a4.562,4.562,0,0,1-4.556,4.557h-3.6V91.3h8.16Zm-2.793-32.219a6.642,6.642,0,0,1,6.634,6.634V87.8h-12V77.676ZM104.864,116.2a6.055,6.055,0,0,1-6.048,6.048H97.752V101.908A11.046,11.046,0,0,0,86.718,90.875H41.282a11.046,11.046,0,0,0-11.034,11.033V122.25H29.184a6.055,6.055,0,0,1-6.048-6.045v-50.7A17.314,17.314,0,0,0,32.327,71.8v.6a9.233,9.233,0,0,0,18.466.041H77.207A9.233,9.233,0,0,0,95.673,72.4v-.6a17.314,17.314,0,0,0,9.191-6.291Zm0-61.11h0a13.856,13.856,0,0,1-9.191,13.03V63.039A3.666,3.666,0,0,0,97.6,59.826V44.619c0-.06-.015-.116-.018-.175h7.28ZM118.274,19.2a2.417,2.417,0,0,1,2.415,2.415v9.406a2.417,2.417,0,0,1-2.415,2.414h-1.412V19.2Zm-6.92-7.509a2.011,2.011,0,0,1,2.008,2.009V38.935a2.011,2.011,0,0,1-2.008,2.009H95.673V11.691ZM80.705,7.007A1.258,1.258,0,0,1,81.961,5.75h8.955a1.259,1.259,0,0,1,1.257,1.257V40.944H80.705Zm-3.5,4.684V40.944H50.8V11.691ZM35.827,7.007A1.259,1.259,0,0,1,37.084,5.75h8.955A1.258,1.258,0,0,1,47.3,7.007V40.944H35.827ZM14.638,13.7a2.011,2.011,0,0,1,2.008-2.009H32.327V40.944H16.646a2.011,2.011,0,0,1-2.008-2.009ZM7.311,21.615A2.417,2.417,0,0,1,9.726,19.2h1.412V33.435H9.726a2.417,2.417,0,0,1-2.415-2.414Z" fill="rgb(0,0,0)"/></svg>
