<svg id="Capa_1" enable-background="new 0 0 512 512" height="512" viewBox="0 0 512 512" width="512" xmlns="http://www.w3.org/2000/svg"><g><path d="m413.833 123h-80.774l-47.55-16.643v-14.811c18.584-6.273 32-23.872 32-44.546 0-25.916-21.084-47-47-47s-47 21.084-47 47h30c0-9.374 7.626-17 17-17s17 7.626 17 17-7.626 17-17 17h-15v42.357l-47.55 16.643h-80.774l-97.657 125.231 83.561 83.561 17.421-23.057v53.265h-85c-24.813 0-45 20.187-45 45 0 11.517 4.353 22.032 11.495 30-7.141 7.968-11.495 18.483-11.495 30 0 24.813 20.187 45 45 45h365v-203.265l17.421 23.057 83.561-83.561zm-106.251 22.868-37.073 57.463-37.073-57.463 37.073-12.975zm-262.073 246.132h198c8.271 0 15 6.729 15 15s-6.729 15-15 15h-198c-8.271 0-15-6.729-15-15s6.729-15 15-15zm0 90c-8.271 0-15-6.729-15-15s6.729-15 15-15h198c8.271 0 15 6.729 15 15s-6.729 15-15 15zm335-262.735v262.735h-94.58c1.665-4.695 2.58-9.741 2.58-15 0-11.517-4.354-22.032-11.495-30 7.141-7.968 11.495-18.483 11.495-30 0-24.813-20.187-45-45-45h-83v-142.735l-50.579 66.943-40.439-40.439 72.342-92.769h60.502l68.173 105.669 68.175-105.669h60.502l72.343 92.769-40.439 40.439z"/></g></svg>