<svg id="Layer_1_1_" enable-background="new 0 0 64 64" height="512" viewBox="0 0 64 64" width="512" xmlns="http://www.w3.org/2000/svg"><path d="m56.5 50h3c1.379 0 2.5-1.121 2.5-2.5s-1.121-2.5-2.5-2.5h-9.084c-2.578 0-4.896 1.534-5.901 3.908-.279.654-1.002 1.092-1.803 1.092h-21.424c-.801 0-1.524-.438-1.802-1.091-1.007-2.375-3.324-3.909-5.902-3.909-3.189 0-6.296 1.125-8.745 3.166l-.492.409c-.821.685-1.428 1.473-1.804 2.341-1.146 2.637-.446 5.632 1.737 7.453l.558.465c2.45 2.041 5.557 3.166 8.746 3.166 2.578 0 4.896-1.534 5.901-3.908.279-.654 1.002-1.092 1.803-1.092h21.424c.801 0 1.524.438 1.802 1.091 1.007 2.375 3.324 3.909 5.902 3.909h9.084c1.379 0 2.5-1.121 2.5-2.5s-1.121-2.5-2.5-2.5h-3c-.275 0-.5-.225-.5-.5s.225-.5.5-.5h3c1.379 0 2.5-1.121 2.5-2.5s-1.121-2.5-2.5-2.5h-3c-.275 0-.5-.225-.5-.5s.225-.5.5-.5zm0 3h3c.275 0 .5.225.5.5s-.225.5-.5.5h-3c-1.379 0-2.5 1.121-2.5 2.5s1.121 2.5 2.5 2.5h3c.275 0 .5.225.5.5s-.225.5-.5.5h-9.084c-1.774 0-3.368-1.056-4.062-2.691-.595-1.403-2.026-2.309-3.642-2.309h-21.424c-1.616 0-3.046.906-3.644 2.31-.692 1.634-2.286 2.69-4.06 2.69-2.723 0-5.374-.96-7.465-2.703l-.558-.465c-1.496-1.247-1.973-3.305-1.184-5.12.251-.579.671-1.118 1.249-1.6l.492-.409c2.092-1.743 4.743-2.703 7.466-2.703 1.774 0 3.368 1.056 4.062 2.691.596 1.403 2.026 2.309 3.642 2.309h21.424c1.616 0 3.047-.906 3.644-2.31.692-1.635 2.286-2.69 4.061-2.69h9.083c.275 0 .5.225.5.5s-.225.5-.5.5h-3c-1.379 0-2.5 1.121-2.5 2.5s1.121 2.5 2.5 2.5z"/><path d="m57 10v-4c0-3.157-8.172-4-13-4s-13 .843-13 4v10.05c-1.41-.036-2.761-.05-4-.05-9.337 0-25 .779-25 6 0 1.217.858 2.19 2.282 2.97l5.775 16.363c.093.261.289.472.543.583 5.211 2.28 10.806 3.42 16.4 3.42s11.189-1.14 16.4-3.42c.254-.111.45-.322.543-.583l.472-1.338c4.866-.046 12.585-.925 12.585-3.995v-7c2.757 0 5-2.243 5-5v-9c0-2.757-2.243-5-5-5zm-13-6c6.466 0 10.406 1.246 10.969 2-.563.754-4.503 2-10.969 2s-10.406-1.246-10.969-2c.563-.754 4.503-2 10.969-2zm-17 14c15.864 0 23 2.339 23 4s-7.136 4-23 4-23-2.339-23-4 7.136-4 23-4zm15.202 22.255c-9.686 4.109-20.719 4.109-30.404 0l-5.035-14.266c5.371 1.679 14.148 2.011 20.237 2.011s14.866-.332 20.237-2.011zm2.923-2.269 4.594-13.016c1.423-.78 2.281-1.753 2.281-2.97 0-4.206-10.166-5.529-19-5.884v-7.812c2.729 1.292 7.662 1.696 11 1.696s8.272-.404 11.001-1.697l.012 27.625c-.334.701-3.893 1.92-9.888 2.058zm14.875-13.986c0 1.654-1.346 3-3 3v-15c1.654 0 3 1.346 3 3z"/></svg>