<svg id="Capa_1" enable-background="new 0 0 511.063 511.063" height="512" viewBox="0 0 511.063 511.063" width="512" xmlns="http://www.w3.org/2000/svg"><g><path d="m424.969 209.501c-4.879 0-110.031 21.382-110.031 21.382v16.149h-25v-22.469h-20v-33.469h62.5v-15h-12.5v-26.336l-3.381-8.963 77.13-31.484v-58.373h39.708v-50.938h-270.957v15h67.5v20.938h-116.167v51.945l56.105 22.278-6.358 16.855-67.747-26.839v-64.239h-39.708v-20.938h91.5v-15h-106.5v50.938h39.708v59.43l77.452 30.684-3.285 8.707v26.336h-12.5v15h62.5v33.469h-20v62.969c-54.604 5.061-97.5 51.127-97.5 107.031v101.5h-15v15h330v-15h-15v-101.5c0-20.045-5.557-39.605-16.068-56.564l-12.75 7.903c9.04 14.583 13.818 31.41 13.818 48.661v101.5h-270v-101.5c0-51.005 41.495-92.5 92.5-92.5h85c27.122 0 52.783 11.846 70.403 32.501l11.412-9.735c-18.295-21.445-44.053-34.708-71.815-37.292v-25.505h25v14.967s105.149 22.564 110.031 22.564c24.83 0 45.031-20.201 45.031-45.031s-20.201-45.032-45.031-45.032zm-180.031-110.938v-47.625h100.749v25.87l-51.761 21.756h-48.988zm45.313 15 5.053 13.394 6.289 16.669h-56.655v-30.062h45.313zm-45.313-98.563h173.457v20.938h-39.708v63.295l-67.427 27.523-6.254-16.579 55.681-23.403v-50.836h-115.749zm-116.167 62.699v-26.761h101.167v47.626h-48.621zm41.167 98.396v-17.469h31.5v-15h-28.154l11.341-30.062h45.313v30.062h-13.375v15h88.375v17.469zm50 15h35v33.469h-35zm-20 48.468h75v46.469h-75zm130 3.558c17.213-3.517 38.23-7.763 56.179-11.314-3.92 6.676-6.179 14.44-6.179 22.725 0 8.159 2.192 15.812 6.003 22.419-17.936-3.758-38.894-8.274-56.003-12.017zm95.134 41.442c-1.286-.088-4.864-.706-10.046-1.699-11.686-4.113-20.088-15.257-20.088-28.332 0-13.041 8.357-24.162 19.996-28.301 5.312-.985 8.963-1.613 10.217-1.73 16.475.099 29.849 13.533 29.849 30.031 0 16.525-13.417 29.975-29.928 30.031z"/><path d="m136.861 437.98c-5.083 8.804-5.082 19.315 0 28.119 5.083 8.803 14.187 14.059 24.352 14.059s19.268-5.255 24.35-14.059c5.083-8.804 5.084-19.315.001-28.119l-24.351-42.177zm35.711 20.619c-2.371 4.107-6.617 6.559-11.359 6.559s-8.989-2.452-11.36-6.559c-2.372-4.107-2.372-9.012-.001-13.119l11.361-19.677 11.36 19.677c2.371 4.107 2.371 9.012-.001 13.119z"/><path d="m204.229 435.563h75.209v15h-75.209z"/><path d="m204.229 465.563h75.219v15h-75.219z"/><path d="m204.5 404.563h15.298v15h-15.298z"/><path d="m234.5 404.563h15.298v15h-15.298z"/><path d="m264.15 404.563h15.298v15h-15.298z"/></g></svg>