<svg id="Layer_1" enable-background="new 0 0 512 512" height="512" viewBox="0 0 512 512" width="512" xmlns="http://www.w3.org/2000/svg"><g><path d="m389.969 218.92c-14.799 0-27.241 10.296-30.606 24.123h-66.916v-22.912c13.537-2.928 24.215-13.607 27.143-27.144h18.137c3.04 0 5.779-1.835 6.937-4.647l44.268-107.63c2.068-4.893-1.675-10.524-7.01-10.44h-45.244c-4.143 0-7.5 3.358-7.5 7.5s3.357 7.5 7.5 7.5h34.158l-38.134 92.717h-12.307v-6.248c0-9.533-6.19-17.643-14.759-20.536 7.069-19.403 7.403-42.829.621-64.719-7.49-24.179-27.223-58.661-78.687-85.628-2.507-1.313-5.538-1.104-7.841.54-2.302 1.644-3.483 4.444-3.054 7.24 3.461 22.557-6.482 37.954-17.995 55.783-14.027 21.721-29.762 46.134-18.989 85.712-11.207.82-20.077 10.195-20.077 21.608v6.248h-12.307l-38.134-92.717h34.159c4.143 0 7.5-3.358 7.5-7.5s-3.357-7.5-7.5-7.5h-45.243c-5.32-.079-9.098 5.547-7.012 10.439l44.269 107.631c1.157 2.812 3.896 4.647 6.937 4.647h18.137c2.928 13.537 13.606 24.215 27.142 27.144v71.129h-40.262c-26.143 0-47.411 21.269-47.411 47.412v125.985c-5.077 2.754-8.532 8.132-8.532 14.302v16.781c0 8.965 7.294 16.259 16.259 16.259h264.778c8.965 0 16.259-7.294 16.259-16.259v-16.78c0-6.17-3.455-11.548-8.532-14.302v-125.985c0-26.143-21.269-47.412-47.411-47.412h-40.263v-33.217h66.914c3.363 13.843 15.806 24.151 30.607 24.151 17.39 0 31.537-14.199 31.537-31.651.001-17.437-14.146-31.624-31.536-31.624zm-178.687-146.363c9.898-15.328 20.072-31.082 21.024-51.805 38.241 23.297 53.56 50.595 59.624 70.172 6.32 20.398 5.518 42.137-2 59.143h-13.421c3.699-16.114 2.006-31.502-5.071-44.989-8.089-15.414-20.21-23.247-23.958-25.393-.245-.146-.498-.276-.757-.393-.99-.447-2.035-.661-3.069-.661-.005 0-.011-.001-.014 0-1.029 0-2.071.212-3.058.656-.261.116-.515.248-.762.394-3.751 2.142-15.883 9.965-23.976 25.398-7.072 13.484-8.762 28.872-5.061 44.987h-15.489c-11.121-35.49 2.055-55.933 15.988-77.509zm14.984 77.509c-8.868-31.061 9.192-48.751 17.377-54.917 8.183 6.174 26.242 23.884 17.386 54.917zm-51.651 35.422v-13.748c0-3.68 2.993-6.673 6.673-6.673h8.593c.009 0 .017.002.025.002.015 0 .03-.002.045-.002h76.497c.015 0 .03.002.045.002.009 0 .017-.002.025-.002h28.144.084 3.977c3.68 0 6.673 2.994 6.673 6.673v13.748c0 11.276-9.174 20.45-20.449 20.45h-89.885c-11.275 0-20.447-9.174-20.447-20.45zm190.506 153.185v22.349h-108.066c-4.143 0-7.5 3.358-7.5 7.5s3.357 7.5 7.5 7.5h108.066v86.679h-106.365c-4.143 0-7.5 3.358-7.5 7.5s3.357 7.5 7.5 7.5h113.639c.683 0 1.259.577 1.259 1.259v16.781c0 .683-.576 1.259-1.259 1.259h-264.779c-.683 0-1.259-.577-1.259-1.259v-16.781c0-.683.576-1.259 1.259-1.259h114.801c4.143 0 7.5-3.358 7.5-7.5s-3.357-7.5-7.5-7.5h-107.527v-86.679h107.527c4.143 0 7.5-3.358 7.5-7.5s-3.357-7.5-7.5-7.5h-107.527v-22.349c0-17.872 14.54-32.412 32.411-32.412h47.762 89.885 47.763c17.871 0 32.41 14.54 32.41 32.412zm-162.558-47.412v-70.323h74.885v70.323zm187.406-24.067c-9.103 0-16.509-7.47-16.509-16.651 0-9.166 7.406-16.623 16.509-16.623 9.118 0 16.537 7.457 16.537 16.623 0 9.182-7.419 16.651-16.537 16.651z"/></g></svg>