<svg id="svg2" height="512" viewBox="0 0 128 128" width="512" xmlns="http://www.w3.org/2000/svg" xmlns:svg="http://www.w3.org/2000/svg" isolation="isolate"><path id="path4" d="m10.082031 47.472656c-2.123826-.088416-3.3821773 2.345656-2.082031 4.027344l7.269531 9.691406c5.955073 20.020792 14.197615 35.287993 24.953125 45.613284 10.847638 10.41373 24.271937 15.69531 39.777344 15.69531 13.368188 0 26.90786-5.89048 36.92773-13.55859 1.41603 1.95696 3.79584 3.55859 6.82227 3.55859 2.77326 0 4.89277-1.50991 6.4082-2.95898 1.51544-1.44908 2.70216-2.92187 3.85742-3.80274.78201-.59622 1.91611-1.07254 3.26563-1.86914 1.34951-.79659 2.93455-2.10071 3.7832-4.171874.58679-1.432569.67813-3.04339.10547-4.5-.57267-1.45661-1.85859-2.669399-3.43945-3.203125-1.74168-.588026-3.73865-.400815-5.95508.441406 5.43918-8.574789 9.28926-18.591441 12.98047-31.279297l7.24414-9.65625c1.24874-1.617068.13599-3.967985-1.90625-4.027344-.82467-.023968-1.60808.360428-2.09375 1.027344l-7.2832 9.710938c-8.53176 6.533084-15.8092 10.644882-23.99024 14.404296-1.77283-3.905078-4.54068-6.349207-7.72461-7.076172-3.5145-.688962-7.51899.643844-10.330125 2.341797-3.817371 2.392632-10.266969 7.242504-19.511719 14.597657-7.774935-.09555-15.751734-1.522799-23.933594-4.302735.740221-3.255234.626284-6.363717-.523437-9.123047-1.299045-3.117706-3.843151-5.624182-7.251953-7.49414-1.632255-.8954-3.320238-1.500063-5.019531-1.785156s-3.40802-.252597-5.078125.132812c-3.036105.70064-5.836936 2.483028-8.425782 5.103516-3.188972-2.085305-6.403764-4.342081-9.65039-6.806641l-7.277294-9.703125c-.448992-.617257-1.155347-.995609-1.917969-1.027344zm29.955078 17.09961c1.570415-.05325 3.187601.36849 5.011719 1.36914 2.699531 1.480875 4.252821 3.15091 5.03711 5.033203.633344 1.520025.800208 3.293149.394531 5.460938-5.633729-2.252013-11.366534-5.157983-17.19336-8.681641 1.810181-1.64412 3.545085-2.593186 5.189453-2.972656.519115-.119796 1.037076-.191236 1.560547-.208984zm94.333981 4.1875c-.77238 1.102544-1.62742 2.244244-2.57421 3.427734-3.35065 4.188122-6.97122 8.203628-10.83594 12.064453-.81756-1.975555-1.59102-4.230091-2.51367-6.927734 5.45403-2.492781 10.60196-5.178671 15.92382-8.564453zm-27.91406 1.539062c.50909-.02258.98992.01438 1.43164.115234 1.76688.40342 3.42256 1.651356 4.75195 5.417969 2.78577 7.892988 3.69887 11.691717 7.75391 18.017578 1.29049 2.013063 2.37212 3.493213 3.45117 4.572266.53953.539526 1.06205 1.003214 1.83985 1.351563.7778.348352 2.13603.481922 3.15234-.16211 2.05367-1.262125 4.75522-3.266649 7.29294-2.8789 1.09898.634499.0406 2.002635-1.39261 2.830078-.91424.539654-2.29965 1.090444-3.7539 2.199224-1.84974 1.41039-3.12958 3.0629-4.28321 4.16601-1.15351 1.10312-1.90568 1.57227-2.95117 1.57227-1.88209 0-2.03615-.27631-2.91797-1.67969s-1.86076-4.01154-3.68164-7.091798c-1.81804-3.075443-3.51568-4.808003-5.16992-6.142578-1.65424-1.334574-3.12569-2.266317-5.21289-4.353516-2.65969-2.659691-3.98914-5.393969-4.27735-8.466797-.30784-3.325935-5.298594-2.856216-4.980464.46875.0023.02432.0074.04797.0098.07227-3.278478.812356-6.526691 1.395994-9.75 1.753906 6.309935-4.914417 10.896568-8.272915 13.558584-9.941406 1.6534-.844418 3.4577-1.723894 5.12894-1.820323zm-82.226561 1.720703c12.621932 13.774397 26.027443 22.334516 40.238281 25.423828 3.31799.803175 4.414438-4.239677 1.0625-4.886718-11.550371-2.510951-22.761637-9.063258-33.621094-19.78711 22.404079 13.684207 42.754968 18.244064 66.830078 12.386719.981954 2.387452 2.493776 4.612918 4.492186 6.611328.96872.96872 1.82304 1.707951 2.61524 2.359375-5.52821 2.202277-12.456359 3.373047-20.84766 3.373047-3.380807-.04781-3.380807 5.04781 0 5 10.036754 0 18.44176-1.54939 25.1875-4.804688.82256.822891 1.63443 1.837727 2.66211 3.576168.66029 1.11696 1.17821 2.17821 1.66992 3.20508-9.30829 7.2963-22.379967 13.02344-34.51953 13.02344-15.559089 0-28.258749-6.10286-37.275391-15.26758 9.206531 5.55786 20.820775 10.26758 37.275391 10.26758 3.380807.0478 3.380807-5.04781 0-5-23.738956 0-35.950696-9.933189-47.267578-18.263672-3.465065-5.668541-6.911212-11.36922-8.501953-17.216797zm109.607421 5.550781c-2.38397 5.669775-5.03508 10.600969-8.2207 15.080079-.8548-1.199136-1.6143-2.454948-2.32617-3.65625 3.74283-3.657769 7.25303-7.470011 10.54687-11.423829z" transform="scale(.8)" text-indent="0" text-align="start" text-decoration-line="none" text-decoration-style="solid" text-decoration-color="rgb(0,0,0)" text-transform="none" block-progression="tb" white-space="normal" isolation="auto" mix-blend-mode="normal" solid-color="rgb(0,0,0)" solid-opacity="1"/></svg>