<?xml version="1.0"?>
<svg xmlns="http://www.w3.org/2000/svg" id="outline" viewBox="0 0 512 512" width="512" height="512"><path d="M456,121.275a24.019,24.019,0,0,0-34.351-21.664L381.088,59.05a8,8,0,0,0-11.313,0l-7.436,7.436a44.832,44.832,0,0,0-35.876-40.1l-17.345-3.47a8,8,0,0,0-9.413,9.414l3.118,15.593A16.15,16.15,0,0,1,298.4,62.545l-30.3,30.3a32.238,32.238,0,0,0,0,45.541,31.6,31.6,0,0,0,14.154,8.187l-2.984,2.984a8,8,0,0,0,0,11.313l39.6,39.6-21.835,21.835L247.1,250.046a7.991,7.991,0,0,0-1.771,1.337L41.677,455.029A24,24,0,0,0,75.618,488.97L278.472,286.116l49.933-27.74a7.994,7.994,0,0,0,1.771-1.336L448.97,138.246A23.846,23.846,0,0,0,456,121.275ZM375.432,76.02l33.941,33.941-11.314,11.314L364.118,87.334ZM352.8,98.647l33.942,33.942L375.432,143.9,341.49,109.961Zm11.314,56.569L352.8,166.53l-33.941-33.941,11.314-11.314Zm-84.71-28.141a16.222,16.222,0,0,1,0-22.914l30.3-30.3a32.121,32.121,0,0,0,8.8-29.068l-.765-3.827,5.577,1.116a28.844,28.844,0,0,1,14.74,48.68l-36.316,36.316A15.816,15.816,0,0,1,279.408,127.075Zm16.827,28.141L307.549,143.9l33.942,33.942-11.314,11.314Zm141.422-28.284-118,118-49.932,27.74a7.992,7.992,0,0,0-1.772,1.336L64.305,477.657a8,8,0,1,1-11.314-11.314L255.845,263.489l49.933-27.74a7.968,7.968,0,0,0,1.771-1.337l118.889-118.7a7.858,7.858,0,0,0,.652-.746,8,8,0,0,1,10.567,11.965Z"/><path d="M186.53,56.411A52.73,52.73,0,0,1,155.842,29.8l-4.687-9.373a8,8,0,0,0-14.31,0L132.158,29.8A52.73,52.73,0,0,1,101.47,56.411a8,8,0,0,0,0,15.178,52.73,52.73,0,0,1,30.688,26.616l4.687,9.373a8,8,0,0,0,14.31,0l4.687-9.373A52.73,52.73,0,0,1,186.53,71.589a8,8,0,0,0,0-15.178ZM144,86.531A68.448,68.448,0,0,0,122.345,64,68.458,68.458,0,0,0,144,41.469,68.448,68.448,0,0,0,165.655,64,68.458,68.458,0,0,0,144,86.531Z"/><path d="M218.53,176.411A40.6,40.6,0,0,1,194.9,155.92l-3.749-7.5a8,8,0,0,0-14.31,0l-3.749,7.5a40.6,40.6,0,0,1-23.626,20.491,8,8,0,0,0,0,15.178A40.6,40.6,0,0,1,173.1,212.08l3.749,7.5a8,8,0,0,0,14.31,0l3.749-7.5a40.6,40.6,0,0,1,23.626-20.491,8,8,0,0,0,0-15.178ZM184,199.009A56.288,56.288,0,0,0,169.528,184,56.288,56.288,0,0,0,184,168.991,56.288,56.288,0,0,0,198.472,184,56.288,56.288,0,0,0,184,199.009Z"/><path d="M242.53,119.589a8,8,0,0,0,0-15.178,28.457,28.457,0,0,1-16.563-14.366l-2.812-5.623a8,8,0,0,0-14.31,0l-2.812,5.624a28.459,28.459,0,0,1-16.563,14.365,8,8,0,0,0,0,15.178,28.457,28.457,0,0,1,16.563,14.366l2.812,5.623a8,8,0,0,0,14.31,0l2.812-5.624A28.459,28.459,0,0,1,242.53,119.589Zm-26.53.2A44.136,44.136,0,0,0,208.461,112,44.17,44.17,0,0,0,216,104.213,44.136,44.136,0,0,0,223.539,112,44.17,44.17,0,0,0,216,119.787Z"/></svg>
