<svg id="Capa_1" enable-background="new 0 0 512 512" height="512" viewBox="0 0 512 512" width="512" xmlns="http://www.w3.org/2000/svg"><path d="m511.963 403.225c-4.327-38.975 1.795-98.411-31.646-180.394-16.663-40.848-39.241-77.193-67.109-108.026-14.983-16.576-30.475-19.936-40.785-25.248l-3.178-21.33c-1.935-12.986-11.875-23.491-24.733-26.14-2.653-.547-5.336-.737-7.99-.599-5.205-6.764-13.566-10.915-22.616-10.915h-115.81c-9.049 0-17.411 4.151-22.616 10.915-2.654-.138-5.337.052-7.99.599-12.859 2.649-22.798 13.153-24.733 26.139l-3.178 21.33c-10.173 5.242-25.776 8.643-40.785 25.249-8.418 9.314-16.495 19.33-24.007 29.769-2.419 3.362-1.655 8.049 1.708 10.468 3.379 2.432 8.063 1.636 10.468-1.708 5.539-7.698 11.399-15.148 17.476-22.236 11.321 14.86 17.816 40.044 18.884 73.574.822 25.807-1.889 48.666-2.683 54.691-3.008 4.677-5.9 9.698-8.654 15.013-25.251-11.827-52.613-33.54-54.422-72.287 3.321-6.643 6.828-13.169 10.523-19.55 2.076-3.584.853-8.173-2.732-10.249-3.583-2.076-8.173-.854-10.249 2.732-60.41 104.33-50.4 195.602-55.067 228.201-.49 8.152 3.922 15.372 10.738 19.202v16.12c0 8.201 6.672 14.873 14.874 14.873h40.616c8.201 0 14.874-6.672 14.874-14.873v-15.194c6.642-2.965 11.535-9.024 12.483-16.364 3.625-20.992 4.23-62.756 24.939-111.289-1.277 37.331-1.19 96.663 9.444 134.564 2.531 9.02 9.901 15.869 19.023 18.345v14.38c0 10.167 8.272 18.439 18.439 18.439h181.066c10.167 0 18.439-8.272 18.439-18.439v-14.38c9.122-2.476 16.492-9.325 19.023-18.345 10.634-37.9 10.722-97.232 9.444-134.563 20.74 48.605 21.239 89.863 24.939 111.289.949 7.34 5.841 13.399 12.483 16.364v15.194c0 8.201 6.672 14.873 14.874 14.873h40.616c8.201 0 14.874-6.672 14.874-14.873v-16.12c6.813-3.829 11.226-11.049 10.736-19.201zm-120.602-143.862c-.793-5.999-3.491-28.695-2.689-54.468 1.046-33.638 7.542-58.896 18.887-73.79 17.967 20.974 33.859 45.088 46.877 71.025-1.826 38.724-29.18 60.426-54.42 72.248-2.755-5.316-5.647-10.338-8.655-15.015zm-143.979 175.265v-309.99h17.236v309.99zm-15-164.357c-35.619-.733-69.246-3.117-97.118-6.909.016-.216.028-.38.037-.502.639-4.383 5.818-42.007 1.517-79.971 27.781 3.6 60.78 5.868 95.564 6.577zm-98.024 8.101c28.29 3.79 62.197 6.171 98.024 6.9v80.805c-36.299-.746-70.503-3.202-98.677-7.119-1.35-31.347-.274-62.52.653-80.586zm145.26-88.907c34.783-.708 67.782-2.976 95.563-6.577-4.301 37.964.878 75.588 1.517 79.971.009.122.021.286.037.502-27.871 3.792-61.498 6.176-97.118 6.909v-80.805zm117.576-69.416c-10.219 12.426-16.266 29.437-19.693 47.402-28.013 3.851-61.953 6.271-97.884 7.012v-52.916l13.591-7.564v26.518c0 4.142 3.358 7.5 7.5 7.5s7.5-3.358 7.5-7.5v-34.866c1.282-.715 1.301-.721 1.47-.822 16.037-9.592 35.81-10.794 52.891-3.217 15.108 7.229 24.004 9.081 34.625 18.453zm-42.786-49.612 1.978 13.274c-18.303-4.445-37.854-1.635-54.303 8.167l-31.911 17.759h-.83c10.939-16.165 25.309-29.818 42.124-39.904l18.263-10.954c9.937-5.962 22.945.021 24.679 11.658zm-40.503-24.864c2.248 0 4.393.516 6.274 1.442l-16.429 9.855c-19.173 11.5-35.479 27.178-47.75 45.755-12.271-18.577-28.577-34.255-47.75-45.755l-16.429-9.855c1.881-.926 4.026-1.442 6.274-1.442zm-156.313 24.864c1.011-6.786 6.205-12.274 12.924-13.659 9.945-2.053 14.989 5.025 30.018 12.955 16.815 10.086 31.185 23.739 42.124 39.904h-.83l-31.911-17.759c-16.448-9.801-36-12.61-54.303-8.167zm-42.786 49.612c10.606-9.359 19.442-11.189 34.624-18.454 17.082-7.578 36.855-6.375 52.891 3.217.172.103.195.111 1.581.884v34.804c0 4.142 3.358 7.5 7.5 7.5s7.5-3.358 7.5-7.5v-26.456l13.48 7.502v52.916c-35.932-.74-69.872-3.161-97.884-7.012-3.426-17.964-9.473-34.974-19.692-47.401zm-89.031 318.371v-13.099h40.363v13.099zm52.97-33.354c-.411 3.179-3.564 5.255-6.828 5.255-55.567-.098-49.511.243-52.147-.289-2.743-.762-4.932-3.059-4.761-5.907 3.81-63.165 3.391-56.939 3.763-62.143 18.911 14.204 41.912 19.509 65.829 18.672-1.11 7.066-1.276 9.245-5.856 44.412zm8.625-59.551c-27.909 1.739-50.345-5.561-66.811-21.734 4.123-33.008 13.01-66.267 26.012-97.618 6.712 21.771 23.049 45.021 58.953 61.766-7.667 17.511-13.91 37.26-18.154 57.586zm55.077 80.695c-4.098-14.607-6.527-32.94-7.882-52.004 28.253 3.775 62.059 6.147 97.817 6.874v53.548h-77.822c-5.741 0-10.722-3.462-12.113-8.418zm204.086 40.217h-181.066c-1.896 0-3.439-1.543-3.439-3.439v-13.36h187.945v13.36c0 1.896-1.543 3.439-3.44 3.439zm10.907-31.799h-77.822v-53.558c8.959-.178 17.825-.45 26.51-.836 4.138-.184 7.343-3.688 7.16-7.826-.184-4.138-3.692-7.347-7.826-7.16-8.467.376-17.109.643-25.844.819v-80.794c35.829-.729 69.736-3.111 98.025-6.901.928 18.064 2.006 49.234.655 80.583-11.699 1.627-24.511 3.016-38.204 4.134-4.128.337-7.202 3.957-6.865 8.085.32 3.921 3.601 6.89 7.467 6.89.205 0 .411-.008.619-.025 12.845-1.049 24.944-2.335 36.123-3.829-1.356 19.059-3.785 37.39-7.885 52-1.391 4.956-6.372 8.418-12.113 8.418zm49.035-146.699c35.922-16.754 52.255-40.02 58.961-61.794.328.788.67 1.57.992 2.361 12.491 30.624 21.011 63.171 25.018 95.281-16.466 16.176-38.905 23.477-66.816 21.738-4.244-20.327-10.487-40.075-18.155-57.586zm20.923 72.724c23.912.837 46.911-4.468 65.818-18.664.502 7.042-.238-4.158 3.774 62.135.213 3.553-3.207 6.197-6.861 6.197-24.392-.031-49.392.082-51.076-.072-3.035-.393-5.451-2.486-5.799-5.183-4.728-36.312-4.755-37.407-5.856-44.413zm18.464 77.767v-13.099h40.363v13.099z"/></svg>