<svg id="Capa_1" enable-background="new 0 0 512 512" height="512" viewBox="0 0 512 512" width="512" xmlns="http://www.w3.org/2000/svg"><g><path d="m512 198.652c0-61.4-43.71-114.649-103.934-126.614l-49.82-9.898-15.535-62.14h-173.422l-15.535 62.14-49.82 9.898c-60.224 11.964-103.934 65.213-103.934 126.614v253.348h75v60h362v-60h75zm-30 0v163.348h-38.571c-1.275-21.308-4.434-38.103-5.991-45.395 12.987-51.539 3.176-105.79.002-120.657 7.553-29.665 7.395-56.538 5.276-76.216 24.055 18.298 39.284 47.181 39.284 78.92zm-211 223.348v-90.667h138.687c3.105 18.113 7.549 55.027.443 90.667zm-169.13 0c-7.108-35.643-2.662-72.561.442-90.667h138.688v90.667zm139.13-211.333v90.667h-139.13c-7.108-35.643-2.662-72.561.442-90.667zm168.704 0c3.119 18.076 7.575 54.919.429 90.667h-139.133v-90.667zm-7.483-109.204c2.502.497 4.958 1.104 7.382 1.783 2.959 13.032 7.727 42.661.572 77.421h-139.175v-61.48c36.229-3.874 66.111-20.6 78.173-28.263zm-73.391-33.295c-11.261 6.603-32.829 17.424-57.83 20.79v-58.958h48.289zm-87.83-38.168v58.958c-25.009-3.367-46.58-14.193-57.831-20.789l9.542-38.169zm-78.173 60.923c12.063 7.663 41.944 24.389 78.173 28.263v61.48h-139.175c-7.159-34.775-2.383-64.413.57-77.42 2.425-.679 4.882-1.286 7.384-1.783zm-93.543 28.81c-2.119 19.677-2.278 46.551 5.276 76.216-3.173 14.867-12.984 69.118.002 120.657-1.557 7.292-4.716 24.087-5.991 45.395h-38.571v-163.349c0-31.739 15.229-60.622 39.284-78.919zm-39.284 272.267h38.267c.411 9.732 1.367 19.837 3.094 30h-41.361zm75 60h136v30h-136zm302 30h-136v-30h136zm33.639-60c1.727-10.163 2.683-20.268 3.094-30h38.267v30z"/></g></svg>