<svg id="Capa_1" enable-background="new 0 0 512 512" height="512" viewBox="0 0 512 512" width="512" xmlns="http://www.w3.org/2000/svg"><g><path d="m441.307 379.851c-5.19-5.191-11.745-8.663-18.956-10.041l-25.377-4.847-46.643-46.643c35.352-37.527 65.995-77.724 91.208-119.778 2.128-3.55.976-8.154-2.574-10.282-3.551-2.128-8.153-.976-10.282 2.574-24.587 41.009-54.473 80.232-88.956 116.881l-23.945-23.945c34.344-42.202 44.625-88.114 22.593-110.146-22.03-22.031-67.948-11.76-110.152 22.587l-23.962-23.962c58.082-54.704 121.648-97.044 189.259-126.026 18.274 2.276 35.448 10.646 48.529 23.728 13.083 13.082 21.453 30.257 23.728 48.533-6.109 14.245-12.939 28.561-20.331 42.582-1.931 3.661-.528 8.194 3.134 10.126 3.665 1.929 8.194.525 10.126-3.135 7.903-14.99 15.189-30.312 21.657-45.542 19.894-46.857 28.189-83.759 31.363-101.587 1.02-5.729-.826-11.604-4.937-15.715s-9.991-5.958-15.715-4.937c-17.827 3.173-54.73 11.468-101.588 31.363-70.058 29.75-135.836 73.447-195.822 130.013l-46.625-46.625-4.849-25.377c-1.378-7.212-4.85-13.767-10.04-18.956l-64.12-64.122c-4.131-4.13-9.622-6.405-15.463-6.405-5.842 0-11.333 2.275-15.464 6.405l-30.53 30.53c-8.525 8.526-8.525 22.399 0 30.926l64.121 64.12c5.19 5.191 11.745 8.663 18.956 10.041l25.377 4.848 46.628 46.628c-58.332 61.846-102.911 129.73-132.624 202.084-18.091 44.039-25.781 78.638-28.756 95.343-1.018 5.718.828 11.585 4.938 15.695 3.366 3.366 7.91 5.213 12.584 5.213 1.034 0 2.076-.091 3.111-.275 16.705-2.975 51.304-10.665 95.342-28.756 72.355-29.713 140.244-74.284 202.092-132.618l46.622 46.622 4.847 25.377c1.378 7.212 4.85 13.767 10.04 18.956l64.121 64.121c4.264 4.263 9.863 6.394 15.463 6.394s11.199-2.131 15.463-6.394l30.53-30.53c4.13-4.131 6.405-9.622 6.405-15.464 0-5.841-2.275-11.332-6.405-15.463zm-22.957-343.575c20.511-7.626 41.617-14.117 63.058-18.797 4.081-.891 8.178-1.711 12.29-2.446 1.26-.225 2.101.391 2.489.779.387.387 1.003 1.227.779 2.489-2.443 13.722-8.049 39.189-20.02 72.012-.26.714-1.857 3.805-1.628 4.422-4.892-13.197-12.603-25.318-22.67-35.385s-22.188-17.778-35.385-22.67c.363-.135.725-.27 1.087-.404zm-133.321 144.566c18.885-6.13 34.466-4.898 42.746 3.381 8.28 8.281 9.514 23.862 3.382 42.747-4.906 15.112-13.933 31.011-26.038 46.139l-66.222-66.222c15.127-12.103 31.022-21.139 46.132-26.045zm-192.566-53.377c-4.249-.811-8.112-2.856-11.169-5.916l-64.121-64.121c-2.682-2.681-2.682-7.045 0-9.726l30.53-30.53c1.341-1.342 3.101-2.012 4.864-2.012 1.76 0 3.523.671 4.863 2.012l64.121 64.121c3.058 3.057 5.104 6.92 5.915 11.169l.707 3.7-20.797-20.797c-8.825-8.822-23.183-8.825-32.01.001-8.824 8.825-8.824 23.184 0 32.009l20.797 20.797zm-6.546 351.062c-30.868 10.942-54.771 16.15-67.635 18.441-1.253.219-2.082-.394-2.469-.78-.386-.387-1.001-1.222-.78-2.469 2.24-12.581 7.265-35.712 17.719-65.597 1.272-3.636 2.584-7.255 3.932-10.855 4.893 13.194 12.604 25.313 22.669 35.378 10.065 10.066 22.184 17.777 35.379 22.67-.866.326-6.731 2.473-8.815 3.212zm32.564-12.752c-18.274-2.276-35.446-10.646-48.527-23.729-13.083-13.082-21.453-30.255-23.729-48.528 28.92-67.563 71.25-131.101 126.032-189.253l23.969 23.969c-10.128 12.462-18.403 25.544-24.336 38.593-1.714 3.768-.048 8.212 3.72 9.925 3.769 1.715 8.211.048 9.925-3.72 5.222-11.485 12.467-23.047 21.343-34.146l66.234 66.234c-15.128 12.105-31.027 21.132-46.14 26.039-18.885 6.13-34.467 4.899-42.746-3.382-6.735-6.734-7.611-16.836-7.16-24.124.256-4.132-2.885-7.688-7.016-7.944-4.137-.261-7.688 2.886-7.944 7.017-.921 14.865 3.063 27.193 11.521 35.651 7.873 7.873 18.793 11.623 31.509 11.622 22.863-.002 51.517-12.142 78.639-34.215l23.961 23.961c-58.154 54.78-121.692 97.111-189.255 126.03zm-32.515-369.001c-2.98-2.98-2.98-7.829-.001-10.81 1.491-1.49 3.449-2.236 5.406-2.236 1.958 0 3.915.745 5.404 2.236l324.76 324.76c2.981 2.98 2.981 7.829 0 10.81-2.98 2.981-7.829 2.982-10.81 0zm408.862 367.522-30.53 30.53c-2.682 2.682-7.044 2.682-9.725 0l-64.122-64.121c-3.058-3.057-5.104-6.92-5.915-11.169l-.707-3.7 16.297 16.297c4.413 4.412 10.208 6.618 16.004 6.618 5.797 0 11.592-2.206 16.005-6.618 8.825-8.825 8.825-23.185 0-32.01l-16.297-16.297 3.7.707c4.249.811 8.111 2.856 11.169 5.916l64.121 64.12c2.682 2.682 2.682 7.046 0 9.727z"/></g></svg>