<svg id="Capa_1" enable-background="new 0 0 367.157 367.157" height="512" viewBox="0 0 367.157 367.157" width="512" xmlns="http://www.w3.org/2000/svg"><g><g><g><path d="m237.62 43.533c-9.034-9.055-23.698-9.073-32.753-.039-6.729 6.713-8.673 16.857-4.903 25.583l-36.88 36.88c-.18.193-.347.397-.5.612-.1.124-.208.232-.3.364-.306.438-.561.909-.76 1.404v.032l-17.12 44.036-132.928 132.912c-15.297 15.329-15.297 40.147 0 55.476l14.888 14.888c15.327 15.301 40.149 15.301 55.476 0l132.912-132.912 44.036-17.12h.032c.495-.2.966-.455 1.404-.76.132-.092.244-.2.368-.3.213-.154.416-.321.608-.5l36.88-36.88c11.742 5.074 25.373-.332 30.447-12.073 3.771-8.726 1.827-18.869-4.903-25.583zm-201.356 302.24-14.88-14.88c-9.836-9.86-9.836-25.82 0-35.68l1.724-1.724 50.572 50.572-1.724 1.724c-9.865 9.84-25.834 9.835-35.692-.012zm47.304-11.6-50.584-50.584 117.392-117.376 50.568 50.568zm129.016-125.572-54-54 12.112-31.148 73.02 73.036zm43.684-19.376-78.32-78.32 30.724-30.732 78.312 78.312zm57.472-36.8c-3.591 3.58-9.401 3.58-12.992 0l-86-86c-3.79-3.384-4.12-9.199-.737-12.99 3.384-3.791 9.199-4.12 12.99-.737.259.231.504.476.735.735l86 86c3.58 3.594 3.574 9.408-.012 12.996z"/><path d="m136.584 206.801-14.48 14.48c-6.552 6.57-6.552 17.202 0 23.772 6.571 6.55 17.201 6.55 23.772 0l14.476-14.48c6.564-6.563 6.565-17.206.002-23.77-6.564-6.565-17.206-6.566-23.77-.002zm15.284 15.288-14.484 14.484c-1.878 1.878-4.922 1.878-6.8 0s-1.878-4.922 0-6.8l14.48-14.476c1.878-1.878 4.922-1.878 6.8 0s1.878 4.922 0 6.8z"/><path d="m307.784 66.385c1.856.002 3.636-.735 4.948-2.048l13.784-13.788c2.733-2.733 2.733-7.163 0-9.896s-7.163-2.733-9.896 0l-13.788 13.784c-2.733 2.735-2.731 7.167.004 9.899 1.312 1.312 3.092 2.049 4.948 2.049z"/><path d="m256.4 32.597c.594.158 1.206.238 1.82.24 3.169.001 5.944-2.127 6.764-5.188l5.048-18.832c1.002-3.735-1.213-7.574-4.948-8.576s-7.574 1.213-8.576 4.948l-5.048 18.832c-1.001 3.732 1.209 7.569 4.94 8.576z"/><path d="m366.916 102.085c-1.001-3.735-4.84-5.952-8.576-4.952l-18.832 5.04c-3.736.995-5.957 4.831-4.962 8.566.817 3.067 3.596 5.2 6.77 5.198.614-.002 1.226-.082 1.82-.24l18.832-5.048c3.729-1.002 5.943-4.833 4.948-8.564z"/></g></g></g></svg>