<svg id="line" enable-background="new 0 0 100 100" height="512" viewBox="0 0 100 100" width="512" xmlns="http://www.w3.org/2000/svg"><path d="m48.494 80.746c.847.763 2.151.775 3.012 0 1.119-1.008 27.437-24.898 27.437-43.803-.001-15.96-12.985-28.943-28.943-28.943s-28.942 12.983-28.942 28.942c0 18.906 26.317 42.796 27.436 43.804zm1.506-68.246c13.477 0 24.442 10.964 24.442 24.442 0 14.503-18.905 33.727-24.442 39.044-5.54-5.316-24.442-24.527-24.442-39.044 0-13.478 10.965-24.442 24.442-24.442z"/><path d="m61.25 36.942c0-6.204-5.048-11.25-11.25-11.25s-11.25 5.046-11.25 11.25 5.048 11.25 11.25 11.25 11.25-5.046 11.25-11.25zm-18 0c0-3.722 3.029-6.75 6.75-6.75s6.75 3.028 6.75 6.75-3.029 6.75-6.75 6.75-6.75-3.027-6.75-6.75z"/><path d="m68.653 69.031c-2.804-1.003-4.318 3.223-1.529 4.233 4.515 1.632 7.318 3.857 7.318 5.808 0 3.519-9.299 8.427-24.442 8.427s-24.442-4.909-24.442-8.427c0-1.951 2.804-4.176 7.318-5.808 2.783-1.008 1.283-5.233-1.529-4.233-6.636 2.399-10.289 5.965-10.289 10.042 0 8.396 14.912 12.927 28.942 12.927s28.942-4.531 28.942-12.927c0-4.077-3.653-7.642-10.289-10.042z"/></svg>