<svg xmlns="http://www.w3.org/2000/svg" height="966pt" version="1.1" viewBox="-4 0 966 966.24849" width="966pt">
<g id="surface1">
<path d="M 944.710938 819.515625 L 709.601562 584.40625 C 698.703125 573.503906 681.035156 573.503906 670.136719 584.40625 L 634.46875 620.082031 L 612.300781 597.917969 L 681.226562 528.964844 C 683.5625 526.695312 685.503906 524.066406 686.988281 521.171875 C 696.871094 502.621094 693.546875 479.800781 678.789062 464.851562 L 501.5 287.609375 C 483.117188 269.308594 453.402344 269.308594 435.019531 287.609375 L 368.535156 354.097656 L 346.367188 331.984375 L 370.980469 307.386719 C 373.316406 305.121094 375.257812 302.488281 376.742188 299.601562 C 386.621094 281.050781 383.296875 258.234375 368.535156 243.273438 L 133.417969 8.15625 C 122.523438 -2.71875 104.871094 -2.71875 93.980469 8.15625 L 11.535156 90.6875 C 9.199219 92.957031 7.242188 95.585938 5.753906 98.472656 C -4.113281 117.027344 -0.78125 139.832031 13.972656 154.789062 L 235.558594 376.355469 C 253.929688 394.6875 283.675781 394.6875 302.046875 376.355469 L 324.203125 354.207031 L 346.375 376.355469 L 277.421875 445.308594 C 275.09375 447.570312 273.144531 450.203125 271.667969 453.09375 C 261.800781 471.640625 265.125 494.449219 279.886719 509.390625 L 357.449219 586.957031 L 333.097656 611.316406 C 315.214844 603.160156 294.175781 606.671875 279.90625 620.183594 C 271.054688 628.890625 266.117188 640.8125 266.21875 653.226562 C 266.214844 653.296875 266.214844 653.375 266.21875 653.445312 C 266.214844 653.511719 266.214844 653.574219 266.21875 653.648438 C 266.175781 679.1875 286.6875 700.011719 312.238281 700.359375 L 313.542969 700.359375 C 325.859375 700.367188 337.664062 695.445312 346.332031 686.691406 C 360.339844 672.597656 363.957031 651.226562 355.378906 633.304688 L 379.6875 608.984375 L 457.257812 686.570312 C 475.632812 704.871094 505.355469 704.871094 523.734375 686.570312 L 590.222656 620.082031 L 612.390625 642.230469 L 587.765625 666.847656 C 585.433594 669.085938 583.488281 671.6875 582.007812 674.5625 C 572.125 693.105469 575.449219 715.921875 590.222656 730.875 L 811.75 952.476562 C 830.105469 970.839844 859.882812 970.839844 878.246094 952.476562 L 947.160156 883.566406 C 949.496094 881.296875 951.441406 878.667969 952.941406 875.78125 C 962.773438 857.242188 959.449219 834.460938 944.710938 819.515625 Z M 281.152344 350.121094 C 278.230469 353.050781 274.269531 354.6875 270.140625 354.6875 C 266 354.6875 262.042969 353.050781 259.121094 350.121094 L 38.929688 129.910156 C 32.855469 123.824219 32.855469 113.964844 38.929688 107.890625 L 104.984375 41.839844 C 107.90625 38.921875 111.867188 37.273438 116.003906 37.273438 C 120.128906 37.273438 124.101562 38.921875 127.019531 41.839844 L 347.222656 262.042969 C 353.296875 268.121094 353.296875 277.976562 347.222656 284.0625 Z M 316.488281 662.441406 C 315.65625 662.660156 314.808594 662.808594 313.960938 662.886719 C 309.910156 662.871094 306.046875 661.269531 303.191406 658.414062 C 300.203125 655.453125 298.578125 651.398438 298.703125 647.199219 C 298.664062 643.132812 300.277344 639.242188 303.191406 636.394531 C 307.714844 632.109375 314.3125 630.835938 320.105469 633.109375 C 322.019531 633.835938 323.753906 634.964844 325.203125 636.414062 C 326.667969 637.878906 327.828125 639.621094 328.609375 641.550781 C 329.359375 643.414062 329.742188 645.402344 329.75 647.417969 C 329.75 651.542969 328.117188 655.511719 325.203125 658.425781 C 322.78125 660.632812 319.730469 662.035156 316.488281 662.441406 Z M 501.355469 658.398438 C 495.277344 664.472656 485.425781 664.472656 479.335938 658.398438 L 303.191406 482.246094 C 297.101562 476.164062 297.101562 466.308594 303.191406 460.230469 L 457.335938 306.078125 C 463.414062 299.996094 473.269531 299.996094 479.355469 306.078125 L 655.488281 482.246094 C 661.566406 488.328125 661.566406 498.183594 655.488281 504.265625 Z M 919.734375 856.59375 L 853.691406 922.644531 C 850.773438 925.570312 846.804688 927.210938 842.675781 927.210938 C 838.539062 927.210938 834.578125 925.570312 831.65625 922.644531 L 611.449219 702.445312 C 605.375 696.367188 605.375 686.503906 611.449219 680.425781 L 677.523438 614.363281 C 680.445312 611.4375 684.402344 609.792969 688.542969 609.792969 C 692.671875 609.792969 696.640625 611.4375 699.554688 614.363281 L 919.734375 834.578125 C 925.816406 840.664062 925.816406 850.515625 919.734375 856.59375 Z M 919.734375 856.59375 " style=" stroke:none;fill-rule:nonzero;fill:rgb(0%,0%,0%);fill-opacity:1;" />
<path d="M 446.304688 471.234375 L 468.316406 449.210938 L 512.367188 493.253906 L 490.351562 515.269531 Z M 446.304688 471.234375 " style=" stroke:none;fill-rule:nonzero;fill:rgb(0%,0%,0%);fill-opacity:1;" />
<path d="M 413.289062 438.210938 L 435.308594 416.195312 L 457.328125 438.210938 L 435.308594 460.230469 Z M 413.289062 438.210938 " style=" stroke:none;fill-rule:nonzero;fill:rgb(0%,0%,0%);fill-opacity:1;" />
<path d="M 501.355469 526.285156 L 523.382812 504.265625 L 545.390625 526.289062 L 523.371094 548.308594 Z M 501.355469 526.285156 " style=" stroke:none;fill-rule:nonzero;fill:rgb(0%,0%,0%);fill-opacity:1;" />
<path d="M 314.289062 849.824219 C 202.496094 849.824219 111.867188 759.195312 111.867188 647.402344 C 111.867188 638.808594 104.890625 631.832031 96.296875 631.832031 C 87.695312 631.832031 80.730469 638.808594 80.730469 647.402344 C 80.730469 776.398438 185.292969 880.960938 314.289062 880.960938 C 322.882812 880.960938 329.859375 873.996094 329.859375 865.394531 C 329.859375 856.800781 322.882812 849.824219 314.289062 849.824219 Z M 314.289062 849.824219 " style=" stroke:none;fill-rule:nonzero;fill:rgb(0%,0%,0%);fill-opacity:1;" />
<path d="M 314.195312 787.511719 C 277.019531 787.539062 241.359375 772.777344 215.066406 746.496094 C 188.789062 720.207031 174.03125 684.542969 174.058594 647.375 C 174.058594 638.777344 167.085938 631.800781 158.488281 631.800781 C 149.890625 631.800781 142.914062 638.777344 142.914062 647.375 C 142.886719 692.808594 160.925781 736.386719 193.046875 768.511719 C 225.183594 800.636719 268.761719 818.675781 314.195312 818.652344 C 322.789062 818.652344 329.765625 811.683594 329.765625 803.078125 C 329.765625 794.480469 322.789062 787.511719 314.195312 787.511719 Z M 314.195312 787.511719 " style=" stroke:none;fill-rule:nonzero;fill:rgb(0%,0%,0%);fill-opacity:1;" />
<path d="M 314.195312 731.378906 L 313.753906 731.378906 C 270.960938 731.195312 236.390625 696.433594 236.433594 653.648438 C 236.46875 645.046875 229.53125 638.046875 220.929688 638.007812 C 212.332031 637.964844 205.332031 644.910156 205.292969 653.511719 C 205.179688 713.5625 253.75 762.339844 313.808594 762.503906 L 314.289062 762.503906 C 322.882812 762.503906 329.859375 755.53125 329.859375 746.933594 C 329.859375 738.335938 322.882812 731.359375 314.289062 731.359375 Z M 314.195312 731.378906 " style=" stroke:none;fill-rule:nonzero;fill:rgb(0%,0%,0%);fill-opacity:1;" />
</g>
</svg>