<svg id="GPS" enable-background="new 0 0 128 128" height="512" viewBox="0 0 128 128" width="512" xmlns="http://www.w3.org/2000/svg"><g><path id="_x36_" d="m89.169 42.884-23.44 39.68c-.566.936-1.786 1.275-2.75.709-.312-.198-.566-.454-.708-.737l-23.44-39.652c-.028-.057-.057-.114-.085-.142-1.134-2.097-2.041-4.336-2.636-6.689-.624-2.324-.936-4.733-.936-7.228 0-7.965 3.231-15.164 8.446-20.379 5.216-5.215 12.416-8.446 20.38-8.446 7.965 0 15.164 3.231 20.38 8.446 5.215 5.215 8.446 12.415 8.446 20.379 0 2.494-.341 4.903-.936 7.228-.624 2.409-1.531 4.677-2.693 6.774zm-25.169 34.75 21.712-36.791h.028c.992-1.814 1.758-3.742 2.296-5.782.511-1.984.793-4.054.793-6.236 0-6.859-2.777-13.067-7.284-17.545-4.478-4.507-10.686-7.284-17.545-7.284s-13.066 2.777-17.544 7.284c-4.508 4.478-7.285 10.686-7.285 17.545 0 2.182.284 4.251.794 6.236.511 2.012 1.304 3.939 2.268 5.726l.028.057z"/><path id="_x35_" d="m64 12.244c4.564 0 8.73 1.871 11.707 4.847 3.004 3.004 4.874 7.143 4.874 11.734 0 4.563-1.87 8.729-4.874 11.734-2.977 2.977-7.143 4.847-11.707 4.847-4.592 0-8.729-1.871-11.734-4.847-3.004-3.005-4.847-7.171-4.847-11.734 0-4.592 1.843-8.73 4.847-11.734 3.005-2.976 7.142-4.847 11.734-4.847zm0 9.297c2.013 0 3.827.822 5.158 2.126.028.057.057.085.113.142 1.248 1.304 2.013 3.061 2.013 5.017 0 2.012-.821 3.826-2.154 5.13l.028.028c-1.331 1.304-3.146 2.125-5.158 2.125s-3.826-.822-5.13-2.125l-.028-.028c-1.304-1.304-2.126-3.146-2.126-5.13 0-2.013.822-3.826 2.126-5.13v-.028h.028c1.304-1.305 3.117-2.127 5.13-2.127zm2.325 4.96c-.596-.596-1.417-.963-2.325-.963-.907 0-1.729.368-2.324.963-.595.595-.963 1.417-.963 2.324s.368 1.729.963 2.324c.596.595 1.417.964 2.324.964.908 0 1.729-.369 2.325-.964.595-.595.964-1.417.964-2.324 0-.879-.341-1.672-.879-2.239-.028-.028-.056-.057-.085-.085zm6.575-6.576c-2.296-2.268-5.441-3.685-8.9-3.685-3.486 0-6.633 1.417-8.899 3.685-2.268 2.267-3.685 5.414-3.685 8.9s1.417 6.604 3.685 8.9c2.267 2.268 5.413 3.685 8.899 3.685 3.459 0 6.604-1.417 8.9-3.685 2.268-2.296 3.685-5.414 3.685-8.9s-1.417-6.633-3.685-8.9z"/><path id="_x34_" d="m17.856 8.503c.511-.964 1.729-1.333 2.693-.794.964.51 1.332 1.729.793 2.692-.736 1.361-1.389 2.778-1.983 4.252-.596 1.445-1.077 2.919-1.503 4.507-1.275 4.677-1.672 9.41-1.275 13.973.426 4.762 1.673 9.354 3.685 13.577.454.992.028 2.183-.963 2.636-.992.482-2.183.057-2.664-.936-2.184-4.677-3.572-9.722-4.025-14.937-.453-5.017-.028-10.204 1.389-15.362.453-1.672.992-3.316 1.645-4.932.65-1.616 1.387-3.174 2.208-4.676zm88.774 1.898c-.511-.963-.142-2.182.822-2.692.962-.539 2.153-.17 2.691.794.822 1.502 1.56 3.061 2.211 4.676.652 1.616 1.19 3.26 1.645 4.932 1.389 5.158 1.813 10.345 1.389 15.362-.453 5.215-1.843 10.26-4.025 14.937-.481.992-1.672 1.417-2.664.936-.991-.454-1.417-1.644-.963-2.636 1.983-4.223 3.259-8.815 3.655-13.577.397-4.563.028-9.296-1.247-13.973-.425-1.587-.936-3.062-1.502-4.507-.595-1.474-1.247-2.891-2.012-4.252zm-7.711 7.37c-.425-1.021.029-2.211 1.049-2.636 1.021-.425 2.184.028 2.637 1.048.283.708.596 1.446.879 2.268.283.794.51 1.587.708 2.324.907 3.288 1.276 6.632 1.163 9.892-.086 3.373-.709 6.689-1.758 9.807-.34 1.048-1.474 1.615-2.522 1.275-1.049-.368-1.616-1.501-1.248-2.55.936-2.75 1.475-5.669 1.56-8.645.085-2.863-.255-5.811-1.049-8.73-.198-.766-.426-1.445-.624-2.069-.228-.651-.483-1.304-.795-1.984zm-73.523-1.587c.425-1.02 1.615-1.474 2.636-1.048.992.425 1.474 1.615 1.049 2.636-.313.68-.567 1.333-.794 1.984-.227.624-.425 1.303-.624 2.069-.793 2.919-1.133 5.867-1.048 8.73.085 2.976.623 5.895 1.559 8.645.34 1.049-.227 2.182-1.247 2.55-1.049.34-2.183-.227-2.522-1.275-1.077-3.118-1.673-6.434-1.786-9.807-.085-3.26.283-6.604 1.19-9.892.198-.737.426-1.53.709-2.324.283-.823.567-1.56.878-2.268z"/><path id="_x33_" d="m126.782 102.66c.992.426 1.473 1.588 1.049 2.608-.426 1.021-1.616 1.502-2.608 1.049l-18.083-7.682c-.312-.113-.623-.17-.936-.17-.283.028-.566.142-.878.313l-9.694 5.838c-.765.454-1.587.737-2.409.822-.794.085-1.587 0-2.409-.198l-22.022-5.754c-1.077-.283-1.701-1.36-1.445-2.438.283-1.049 1.389-1.701 2.437-1.417l22.052 5.725c.34.113.68.142.964.113.255-.028.51-.113.765-.283l9.694-5.839c.85-.51 1.757-.793 2.692-.85.936-.058 1.843.085 2.749.481zm-67.26-12.102c.935.538 1.275 1.757.708 2.721-.538.964-1.757 1.276-2.721.737l-13.18-7.624c-.341-.198-.681-.34-1.021-.368-.284-.029-.596.028-.879.142l-13.859 5.724c-1.105.453-2.267.567-3.4.368-1.105-.227-2.154-.765-3.033-1.587l-17.998-17.375c-.794-.765-.822-2.012-.057-2.806s2.041-.822 2.834-.057l17.998 17.347c.284.283.624.482.992.539.369.085.766.028 1.162-.113l13.832-5.727c.907-.368 1.842-.51 2.749-.425.964.085 1.843.396 2.693.879z"/><path id="_x32_" d="m64 87.072c2.184 0 4.139.878 5.584 2.324 1.417 1.416 2.296 3.4 2.296 5.555 0 2.183-.879 4.167-2.296 5.583-1.445 1.446-3.4 2.324-5.584 2.324-2.183 0-4.166-.878-5.584-2.324-1.417-1.416-2.295-3.4-2.295-5.583 0-2.154.878-4.139 2.295-5.555 1.418-1.446 3.401-2.324 5.584-2.324zm2.75 5.129c-.709-.68-1.672-1.134-2.75-1.134-1.077 0-2.041.454-2.749 1.134-.709.709-1.134 1.673-1.134 2.75s.425 2.069 1.134 2.75c.708.708 1.672 1.162 2.749 1.162 1.078 0 2.041-.454 2.75-1.162.709-.681 1.134-1.673 1.134-2.75s-.425-2.041-1.134-2.75z"/><path id="_x31_" d="m41.438 56.177c1.049.311 1.645 1.445 1.332 2.494-.312 1.049-1.417 1.673-2.494 1.333l-3.146-.936c-.142-.028-.254-.057-.396-.085v18.168c0 1.105-.879 1.984-1.984 1.984s-2.013-.879-2.013-1.984v-17.714c-.057.028-.113.085-.198.113l-26.076 14.058c-.624.34-1.219 1.049-1.673 1.871-.481.906-.793 1.898-.793 2.834v43.734c0 .425.057.765.17.963l.028.058c.113-.029.227-.058.368-.143l26.104-14.086c.681-.368 1.36-.652 2.069-.851v-13.348c0-1.105.907-2.013 2.013-2.013s1.984.907 1.984 2.013v13.095c.509.057 1.02.17 1.529.34l52.608 15.645.17.057v-12.897c0-1.104.907-2.012 2.013-2.012s1.984.907 1.984 2.012v12.557c.142-.057.283-.113.396-.17l26.104-14.087c.623-.34 1.219-1.021 1.672-1.87.482-.879.794-1.899.794-2.807v-43.734c0-.539-.085-1.162-.708-.822l-25.962 14.001c-.737.396-1.502.709-2.296.907v19.472c0 1.105-.879 1.984-1.984 1.984s-2.013-.879-2.013-1.984v-19.302c-.425-.057-.879-.17-1.304-.283l-9.778-2.92c-1.049-.312-1.644-1.417-1.332-2.494.312-1.048 1.417-1.644 2.494-1.332l9.75 2.919c.822.227 1.587.313 2.324.227.766-.085 1.503-.312 2.239-.708l26.104-14.087c.766-.425 1.559-.623 2.268-.623.766 0 1.474.227 2.098.623.596.369 1.077.879 1.417 1.559.426.765.68 1.729.68 2.863v43.734c0 1.559-.51 3.26-1.303 4.705-.794 1.502-1.956 2.777-3.288 3.486l-26.076 14.087c-1.162.624-2.948 1.219-4.28 1.219-1.19 0-2.183-.113-3.316-.453l-52.607-15.647c-.736-.227-1.416-.312-2.097-.283-.085.028-.17.028-.255.028-.737.085-1.503.312-2.239.708l-26.076 14.088c-.766.425-1.56.623-2.296.623-.737 0-1.446-.198-2.069-.595-.595-.369-1.077-.907-1.445-1.56-.397-.792-.653-1.756-.653-2.861v-43.735c0-1.587.482-3.288 1.276-4.733.821-1.475 1.983-2.778 3.287-3.487l26.104-14.058c2.438-1.332 4.96-1.587 7.596-.793z"/></g></svg>