<svg height="512pt" viewBox="0 0 512 512" width="512pt" xmlns="http://www.w3.org/2000/svg"><path d="m256 512c140.960938 0 256-115.050781 256-256 0-140.960938-115.050781-256-256-256-140.960938 0-256 115.050781-256 256 0 140.960938 115.050781 256 256 256zm-225.488281-241h31.058593c7.308594 95.589844 83.839844 172.121094 179.429688 179.429688v31.058593c-112.6875-7.421875-203.066406-97.800781-210.488281-210.488281zm61.175781-30c7.160156-79.035156 70.277344-142.152344 149.3125-149.3125v29.3125h30v-29.3125c79.035156 7.160156 142.152344 70.277344 149.3125 149.3125h-29.3125v29.988281h29.3125c-7.160156 79.035157-70.277344 142.164063-149.3125 149.324219v-29.3125h-30v29.3125c-79.035156-7.160156-142.152344-70.277344-149.3125-149.3125h29.3125v-30zm179.3125 240.488281v-31.058593c95.589844-7.308594 172.121094-83.847657 179.429688-179.441407h31.058593c-7.421875 112.691407-97.800781 203.078125-210.488281 210.5zm210.488281-240.488281h-31.058593c-7.308594-95.589844-83.839844-172.121094-179.429688-179.429688v-31.058593c112.6875 7.421875 203.066406 97.800781 210.488281 210.488281zm-240.488281-210.488281v31.058593c-95.589844 7.308594-172.121094 83.839844-179.429688 179.429688h-31.058593c7.421875-112.6875 97.800781-203.066406 210.488281-210.488281zm0 0"/><path d="m364.570312 147.429688-162.855468 54.285156-54.285156 162.855468 162.855468-54.285156zm-72.699218 123.226562-50.527344-50.527344 75.792969-25.265625zm-71.742188-29.3125 50.527344 50.527344-75.792969 25.265625zm0 0"/></svg>