<?xml version="1.0" encoding="UTF-8"?>
<svg xmlns="http://www.w3.org/2000/svg" id="Layer_2" data-name="Layer 2" viewBox="0 0 50 50" width="512" height="512"><path d="M33,32H17a4.00427,4.00427,0,0,0-4,4v4a4.00427,4.00427,0,0,0,4,4H33a4.00427,4.00427,0,0,0,4-4V36A4.00427,4.00427,0,0,0,33,32Zm2,8a2.00229,2.00229,0,0,1-2,2H17a2.00229,2.00229,0,0,1-2-2V36a2.00229,2.00229,0,0,1,2-2H33a2.00229,2.00229,0,0,1,2,2ZM7,45h.999c.0196,0,.03589-.01007.05524-.01117A4.02092,4.02092,0,0,0,11.91992,48H38.08008a4.02094,4.02094,0,0,0,3.8656-3.0108c.01868.001.03442.0108.05334.0108H43a5.00588,5.00588,0,0,0,5-5V31a5.00588,5.00588,0,0,0-5-5H41.93048c-.27331-5.724-.83435-11.02087-1.89892-14.076A4.99606,4.99606,0,0,0,35.12109,6H32V5a3.00328,3.00328,0,0,0-3-3H21a3.00328,3.00328,0,0,0-3,3V6H14.87891a4.99577,4.99577,0,0,0-4.9112,5.919C8.902,14.97577,8.34088,20.27454,8.06787,26H7a5.00588,5.00588,0,0,0-5,5v9A5.00588,5.00588,0,0,0,7,45Zm33.0791-.9502A1.98329,1.98329,0,0,1,38.08008,46H11.91992a1.98338,1.98338,0,0,1-1.999-1.95068c-.13385-6.14051-.24487-19.40717.99542-27.36927l.62079,3.10413A4.00977,4.00977,0,0,0,15.459,23H16v3a1,1,0,0,0,2,0V23H32v3a1,1,0,0,0,2,0V23h.541a4.00982,4.00982,0,0,0,3.92187-3.21533l.61963-3.09863C40.32166,24.64667,40.2121,37.90979,40.0791,44.0498ZM43,28a3.00328,3.00328,0,0,1,3,3v9a3.00328,3.00328,0,0,1-3,3h-.89911c.0791-4.25085.10523-9.711-.08624-15ZM20,5a1.001,1.001,0,0,1,1-1h8a1.001,1.001,0,0,1,1,1V6H20ZM12.55957,9.09814A2.98852,2.98852,0,0,1,14.87891,8H35.12109a3.0006,3.0006,0,0,1,2.94141,3.58838L36.502,19.39258A2.00533,2.00533,0,0,1,34.541,21H34V19a1,1,0,0,0-2,0v2H18V19a1,1,0,0,0-2,0v2h-.541a2.00528,2.00528,0,0,1-1.96093-1.60791L11.9375,11.58838A2.98935,2.98935,0,0,1,12.55957,9.09814ZM4,31a3.00328,3.00328,0,0,1,3-3h.98383C7.79272,33.28937,7.8194,38.74945,7.899,43H7a3.00328,3.00328,0,0,1-3-3Z"/></svg>
