<svg id="Layer_1" viewBox="0 0 512 512" xmlns="http://www.w3.org/2000/svg" data-name="Layer 1"><path d="m500.789 219.904c-5.294-4.378-11.924-6.081-18.677-4.791l-62.926 12.022c-9.006 1.722-15.904 8.674-17.831 17.333h-60.754c-.884-38.274-6.153-76.661-15.837-116.281-5.706-23.343-15.052-56.578-27.173-82.351-13.007-27.657-26.503-41.104-41.258-41.104h-.21c-14.754 0-28.251 13.448-41.258 41.104-12.121 25.772-21.467 59.008-27.173 82.351-9.685 39.62-14.953 78.007-15.837 116.281h-61.208c-1.927-8.659-8.826-15.611-17.832-17.333l-62.927-12.023c-6.75-1.287-13.381.413-18.675 4.792-5.295 4.379-8.211 10.575-8.211 17.446v30.235c0 6.871 2.916 13.067 8.211 17.446 4.141 3.424 9.099 5.211 14.292 5.211 1.447 0 2.913-.139 4.384-.42l62.926-12.022c9.005-1.722 15.903-8.674 17.831-17.332h61.095c.364 40.619 5.67 81.286 15.95 123.343 5.706 23.343 15.052 56.579 27.173 82.352 13.007 27.657 26.503 41.105 41.258 41.104h.21c14.754 0 28.252-13.448 41.258-41.104 12.121-25.773 21.467-59.009 27.173-82.352 10.28-42.057 15.587-82.724 15.95-123.343h60.641c1.927 8.658 8.825 15.61 17.831 17.332l62.927 12.023c1.471.28 2.936.419 4.382.419 5.193 0 10.153-1.787 14.293-5.211 5.295-4.379 8.211-10.575 8.211-17.446v-30.235c0-6.871-2.916-13.067-8.211-17.446zm-297.556-87.918c18.793-76.878 40.096-111.253 52.896-111.253h.098.098c12.801 0 34.105 34.38 52.896 111.253 9.368 38.324 14.477 75.459 15.358 112.482h-19.101c-.407-7.861-1.071-16.045-2-24.538-1.675-15.325-8.146-68.354-21.081-107.287-2.418-7.279-9.777-29.434-26.159-29.925-.159-.006-.32-.006-.479 0-16.381.491-23.74 22.646-26.158 29.925-12.934 38.934-19.405 91.962-21.081 107.287-.929 8.493-1.592 16.677-2 24.538h-18.647c.881-37.023 5.99-74.158 15.358-112.482zm85.949 150.466c-2.687 32.809-18.188 47.369-32.528 47.369-.158 0-.317-.002-.475-.006-.06 0-.12-.002-.18-.002s-.12 0-.179.002c-.158.004-.316.006-.475.006-14.339 0-29.841-14.562-32.528-47.369-.563-6.876-.816-14.22-.77-21.983h4.365c3.528 13.034 15.453 22.653 29.587 22.653s26.059-9.619 29.587-22.653h4.365c.047 7.763-.206 15.107-.77 21.983zm-47.835-29.983c0-8.08 6.573-14.653 14.653-14.653s14.653 6.573 14.653 14.653-6.573 14.653-14.653 14.653-14.653-6.573-14.653-14.653zm44.24-8c-3.528-13.034-15.453-22.653-29.587-22.653s-26.059 9.619-29.587 22.653h-3.869c.396-7.3 1.019-14.902 1.883-22.8 4.356-39.847 11.967-78.718 20.359-103.98 4.739-14.267 9.262-18.568 11.214-18.949 1.953.381 6.476 4.683 11.215 18.949 8.392 25.263 16.003 64.134 20.359 103.98.864 7.897 1.488 15.5 1.883 22.8h-3.869zm-195.776 17.617-62.924 12.021c-2.095.4-3.835-.046-5.479-1.405-1.643-1.358-2.408-2.984-2.408-5.116v-30.235c0-2.132.765-3.758 2.408-5.116 1.259-1.041 2.575-1.547 4.063-1.547.454 0 .925.048 1.415.141l62.925 12.022c1.26.241 2.36.819 3.24 1.618h-18.792c-4.418 0-8 3.582-8 8s3.582 8 8 8h18.791c-.88.799-1.979 1.376-3.239 1.617zm219.41 117.927c-18.792 76.879-40.096 111.254-52.896 111.254h-.195c-12.8 0-34.104-34.38-52.896-111.254-9.963-40.761-15.112-80.177-15.475-119.544h18.292c-.047 8.203.223 15.983.822 23.29 3.522 43.002 26.736 62.062 48.475 62.062.218 0 .437-.002.654-.005.217.003.436.005.654.005 21.737 0 44.954-19.062 48.475-62.062.599-7.307.869-15.087.822-23.29h18.746c-.363 39.367-5.512 78.783-15.475 119.544zm183.779-112.427c0 2.132-.765 3.758-2.408 5.116-1.644 1.359-3.385 1.803-5.478 1.406l-62.926-12.022c-1.26-.241-2.359-.818-3.239-1.617h18.791c4.418 0 8-3.582 8-8s-3.582-8-8-8h-18.792c.88-.799 1.979-1.377 3.24-1.618l62.924-12.021c2.094-.4 3.836.047 5.479 1.405s2.408 2.984 2.408 5.116v30.235z"/></svg>