<svg id="Capa_1" enable-background="new 0 0 512 512" viewBox="0 0 512 512" xmlns="http://www.w3.org/2000/svg"><g><path d="m132.844 256.002h75.245v15h-75.245z" transform="matrix(.081 -.997 .997 .081 -105.921 412.17)"/><path d="m423.478 344.531-14.709 2.941 10.206 51.029h-58.998l-14.001-173.104-14.951 1.209 21.845 270.065h-89.37v-247.818h-15v247.819h-89.369l14.565-180.065-14.951-1.209-6.722 83.104h-59.375l32.186-160.929c6.288-31.441 28.902-57.814 59.017-68.826l25.542-9.34c2.059 1.369 9.107 5.134 9.107 5.134v31.461h15v-23.816l15 7.646v38.67h-22.5v15h60v-15h-22.5v-38.67l15-7.646v23.816h15v-31.461s6.956-3.71 8.974-5.044l25.298 9.251c30.114 11.012 52.729 37.385 59.017 68.826l18.979 94.899 14.709-2.941-18.979-94.899c-7.307-36.533-33.583-67.177-68.573-79.973l-17.567-6.424c9.941-11.397 15.642-26.157 15.642-41.914v-31.118c0-41.355-33.645-75-75-75s-75 33.645-75 75v31.118c0 15.709 5.666 30.426 15.552 41.808l-17.854 6.529c-34.99 12.796-61.267 43.439-68.573 79.973l-35.773 178.87h76.458l-7.941 98.498h226.262l-7.94-98.498h76.081zm-146.814-222.837-20.664 10.694-20.664-10.693c-5.759-2.979-9.336-8.858-9.336-15.342v-30.127c0-16.542 13.458-30 30-30s30 13.458 30 30v30.127c0 6.483-3.577 12.362-9.336 15.341zm-80.664-46.49c0-33.084 26.916-60 60-60s60 26.916 60 60v31.118c0 18.452-10.212 35.12-26.651 43.498l-25.849 13.176v-17.6l20.059-10.379c10.757-5.568 17.441-16.551 17.441-28.664v-30.127c0-24.813-20.187-45-45-45s-45 20.187-45 45v30.127c0 12.113 6.684 23.097 17.441 28.664l20.059 10.379v17.6l-25.849-13.175c-16.439-8.379-26.651-25.047-26.651-43.499z"/><path d="m474.5 0c-20.678 0-37.5 16.822-37.5 37.5s16.822 37.5 37.5 37.5 37.5-16.822 37.5-37.5v-37.5zm22.5 37.5c0 12.406-10.094 22.5-22.5 22.5s-22.5-10.094-22.5-22.5 10.094-22.5 22.5-22.5h22.5z"/><path d="m391.565 159.067c20.678 0 37.5-16.822 37.5-37.5v-37.5h-37.5c-20.678 0-37.5 16.822-37.5 37.5s16.823 37.5 37.5 37.5zm0-60h22.5v22.5c0 12.406-10.094 22.5-22.5 22.5s-22.5-10.094-22.5-22.5 10.094-22.5 22.5-22.5z"/><path d="m369.922 12.708h42.155v15h-42.155z" transform="matrix(.707 -.707 .707 .707 100.208 282.371)"/><path d="m444.922 114.885h42.155v15h-42.155z" transform="matrix(.707 -.707 .707 .707 49.926 365.319)"/><path d="m121 75c20.678 0 37.5-16.822 37.5-37.5v-37.5h-37.5c-20.678 0-37.5 16.822-37.5 37.5s16.822 37.5 37.5 37.5zm0-60h22.5v22.5c0 12.406-10.094 22.5-22.5 22.5s-22.5-10.094-22.5-22.5 10.094-22.5 22.5-22.5z"/><path d="m75 84.067h-37.5c-20.678 0-37.5 16.822-37.5 37.5s16.822 37.5 37.5 37.5 37.5-16.822 37.5-37.5zm-15 37.5c0 12.406-10.094 22.5-22.5 22.5s-22.5-10.093-22.5-22.5 10.094-22.5 22.5-22.5h22.5z"/><path d="m16.516 39.885h42.154v15.001h-42.154z" transform="matrix(.707 -.707 .707 .707 -22.496 40.461)"/><path d="m91.516 114.885h42.154v15.001h-42.154z" transform="matrix(.707 -.707 .707 .707 -53.562 115.461)"/></g><g/><g/><g/><g/><g/><g/><g/><g/><g/><g/><g/><g/><g/><g/><g/></svg>