<svg id="Capa_1" enable-background="new 0 0 512.002 512.002" height="512" viewBox="0 0 512.002 512.002" width="512" xmlns="http://www.w3.org/2000/svg"><g><path d="m416.585 201.604-55.209-16.944v-79.285c0-58.104-47.272-105.375-105.375-105.375-58.104 0-105.375 47.271-105.375 105.375v79.285l-55.209 16.944-65.291 110.547v169.724h60.25v30.127h331.25v-30.127h60.25v-169.724zm-235.959-96.229c0-41.562 33.813-75.375 75.375-75.375s75.375 33.813 75.375 75.375v80.115l-30.255 11.771v-91.888c0-24.881-20.242-45.123-45.123-45.123s-45.123 20.242-45.123 45.123v91.886l-30.25-11.769v-80.115zm75.375 109.439-15.125-5.884v-103.557c0-8.339 6.784-15.123 15.123-15.123s15.123 6.784 15.123 15.123v103.559zm-135.625 101.436h-30v135.625h-30.25v-131.526l55.209-93.477 49.705-15.255 75.961 29.551v240.833h-120.625zm331.5 135.625h-30.25v-135.625h-30v165.752h-120.625v-240.834l75.961-29.551 49.705 15.255 55.209 93.477z"/><path d="m322.346 376.792h30v59.666h-30z" transform="matrix(.707 -.707 .707 .707 -188.721 357.638)"/><path d="m144.823 391.626h59.666v30h-59.666z" transform="matrix(.707 -.707 .707 .707 -236.372 242.598)"/></g></svg>