<svg id="Icons" enable-background="new 0 0 512 512" height="512" viewBox="0 0 512 512" width="512" xmlns="http://www.w3.org/2000/svg"><path d="m415.3 240.2c-1.7-27.3-.4-66.3-10.8-69.4-1.8-.9-7.5-3.8-15.2-7.7 15.8-5.5 26.7-23 26-39.3-.9-26.1-17.3-32-33.2-34.3-18.4-2.7-30 8.2-34.7 32.4-1.4 7.3-2.2 13.7-1.8 19.3-9.4-4.7-18-9.1-25.5-12.9-2.5-3.2-9.9-12.8-18.2-22.6-10.7-12.5-17.6-19-22.4-22.3 6.9-8.7 13.8-16.9 19.7-23.9 2.1-2.5 1.8-6.3-.7-8.5-2.5-2.1-6.3-1.8-8.5.7-10.9 12.8-65.3 77.6-67.6 97.7-2.1 18.7-20.1 31.7-27.7 36.5-12.2 7.6-32.7 25.8-33.5 26.6-1.1 1-1.9 2.4-2 4 0 .2-2.2 25.1-5.1 38.8-2.7 12.8 3.2 27 6 32.8-3.6 9.1-13.9 34.6-15.1 45.2-.6 7.2 2.7 19.1 7.3 35.1 2 6.9 4.7 16.2 4.7 18.5-.8 7.1-.8 48.9-.8 53.6.3 7.9 11.7 8 12 0 0-18.5.2-47.7.7-52.4.7-3.2-2.4-14.1-5.7-25.2 7.1 6.9 17.2 15.7 26.1 10.3 12.4-8.6 55.2-45.4 64.4-49.2 10.8-2.7 50.8-5.9 62.6-8.1-.8 8.8-1.4 23.1 1 34.8 2.6 11.7 9.8 12.9 14 13.1 8.8 0 21.3-8.4 25.9-21.2 4.3-10.2-7-23.2-19.7-32 1.3-.6 2.3-1.3 3.1-2 4.7-4.2 15.1-18.3 24.1-31-3.1 26.6-8.8 46.8 15.5 46.7 18.4 1.7 36.8-75.6 35.1-84.1zm-56-116.1c3.6-19 10.3-23.1 17.5-23.1 15.2 1.1 26.4 5.4 26.6 23.2.3 14.6-11.8 31.5-29.4 28.4-11.1-2.1-13.9-5.1-15.1-7.5-1.9-3.6-1.7-9.9.4-21zm-13.4 214.4c-2.7 7.6-10.9 13.5-14.7 13.2-.4 0-1.4-.1-2.1-3.4-1.9-9.5-1.5-21.4-.9-29.6 10.4 7.2 19.1 15.9 17.7 19.8zm-34.5-201.9c1.9 2.2 1.9 1.5 5.6 3.5l-9.1 15.7c-11-9.3-19.6-18.8-25-30.2-9.8-18.3-13.7-26.3-10.6-32.6 7.4 4.6 25.2 25.1 39.1 43.6zm-110.3 59.5c11.3-7.1 30.6-22.3 33.3-45.3.8-6.8 12.4-24.4 26.7-43.5 2.2 6.9 6.4 14.6 11.4 24 12 26.5 47.7 49.3 63.1 59.3 1.2 3.7-3.3 17.5-9.9 30.8-17.9-4.2-58.1-13-68-10.9-9.3 1.7-49.1 20.8-58.9 23-6.2.2-23.7-2.8-29-2.3.5-4.7.9-8.8 1.2-11.2 5.2-4.6 20.7-18 30.1-23.9zm130.1 104.3c-11.7 3.8-26.3 4.9-39.8 6.6l-7.6-31.3c7-2.9 13.8-5.7 19.9-8.2 2.4-1 3.9-3.5 3.7-6.1s-2.2-4.8-4.8-5.3c-1.8-.4-9.5-2-18.4-3.8l7-26c10.8 2.1 23 4.7 34.6 7.4 10.5 11.8 12.4 34.2 5.4 66.7zm-78.8-54.3c-2.1-3-49 20.1-58.9 22.9-2.1-1.3-6.9-6.6-17.7-25.6 7.4.6 18.7 2.5 24.2 2 6.5 0 50.9-21.2 60.2-23.2 2.4-.5 9.5.3 19.1 1.9l-6.9 25.8c-9.3-1.9-17.7-3.5-20-3.8zm-80.2 43.9c.7-1.7.6-3.6-.3-5.2-.1-.2-8.5-15.3-6-27 .4-1.8.7-3.7 1.1-5.7 12.9 22.3 20 29.8 27.1 29.1 4.4.7 48.6-21.1 57.3-23.1 3.1.5 20.5 4 29.6 5.8-18.8 7.8-45.6 19-50.2 21.6-6 3.1-39.5 35.5-48.4 42-10.6-2.6-17.8-3.6-22.7-3.6 3.5-11.3 9.7-27.1 12.5-33.9zm77.3 22.7c-5.1.1-51.8 39.2-66.3 50.1-6.6-1.3-22.3-19.2-25.5-26.9 2.6-.3 10.8.3 23.8 3.8 3.6.9 6.2-.8 14.8-8.2 9.5-8 33.2-30.7 40.2-35.5 2.9-1.6 18.6-8.3 36-15.6l6.8 28c-16.1 1.7-25.6 2.8-29.8 4.3zm120.8-64.5c-6.8 10.1-16.1 23.6-24 34.3 2.9-24.9-.5-43.2-10.3-55.2 4.8-10.7 19-37.7 6.5-46.4-7.2-4.8-14.5-9.3-25.2-17.4l10.4-17.9c22.1 11.1 62.9 31.7 70.6 35.6 2 3.6 3.1 17 3.6 28.8-7 1.4-14 2.6-17.3 3.1-1.6-8.9-3.7-16.9-4.1-18.4-2.3-7.6-13.4-4.7-11.6 3.1 1.9 7.2 6.6 27.5 5.5 35.7-.5 3.8-1.7 8.4-3.1 13.6-.3.2-.6.6-1 1.1zm24.5 30.9c-6.7 20.6-12.6 30.9-15 33.2-3-.2-4.7-.4-5.2-.8-1.9-2.3.3-19.4 1.2-26.7 1.8-14 4.7-24.9 7-33.7 2.6-10.2 4.7-16.1 3.6-26.2 4.2-.6 10.8-1.8 16.1-2.8.2 7 .4 15.9.9 19.5.4 3.4-2.4 18.3-8.6 37.5z"/></svg>