<svg id="Capa_1" enable-background="new 0 0 512 512" height="512" viewBox="0 0 512 512" width="512" xmlns="http://www.w3.org/2000/svg"><g><path d="m381.307 106.786c-14.427-9.138-31.079-13.968-48.157-13.968h-62.15v30h62.149c11.385 0 22.486 3.22 32.104 9.312l80.03 50.688h-378.567l80.03-50.688c9.618-6.092 20.72-9.312 32.104-9.312h62.15v-30h-62.149c-17.078 0-33.73 4.83-48.157 13.968l-130.694 82.777v114.677c0 24.835 8.845 48.945 24.904 67.889 16.055 18.938 38.39 31.614 62.89 35.693 29.146 4.853 58.117 8.593 86.109 11.116 31.515 2.84 59.961-19.417 64.749-50.673l6.183-40.371c.842-5.498 5.229-9.726 10.429-10.052 5.852-.383 10.931 3.712 11.815 9.488l6.269 40.936c4.512 29.455 30.025 50.919 59.331 50.917 1.792 0 3.602-.081 5.418-.244 27.99-2.523 56.961-6.263 86.109-11.116 24.5-4.08 46.835-16.755 62.89-35.693 16.059-18.944 24.904-43.054 24.904-67.89v-114.677zm37.971 271.443c-28.41 4.73-56.63 8.374-83.875 10.83-15.78 1.423-30.007-9.707-32.401-25.335l-6.269-40.937c-3.253-21.236-21.917-36.227-43.349-34.887-19.176 1.204-35.242 16.114-38.204 35.453l-6.183 40.371c-2.395 15.628-16.623 26.756-32.401 25.336-27.248-2.456-55.468-6.1-83.875-10.83-36.343-6.052-62.721-37.169-62.721-73.99v-91.422h452v91.422c0 36.821-26.378 67.938-62.722 73.989z"/></g></svg>