<svg id="Layer_1" enable-background="new 0 0 68 68" height="512" viewBox="0 0 68 68" width="512" xmlns="http://www.w3.org/2000/svg"><g id="_x31_40"><path d="m23.7 33c-1.8 4.2-2.4 11.3-2.1 15.9 0 .4.4.7.7.7 11.1 0 22-1.7 32.8-2.8.2 0 .4-.2.6-.3.3-.4 0-.8-.1-1.1-2.9-7.9-4.2-9.6-4.4-10-1.8-3.3-3.7-6.6-6.3-9.1-7.9-7.4-16.9-3.5-21.2 6.7zm-.6 15.1c-.1-2.9.1-6.8.8-10.1l18.1-1.7c.2 0 .3 0 .5.1 3.7 2.5 7.5 6 10.9 9.2-10.2 1-20.2 2.4-30.3 2.5zm27-11.7c1.3 2.4 2.3 4.6 3.2 7-3.2-2.9-6.6-5.9-10-8.3 0 0-.1-.1-.1-.1l.1-8.2c3 2.5 4.9 6.1 6.8 9.6zm-8.2-10.6-.2 9-17.5 1.7c.3-1 .6-2 .9-2.8 1.7-4.2 5.3-8.9 10-9.6 2.4-.4 4.8.4 6.8 1.7z"/><path d="m47.6 9.2-.8 2.9c-.1.4.1.8.5.9s.8-.1.9-.5l.8-2.9c.1-.4-.1-.8-.5-.9s-.8.1-.9.5z"/><path d="m53.6 9.7c-.3-.3-.8-.3-1.1 0-1 1.1-1.9 2.3-2.5 3.6-.2.4 0 .8.3 1 .4.2.8 0 1-.3.6-1.2 1.4-2.3 2.3-3.2.4-.3.3-.8 0-1.1z"/><path d="m52.9 17.4c1-.2 1.9-.6 2.8-1.1.4-.2.5-.7.3-1-.2-.4-.7-.5-1-.3-.7.4-1.6.7-2.4.9-.4.1-.7.5-.6.9.1.5.5.7.9.6z"/><path d="m1.8 42.4c.4.1.8-.1.9-.5 0-.1.1-.2.1-.2.3 1-.3-1.2 2.8 8.3.8 2.4 1.4 4.9 2.5 7.3-.1.3-.2.7-.2 1.1-.1.4.2.8.6.9h.2c.3 0 .7-.2.7-.6 0-.2.1-.4.2-.6 18.6-1.9 37.3-3.7 55.9-5.6.2.4.6.5.9.4.4-.1.6-.6.4-1-4.3-11.2-10.1-21.5-17.2-30.5-3.9-5-8.8-10-15.1-10.2-.1 0-.2-.1-.3-.1-4-.4-8.7 1.1-12.5 3.1-8.7 4.1-14.2 12.2-18 21.1-.7 1.5-1.4 3-2.1 4.5-.3.5-.5 1.8-.2 2.3.1.2.3.3.4.3zm2.2-3.3c0-.1-.1-.1-.1-.2 3.3-8.5 8.6-15.9 15.2-21.2 1.4-1.1 3-2 4.7-2.8.2.4.6 1.1 1.1 1.7-.9 1.2-1.7 2.5-2.4 3.8-5.9 10.2-10.3 21.3-13.3 33-2-6-4.4-12.3-5.2-14.3zm21.7-23.8c-.3-.4-.5-.8-.7-1.1.9-.4 1.8-.7 2.7-.9-.7.6-1.3 1.3-2 2zm22.7 7c6.5 8.3 11.9 17.7 16.1 27.9l-33.5 3.1c-21.5 2-18.3 2.8-21 2.6 3-12.4 7.6-24.2 13.7-34.9.7-1.2 1.4-2.4 2.3-3.6 5.7 2.3 13.2 1.3 16.7-1.2 2.2 1.8 4.1 4.1 5.7 6.1zm-7-7c-3.1 2-9.5 2.8-14.5 1 .8-.9 1.7-1.8 2.7-2.4 3-1.8 7.3-1.8 11.8 1.4z"/></g></svg>