<svg id="Capa_1" enable-background="new 0 0 512.005 512.005" height="512" viewBox="0 0 512.005 512.005" width="512" xmlns="http://www.w3.org/2000/svg"><g><path d="m251.525 192.24c-10.631 9.988-18.309 22.546-22.297 36.591-1.132 3.984 1.182 8.132 5.166 9.264.685.194 1.374.287 2.053.287 3.269 0 6.273-2.153 7.211-5.453 3.568-12.564 10.764-23.679 20.813-32.152.031-.025.065-.042.096-.067 11.769-9.89 26.718-15.336 42.094-15.336 2.617 0 5.26.169 8.079.516.073.009.145.003.218.01 15.859 2.002 30.414 9.756 41.003 21.857 1.483 1.694 3.56 2.561 5.647 2.561 1.753 0 3.514-.611 4.936-1.855 3.118-2.729 3.434-7.466.706-10.583-10.564-12.072-24.348-20.623-39.6-24.732 9.348-12.865 23.411-21.901 39.18-24.805.35-.064.688-.161 1.021-.272.308-.008.618-.029.931-.076 3.093-.469 6.266-.706 9.429-.706 19.896 0 38.144 9.156 50.064 25.122 1.473 1.973 3.729 3.013 6.016 3.013 1.561 0 3.135-.485 4.481-1.49 3.319-2.479 4-7.178 1.522-10.497-14.563-19.504-37.772-31.147-62.084-31.147-2.394 0-4.791.124-7.17.342-.041-.49-.074-.983-.074-1.48 0-9.636 7.839-17.476 17.475-17.476 4.206 0 8.272 1.521 11.45 4.283 1.723 1.496 4.032 2.125 6.279 1.715 2.245-.414 4.18-1.828 5.256-3.841 7.935-14.851 23.308-24.075 40.118-24.075 25.066 0 45.459 20.393 45.459 45.459 0 4.143 3.357 7.5 7.5 7.5s7.5-3.357 7.5-7.5c0-33.337-27.122-60.459-60.459-60.459-19.628 0-37.779 9.451-49.057 25.117-4.352-2.09-9.148-3.199-14.047-3.199-17.906 0-32.475 14.568-32.475 32.476 0 1.458.096 2.9.285 4.326-18.709 5.553-34.861 18.148-44.816 35.05-1.618-.101-3.213-.151-4.773-.151-14.97 0-29.611 4.2-42.242 11.987-4.696-15.375-13.23-29.249-25.056-40.603-2.988-2.87-7.735-2.771-10.604.216-2.869 2.988-2.772 7.735.216 10.604 11.348 10.894 19.083 24.539 22.55 39.659z"/><path d="m7.502 56.435c4.143 0 7.5-3.357 7.5-7.5 0-11.949 9.722-21.671 21.672-21.671 11.172 0 20.653 8.71 21.586 19.83.311 3.7 3.282 6.616 6.987 6.857 23.813 1.546 42.466 21.466 42.466 45.349 0 .802-.026 1.658-.082 2.619-.229 4.007 2.737 7.484 6.73 7.89 10.41 1.057 18.556 9.404 19.368 19.849.186 2.379 1.492 4.528 3.519 5.788 2.028 1.261 4.534 1.48 6.748.592 9.476-3.796 19.464-5.721 29.687-5.721 10.464 0 20.658 2.006 30.299 5.963.933.383 1.896.563 2.845.563 2.952 0 5.751-1.755 6.941-4.654 1.572-3.832-.259-8.214-4.091-9.786-11.457-4.702-23.567-7.086-35.994-7.086-9.187 0-18.216 1.31-26.942 3.899-3.856-11.033-12.813-19.644-24.105-22.998-1.442-28.396-22.696-51.971-50.492-56.557-4.158-15.777-18.688-27.397-35.469-27.397-20.221 0-36.672 16.45-36.672 36.671-.001 4.143 3.357 7.5 7.499 7.5z"/><path d="m506.863 450.063c-7.195-2.386-14.447-4.669-21.738-6.854l2.358-4.297c1.992-3.632.664-8.19-2.967-10.184-3.634-1.993-8.191-.664-10.184 2.967l-3.981 7.254c-3.667-1.022-7.342-2.019-11.025-2.989l-.304-7.875c-.158-4.139-3.629-7.358-7.783-7.205-4.139.159-7.365 3.644-7.205 7.783l.134 3.472c-8.83-2.14-17.685-4.137-26.55-5.964l-32.452-55.083c-2.103-3.569-6.702-4.756-10.269-2.655-3.569 2.103-4.758 6.7-2.655 10.269l62.473 106.039h-47.574v-46.482c0-9.649-7.851-17.5-17.5-17.5h-46.481v-125.371l32.499 55.163c2.104 3.57 6.702 4.757 10.269 2.655 3.569-2.103 4.758-6.7 2.655-10.269l-45.423-77.1v-15.28c0-4.143-3.357-7.5-7.5-7.5s-7.5 3.357-7.5 7.5v15.28l-85.187 144.594c-26.504 1.082-52.867 3.47-79 7.15v-32.094c28.58-18.157 46.166-49.81 46.166-83.659 0-57.159-14.452-109.412-39.649-143.36-3.32-4.472-8.429-7.037-14.016-7.037-5.588 0-10.696 2.565-14.017 7.038-14.617 19.693-25.609 45.555-32.271 74.954-6.128-16.243-13.726-30.621-22.504-42.446-3.319-4.472-8.428-7.036-14.016-7.036-5.587 0-10.695 2.564-14.016 7.037-25.197 33.947-39.649 86.2-39.649 143.359 0 33.85 17.585 65.503 46.165 83.66v18.471c0 .407.041.803.104 1.192-13.816 3.76-27.531 7.893-41.129 12.403-3.932 1.304-6.063 5.548-4.759 9.479 1.044 3.148 3.974 5.142 7.118 5.142.782 0 1.578-.123 2.361-.383 38.851-12.884 78.671-22.659 119.11-29.269v6.926c0 4.143 3.357 7.5 7.5 7.5s7.5-3.357 7.5-7.5v-9.232c23.135-3.322 46.458-5.607 69.902-6.853l-4.089 6.94c-2.103 3.568-.914 8.166 2.655 10.269 1.195.704 2.506 1.039 3.8 1.039 2.568 0 5.07-1.32 6.469-3.694l85.449-145.039v189.352h-111.553l9.527-16.172c2.103-3.568.914-8.166-2.655-10.269-3.567-2.101-8.165-.914-10.269 2.655l-14.013 23.785h-8.221c.001-.048.007-.095.007-.144v-8.143c0-4.143-3.357-7.5-7.5-7.5s-7.5 3.357-7.5 7.5v8.143c0 .048.006.095.007.144h-2.507c-4.143 0-7.5 3.357-7.5 7.5s3.357 7.5 7.5 7.5h324.357c4.143 0 7.5-3.357 7.5-7.5s-3.357-7.5-7.5-7.5h-2.507c.001-.048.007-.095.007-.144v-8.143c0-4.143-3.357-7.5-7.5-7.5s-7.5 3.357-7.5 7.5v8.143c0 .048.006.095.007.144h-8.221l-24.147-40.986c25.026 5.625 49.91 12.504 74.165 20.548.783.26 1.579.383 2.361.383 3.145 0 6.074-1.993 7.118-5.142 1.305-3.93-.826-8.174-4.757-9.479zm-372.361-282.653c.632-.852 1.506-.979 1.972-.979.465 0 1.339.127 1.971.978 22.977 30.956 36.694 81.206 36.694 134.42 0 25.394-11.68 49.337-31.166 65.202v-19.77l12.174-13.792c2.741-3.105 2.445-7.845-.66-10.586s-7.845-2.445-10.586.66l-.928 1.051v-28.665l12.174-13.792c2.741-3.105 2.445-7.845-.66-10.586s-7.845-2.445-10.586.66l-.928 1.051v-40.088c0-4.143-3.357-7.5-7.5-7.5s-7.5 3.357-7.5 7.5v19.29l-.927-1.05c-2.741-3.106-7.481-3.402-10.586-.66-3.105 2.741-3.401 7.48-.66 10.586l12.173 13.792v28.664l-.927-1.05c-2.741-3.106-7.481-3.402-10.586-.66-3.105 2.741-3.401 7.48-.66 10.586l12.173 13.792v40.567c-19.485-15.865-31.165-39.808-31.165-65.202 0-53.214 13.718-103.464 36.694-134.419zm-119.5 166.928c0-53.214 13.718-103.464 36.693-134.419.632-.851 1.507-.978 1.972-.978.466 0 1.341.127 1.972.977 12.642 17.034 22.674 40.139 29.037 66.844-1.229 11.395-1.869 23.122-1.869 35.068 0 14.425 3.195 28.451 9.07 41.205-2.299 22.223-13.474 42.525-30.711 56.524v-19.789l12.174-13.792c2.741-3.105 2.445-7.845-.66-10.586s-7.845-2.445-10.586.66l-.928 1.051v-28.665l12.174-13.792c2.741-3.105 2.445-7.845-.66-10.586s-7.845-2.445-10.586.66l-.928 1.051v-40.088c0-4.143-3.357-7.5-7.5-7.5s-7.5 3.357-7.5 7.5v19.29l-.927-1.05c-2.741-3.106-7.481-3.402-10.586-.66-3.105 2.741-3.401 7.48-.66 10.586l12.173 13.792v28.664l-.927-1.05c-2.741-3.106-7.481-3.402-10.586-.66-3.105 2.741-3.401 7.48-.66 10.586l12.173 13.792v40.568c-19.484-15.865-31.164-39.808-31.164-65.203zm46.165 99.427v-15.765c20.549-13.045 35.477-33.032 42.193-55.944 7.011 9.136 15.646 17.101 25.613 23.433v34.35c-22.813 3.656-45.434 8.303-67.806 13.926zm308.474 1.993c1.379 0 2.5 1.121 2.5 2.5v35.876l-38.375-38.376zm-46.481 10.607 38.374 38.375h-38.374z"/><path d="m82.443 466.118c-1.105-3.991-5.231-6.333-9.229-5.226-3.992 1.105-6.332 5.237-5.226 9.229l3.275 11.825c.92 3.322 3.936 5.5 7.224 5.5.662 0 1.336-.089 2.006-.274 3.992-1.105 6.332-5.237 5.226-9.229z"/><path d="m107.403 460.892c-3.996-1.108-8.125 1.233-9.229 5.226l-3.275 11.825c-1.106 3.992 1.233 8.124 5.226 9.229.67.186 1.344.274 2.006.274 3.287 0 6.304-2.178 7.224-5.5l3.275-11.825c1.105-3.991-1.235-8.123-5.227-9.229z"/></g></svg>