<svg id="Capa_1" enable-background="new 0 0 512 512" height="512" viewBox="0 0 512 512" width="512" xmlns="http://www.w3.org/2000/svg"><g><path d="m240.802 0h-115.72c-40.979 0-74.319 33.34-74.319 74.32 0 0 .063 251.362.158 256.348.293 24.906 2.559 53.236 5.259 78.558l3.66 36.542c3.779 37.758 35.249 66.232 73.202 66.232h99.8c81.482-6.21 72.685-76.424 78.344-117.551 2.555-25.656 3.932-52.056 3.937-78.719v-241.41c-.001-40.98-33.341-74.32-74.321-74.32zm-65.36 195.515v52.985h-82.68v-52.99zm-14.213-79.994c-5.802-5.811-8.997-13.524-8.997-21.721v-7.051c9.254-.856 24.765-3.45 35.118-11.312 5.098 4.5 13.588 9.742 26.302 11.277v7.086c0 16.901-13.724 30.655-30.614 30.708h-.196c-8.159-.027-15.833-3.217-21.613-8.987zm111.893 64.989h-14.206v-22.243c0-18.615-15.145-33.76-33.76-33.76h-8.384c7.378-8.12 11.88-18.898 11.88-30.708v-33.299c0-6.835-2.062-13.195-5.59-18.5h17.738c17.822 0 32.322 14.5 32.322 32.322zm-55.005 235.39h48.71l-2.573 25.681c-1.624 16.201-15.127 28.419-31.409 28.419h-42.402v-130.298h82.278c-.544 16.898-4.39 61.198-4.39 61.198h-50.213c-4.143 0-7.5 3.358-7.5 7.5s3.357 7.5 7.499 7.5zm-85.077 54.1c-16.282 0-29.785-12.218-31.409-28.42l-2.573-25.68h76.385v54.1zm167.025-145.298h-12c.036-2.993.057-61.202.057-61.202h12s-.021 58.208-.057 61.202zm-26.999 0h-82.623v-61.202h82.68c-.001 0-.021 58.208-.057 61.202zm-97.624 0h-82.623c-.036-2.993-.057-61.202-.057-61.202h82.68zm-97.623 0h-12c-.035-2.993-.057-61.202-.057-61.202h12c.001 0 .022 58.208.057 61.202zm-11.667 15h12.005c.549 17.397 4.322 61.198 4.322 61.198h-12.058s-3.715-43.397-4.269-61.198zm27.012 0h82.278v61.198h-77.888s-3.846-44.3-4.39-61.198zm194.564 0h12.005c-.554 17.802-4.269 61.198-4.269 61.198h-12.058s3.772-43.801 4.322-61.198zm12.394-91.202h-12v-52.99h12zm-27 0h-82.68v-52.985l82.68-.005zm-59.47-188v11.082c-13.628-2.237-19.12-10.13-19.638-10.919-1.274-2.25-3.568-3.597-6.155-3.707-2.611-.113-5.023 1.228-6.481 3.386-4.506 6.67-18.136 10.144-29.146 11.342v-11.184c0-10.201 8.299-18.5 18.5-18.5h24.42c10.202 0 18.5 8.299 18.5 18.5zm-38.21 79.007v6.628c0 4.142 3.357 7.5 7.5 7.5s7.5-3.358 7.5-7.5v-6.628h34.714c10.344 0 18.76 8.416 18.76 18.76v22.243h-121.947v-22.243c0-10.344 8.416-18.76 18.76-18.76zm-97.679 108.993h-12v-52.99h12zm160.68 248.238c-1.844.173-107.284.24-108.218.196-28.942-1.358-52.545-23.541-55.459-52.662l-2.842-28.372h12.058l2.723 27.176c2.396 23.901 22.316 41.924 46.335 41.924h99.805c24.02 0 43.939-18.023 46.335-41.924l2.723-27.176h12.058l-2.842 28.373c-2.821 28.181-25.017 49.865-52.676 52.465zm61.679-316.228h-12v-106.188c0-26.093-21.228-47.322-47.322-47.322h-115.715c-26.094 0-47.322 21.229-47.322 47.322v78.476c0 4.142 3.357 7.5 7.5 7.5s7.5-3.358 7.5-7.5v-78.476c0-17.822 14.5-32.322 32.322-32.322h17.737c-3.528 5.305-5.59 11.665-5.59 18.5v33.3c0 11.452 4.19 22.268 11.85 30.708h-8.354c-18.615 0-33.76 15.145-33.76 33.76v22.243h-41.205v-106.191c0-32.709 26.61-59.32 59.319-59.32h115.72c32.709 0 59.32 26.611 59.32 59.32z"/><path d="m395.521 144.821h-27.257l31.752-46.042c1.583-2.294 1.762-5.277.467-7.745-1.296-2.468-3.854-4.013-6.641-4.013h-38.812c-4.143 0-7.5 3.358-7.5 7.5s3.357 7.5 7.5 7.5h24.529l-31.752 46.042c-1.583 2.294-1.762 5.277-.467 7.745 1.296 2.468 3.854 4.013 6.641 4.013h41.54c4.143 0 7.5-3.358 7.5-7.5s-3.357-7.5-7.5-7.5z"/><path d="m453.737 82.003h-10.554l15.725-22.801c1.583-2.294 1.762-5.277.467-7.745-1.296-2.468-3.854-4.013-6.641-4.013h-23.206c-4.143 0-7.5 3.358-7.5 7.5s3.357 7.5 7.5 7.5h8.923l-15.725 22.801c-1.583 2.294-1.762 5.277-.467 7.745 1.296 2.468 3.854 4.013 6.641 4.013h24.837c4.143 0 7.5-3.358 7.5-7.5s-3.357-7.5-7.5-7.5z"/></g></svg>