<svg id="Layer_1" enable-background="new 0 0 512 512" height="512" viewBox="0 0 512 512" width="512" xmlns="http://www.w3.org/2000/svg"><g><path d="m328.907 0h-145.814c-42.834 0-77.683 37.68-77.683 83.995v48.874 60.461c0 6.524 2.898 12.398 7.456 16.332-4.634 5.215-7.456 12.072-7.456 19.577v30.231c0 8.761 3.835 16.639 9.91 22.056-6.075 5.417-9.91 13.296-9.91 22.057v30.23c0 8.75 3.833 16.62 9.906 22.031-6.073 5.417-9.906 13.294-9.906 22.053v30.231c0 8.761 3.835 16.639 9.91 22.056-6.075 5.417-9.91 13.296-9.91 22.057v6.912c0 29.14 23.706 52.846 52.845 52.846h195.49c29.139 0 52.845-23.707 52.845-52.846v-6.912c0-8.761-3.831-16.64-9.9-22.057 6.069-5.417 9.9-13.296 9.9-22.056v-30.231c0-8.759-3.829-16.636-9.896-22.053 6.066-5.412 9.896-13.281 9.896-22.031v-30.23c0-8.761-3.831-16.64-9.9-22.057 6.069-5.417 9.9-13.296 9.9-22.056v-30.23c0-7.493-2.81-14.338-7.425-19.55 4.534-3.925 7.425-9.8 7.425-16.36v-60.461-48.874c0-46.315-34.849-83.995-77.683-83.995zm-145.814 15h145.814c34.563 0 62.683 30.951 62.683 68.995 0 17.483-10.113 31.754-26.387 42.701v-25.549c0-31.512-24.864-57.148-55.426-57.148h-31.205c-4.143 0-7.5 3.358-7.5 7.5s3.357 7.5 7.5 7.5h31.205c22.291 0 40.426 18.908 40.426 42.148v33.942c-25.599 11.968-60.005 18.094-94.203 18.094-30.774 0-61.716-4.96-86.259-14.674v-37.362c0-23.241 18.148-42.148 40.455-42.148h31.435c4.143 0 7.5-3.358 7.5-7.5s-3.357-7.5-7.5-7.5h-31.435c-30.578 0-55.455 25.637-55.455 57.148v30.369c-20.866-11.445-34.331-27.345-34.331-47.521 0-38.044 28.119-68.995 62.683-68.995zm208.497 108.568v9.3 60.461c0 3.459-2.646 6.382-5.779 6.382-.044 0-.089 0-.133.001h-122.178v-31.633c50.935-1.273 103.172-15.516 128.09-44.511zm-271.18 9.301v-9.29c8.141 9.505 19.526 17.812 33.99 24.703 25.185 11.998 58.362 18.953 94.1 19.808v31.622h-122.308c-3.188-.038-5.782-2.901-5.782-6.382zm0 126.602v-30.231c0-8.011 6.529-14.528 14.556-14.528h113.534v59.315h-113.534c-8.027 0-14.556-6.53-14.556-14.556zm0 74.343v-30.23c0-8.026 6.529-14.557 14.556-14.557h113.534v59.315h-113.534c-8.027 0-14.556-6.517-14.556-14.528zm0 125.34v-6.912c0-8.026 6.529-14.557 14.556-14.557h35.593c4.143 0 7.5-3.358 7.5-7.5s-3.357-7.5-7.5-7.5h-35.593c-8.026 0-14.556-6.53-14.556-14.556v-30.231c0-8.026 6.529-14.556 14.556-14.556h113.534v59.343h-47.854c-4.143 0-7.5 3.358-7.5 7.5s3.357 7.5 7.5 7.5h47.854v59.315h-90.245c-20.867 0-37.845-16.978-37.845-37.846zm271.18-6.912v6.912c0 20.869-16.978 37.846-37.845 37.846h-90.245v-59.315h113.563c8.01 0 14.527 6.53 14.527 14.557zm0-74.344v30.231c0 8.026-6.517 14.556-14.526 14.556h-113.564v-59.343h113.563c8.01 0 14.527 6.53 14.527 14.556zm0-74.315v30.23c0 8.011-6.517 14.528-14.526 14.528h-113.564v-59.315h113.563c8.01.001 14.527 6.531 14.527 14.557zm-128.09-29.556v-59.315h113.563c8.01 0 14.526 6.517 14.526 14.528v30.231c0 8.026-6.517 14.556-14.526 14.556z"/></g></svg>