<?xml version="1.0" encoding="UTF-8"?>
<svg xmlns="http://www.w3.org/2000/svg" id="Layer_3" data-name="Layer 3" viewBox="0 0 64 64" width="512" height="512"><path d="M48,1H46A11.657,11.657,0,0,0,34.84,9.418,47.836,47.836,0,0,0,33,22.56v7.425a28.581,28.581,0,0,0,1.824,10.062,26.589,26.589,0,0,1,1.551,6.567l.9,8.529A8.756,8.756,0,0,0,46,63h2a8.756,8.756,0,0,0,8.727-7.857l.9-8.529a26.589,26.589,0,0,1,1.551-6.567A28.581,28.581,0,0,0,61,29.985V22.56A47.836,47.836,0,0,0,59.16,9.418,11.657,11.657,0,0,0,48,1ZM59,29.985a26.568,26.568,0,0,1-1.7,9.359,28.628,28.628,0,0,0-1.666,7.061l-.9,8.529A6.76,6.76,0,0,1,48,61H46a6.76,6.76,0,0,1-6.738-6.066l-.9-8.529A28.628,28.628,0,0,0,36.7,39.344,26.568,26.568,0,0,1,35,29.985V22.56A45.8,45.8,0,0,1,36.764,9.967,9.646,9.646,0,0,1,46,3h2a9.646,9.646,0,0,1,9.236,6.967A45.8,45.8,0,0,1,59,22.56Z"/><path d="M57,25.22a2.962,2.962,0,0,0-.05-4.481,43.914,43.914,0,0,0-1.636-10.223A7.641,7.641,0,0,0,48,5H46a7.64,7.64,0,0,0-7.314,5.517A43.95,43.95,0,0,0,37.05,20.739,2.962,2.962,0,0,0,37,25.22v4.765c0,.261.012.519.02.779a2.971,2.971,0,0,0,.661,4.917,24.768,24.768,0,0,0,.888,2.961A30.636,30.636,0,0,1,40.353,46.2l.9,8.53A4.763,4.763,0,0,0,46,59h2a4.765,4.765,0,0,0,4.749-4.276l.9-8.529a30.688,30.688,0,0,1,1.785-7.552,24.839,24.839,0,0,0,.888-2.962,2.971,2.971,0,0,0,.661-4.917c.008-.26.02-.519.02-.779ZM55,34H53a1,1,0,0,1,0-2h2a1,1,0,0,1,0,2ZM51.446,48H42.553l-.212-2.014A32.516,32.516,0,0,0,41.667,42H52.333a32.694,32.694,0,0,0-.675,3.987ZM45,40V36h4v4Zm-6-6a1,1,0,0,1,0-2H50.184a2.809,2.809,0,0,0,0,2ZM38,23a1,1,0,0,1,1-1H50.184a2.809,2.809,0,0,0,0,2H39A1,1,0,0,1,38,23Zm1.4-6.065a9.312,9.312,0,0,1,15.2,0q.207,1.527.3,3.065H52.723a6.093,6.093,0,0,0-11.445,0H39.1Q39.194,18.463,39.4,16.935ZM55,24H53a1,1,0,0,1,0-2h2a1,1,0,0,1,0,2Zm-4.476-4H43.476a4.1,4.1,0,0,1,7.048,0ZM51,26v4H43V26Zm2,4V26h2v4Zm.391-18.935c.223.784.419,1.574.6,2.368A11.28,11.28,0,0,0,51,11.732V7.9A5.6,5.6,0,0,1,53.391,11.065ZM48,7a5.529,5.529,0,0,1,1,.1v4.1a10.2,10.2,0,0,0-4,0V7.1A5.529,5.529,0,0,1,46,7Zm-7.391,4.066A5.6,5.6,0,0,1,43,7.9v3.834a11.3,11.3,0,0,0-2.988,1.7C40.19,12.639,40.386,11.849,40.609,11.066ZM41,26v4H39V26ZM39.824,36H43v4H41.135c-.209-.694-.438-1.382-.693-2.062C40.2,37.3,40,36.655,39.824,36ZM50.761,54.515A2.77,2.77,0,0,1,48,57H46a2.769,2.769,0,0,1-2.76-2.484L42.764,50h8.472Zm2.8-16.576c-.255.679-.484,1.366-.692,2.06H51V36h3.176C54,36.655,53.8,37.305,53.558,37.939Z"/><rect x="44" y="44" width="2" height="2"/><rect x="48" y="44" width="2" height="2"/><path d="M18,1H16A11.657,11.657,0,0,0,4.84,9.418,47.836,47.836,0,0,0,3,22.56v7.425A28.581,28.581,0,0,0,4.824,40.047a26.589,26.589,0,0,1,1.551,6.567l.9,8.529A8.756,8.756,0,0,0,16,63h2a8.756,8.756,0,0,0,8.727-7.857l.9-8.529a26.589,26.589,0,0,1,1.551-6.567A28.581,28.581,0,0,0,31,29.985V22.56A47.836,47.836,0,0,0,29.16,9.418,11.657,11.657,0,0,0,18,1ZM29,29.985a26.568,26.568,0,0,1-1.7,9.359,28.628,28.628,0,0,0-1.666,7.061l-.9,8.529A6.76,6.76,0,0,1,18,61H16a6.76,6.76,0,0,1-6.738-6.066l-.9-8.529A28.628,28.628,0,0,0,6.7,39.344,26.568,26.568,0,0,1,5,29.985V22.56A45.8,45.8,0,0,1,6.764,9.967,9.646,9.646,0,0,1,16,3h2a9.646,9.646,0,0,1,9.236,6.967A45.8,45.8,0,0,1,29,22.56Z"/><path d="M27,25.22a2.962,2.962,0,0,0-.05-4.481,43.967,43.967,0,0,0-1.636-10.223A7.641,7.641,0,0,0,18,5H16a7.64,7.64,0,0,0-7.314,5.517A43.9,43.9,0,0,0,7.05,20.739,2.962,2.962,0,0,0,7,25.22v4.765c0,.26.012.519.02.779a2.971,2.971,0,0,0,.661,4.917,24.839,24.839,0,0,0,.888,2.962A30.688,30.688,0,0,1,10.354,46.2l.9,8.529A4.765,4.765,0,0,0,16,59h2a4.763,4.763,0,0,0,4.748-4.275l.9-8.53a30.636,30.636,0,0,1,1.784-7.553,24.768,24.768,0,0,0,.888-2.961,2.971,2.971,0,0,0,.661-4.917c.008-.26.02-.518.02-.779ZM25,34H13.816a2.809,2.809,0,0,0,0-2H25a1,1,0,0,1,0,2ZM21.447,48H12.554l-.212-2.013A32.694,32.694,0,0,0,11.667,42H22.333a32.516,32.516,0,0,0-.674,3.986ZM15,40V36h4v4ZM9,34a1,1,0,0,1,0-2h2a1,1,0,0,1,0,2ZM8,23a1,1,0,0,1,1-1h2a1,1,0,0,1,0,2H9A1,1,0,0,1,8,23Zm1.4-6.065a9.312,9.312,0,0,1,15.205,0c.139,1.018.236,2.04.3,3.065H22.723a6.093,6.093,0,0,0-11.445,0H9.1Q9.192,18.463,9.4,16.935ZM25,24H13.816a2.809,2.809,0,0,0,0-2H25a1,1,0,0,1,0,2ZM13.476,20a4.1,4.1,0,0,1,7.048,0ZM21,26v4H13V26Zm2,4V26h2v4Zm.391-18.935c.223.784.419,1.574.6,2.368A11.3,11.3,0,0,0,21,11.732V7.9A5.6,5.6,0,0,1,23.391,11.065ZM18,7a5.529,5.529,0,0,1,1,.1v4.1a11.365,11.365,0,0,0-2-.2,11.365,11.365,0,0,0-2,.2V7.1A5.529,5.529,0,0,1,16,7Zm-7.391,4.066A5.6,5.6,0,0,1,13,7.9v3.834a11.28,11.28,0,0,0-2.988,1.7C10.19,12.639,10.386,11.849,10.609,11.066ZM11,26v4H9V26ZM9.824,36H13v4H11.134c-.208-.694-.437-1.381-.692-2.06C10.2,37.305,10,36.655,9.824,36ZM20.76,54.516A2.769,2.769,0,0,1,18,57H16a2.77,2.77,0,0,1-2.761-2.485L12.764,50h8.472Zm2.8-16.578c-.255.68-.484,1.368-.693,2.062H21V36h3.176C24,36.655,23.8,37.3,23.558,37.938Z"/><rect x="18" y="44" width="2" height="2"/><rect x="14" y="44" width="2" height="2"/></svg>
