<svg clip-rule="evenodd" fill-rule="evenodd" height="173.397mm" image-rendering="optimizeQuality" shape-rendering="geometricPrecision" text-rendering="geometricPrecision" viewBox="0 0 173.397 173.397" width="173.397mm" xmlns="http://www.w3.org/2000/svg"><g id="Layer_x0020_1"><g id="_216963624"><path id="_216964560" d="m11.8314 142.889c-.9228 0-1.6714-.7484-1.6714-1.6709l.0006-13.9081c0-.9225.7478-1.6708 1.6705-1.6708.9261-.0002 1.671.7484 1.671 1.671v13.9078c0 .9226-.745 1.6711-1.6707 1.671z"/><path id="_216963600" d="m92.8839 128.981c-.5084 0-1.0103-.2332-1.3376-.6684-15.349-20.4703-28.5223-46.1902-39.1892-76.5125-10.6665 30.3222-23.8401 56.0423-39.1892 76.5125-.5533.7379-1.6014.8878-2.3394.3343-.7376-.5539-.8878-1.6015-.3344-2.3395 15.9066-21.2082 29.4591-48.1815 40.279-80.1644.2302-.679.8668-1.135 1.584-1.135.7172-.0001 1.3543.4561 1.5841 1.135 10.8238 31.9827 24.3726 58.9562 40.2789 80.1644.5539.7378.4038 1.7858-.3343 2.3395-.3024.2226-.6545.3341-1.0019.3341z"/><path id="_216963648" d="m92.8839 128.981c-.6761 0-1.3132-.4143-1.5639-1.0827-.3271-.8634.108-1.8277.9714-2.1514 20.8431-7.8749 43.6418-8.4631 64.7769-1.765-14.5415-20.4808-27.0254-45.8282-37.1631-75.4473-22.5025 3.241-45.3059 3.1715-67.7952-.2054-.9116-.1358-1.5422-.9887-1.4065-1.9008.14-.9121.9887-1.5387 1.9007-1.403 22.6257 3.3977 45.5637 3.3979 68.1888 0 .8011-.1219 1.57.3517 1.8311 1.1176 10.8236 31.9827 24.3728 58.9562 40.2789 80.1644.4463.5952.4456 1.41-.0034 2.0052-.4457.5953-1.229.8216-1.9252.5604-21.7648-8.2228-45.7376-8.2227-67.5028 0-.1945.0731-.3935.108-.5877.108z"/><path id="_216963360" d="m92.8839 142.889c-.9228 0-1.6717-.7484-1.6717-1.6709l.0001-13.9081c0-.9225.7483-1.6708 1.6709-1.6708.9226-.0002 1.671.7484 1.671 1.671l.0004 13.9078c0 .9226-.7488 1.6711-1.6707 1.671z"/><path id="_216963408" d="m161.567 142.889c-.9227 0-1.6712-.7484-1.6712-1.6709l.0005-13.9081c0-.9225.7479-1.6708 1.6704-1.6708.9231-.0002 1.671.7484 1.671 1.671l.0001 13.9078c0 .9226-.7485 1.6711-1.6708 1.671z"/><path id="_216964056" d="m52.3576 142.889c-.9227 0-1.6715-.7484-1.6715-1.6709v-109.039c0-.926.7485-1.6709 1.671-1.6709.9233 0 1.6711.745 1.6711 1.671l.0002 109.039c0 .9226-.7486 1.6711-1.6708 1.671z"/><path id="_216964080" d="m11.8352 128.981c-.5506 0-1.0904-.2716-1.4106-.7693-.4974-.7764-.2715-1.8103.5048-2.3081 21.3445-13.6888 45.9674-18.1622 73.1947-13.3057.9088.1635 1.5145 1.0306 1.3509 1.9391-.1602.9086-1.027 1.5144-1.9392 1.3508-26.3672-4.7069-50.1901-.39-70.8031 12.8286-.2778.1775-.5883.2646-.8975.2646z"/><path id="_216963576" d="m128.553 98.1886c-.4002 0-.8041-.1426-1.1245-.4315-5.2601-4.7765-9.2916-12.2857-11.9792-22.3223-.2366-.8913.2925-1.8069 1.1838-2.0471.8911-.2367 1.8067.2925 2.0434 1.1837 2.5206 9.4065 6.2176 16.3728 10.9976 20.7104.686.6197.7379 1.6745.1183 2.3604-.3307.3619-.7834.5465-1.2394.5464z"/><path id="_216964008" d="m81.9976 61.0011c-3.687 0-7.9274-.4977-12.6934-1.4899-.9015-.1881-1.4832-1.0756-1.2951-1.9774.1883-.9052 1.0723-1.483 1.9775-1.295 7.9167 1.6465 14.1898 1.866 18.6459.651.8918-.2439 1.8069.2786 2.0505 1.1697.2442.8911-.2785 1.8103-1.1698 2.054-2.1649.5917-4.6753.8877-7.5156.8876z"/></g></g></svg>