<svg id="Capa_1" enable-background="new 0 0 512 512" viewBox="0 0 512 512" xmlns="http://www.w3.org/2000/svg"><g><path d="m430.094 417.586-5.981-10.853c18.476-28.502 29.754-61.335 32.647-95.28 2.994-35.141-3.021-70.666-17.396-102.734l-13.688 6.136c25.484 56.855 21.519 123.486-9.863 176.821l-10.53-19.107-24.81 45.017-45.506 24.698 21.965 11.921c-33.169 22.437-71.518 33.49-109.773 33.487-50.399-.004-100.623-19.189-138.503-56.782-36.923-36.641-57.257-85.354-57.257-137.165s20.334-100.524 57.257-137.165l-10.566-10.647c-39.782 39.479-61.691 91.973-61.691 147.812s21.91 108.334 61.691 147.813c40.78 40.469 94.826 61.119 149.083 61.118 43.62-.001 87.376-13.354 124.475-40.484l8.827 4.791 24.809 45.017 24.81-45.017 45.507-24.699zm-11.016 38.309-13.794 25.028-13.794-25.028-25.076-13.611 25.076-13.61 13.794-25.028 13.794 25.028 25.077 13.61z"/><path d="m365.265 228.369-118.308-202.251-91.119 155.771-9.337-16.942-20.897 37.918-38.352 20.815 34.282 18.607c-18.309 41.121-15.241 88.101 8.653 127.043 25.089 40.891 68.742 65.303 116.771 65.303 49.712 0 94.159-25.745 118.893-68.868 24.733-43.122 24.514-94.486-.586-137.396zm-228.644-14.415 9.881-17.929 9.881 17.929 17.923 9.728-17.923 9.728-9.881 17.929-8.663-15.719c-.008-.014-.015-.028-.023-.042l-1.195-2.168-17.923-9.728zm6.351 147.532c-19.775-32.23-23.543-70.628-10.907-105.266l14.436 26.195 20.897-37.918 38.352-20.816-38.352-20.815-3.131-5.68 82.689-141.359v363.808c-42.771-.001-81.644-21.738-103.984-58.149z"/><path d="m137.615 119.061c-15.165 0-28.616-7.915-35.98-21.172s-6.978-28.858 1.035-41.733l34.945-56.156 34.945 56.156c8.012 12.875 8.399 28.477 1.035 41.734-7.365 13.256-20.815 21.171-35.98 21.171zm0-90.67-22.21 35.69c-5.092 8.184-5.338 18.099-.658 26.524 4.681 8.426 13.229 13.456 22.868 13.456 9.638 0 18.187-5.03 22.867-13.456 4.681-8.426 4.435-18.341-.657-26.525z"/><g><path d="m403.76 189.311c-21.392 0-40.535-11.068-51.209-29.606-10.674-18.539-10.635-40.651.104-59.151l51.104-88.036 51.104 88.036c10.739 18.5 10.779 40.613.104 59.151-10.672 18.539-29.816 29.606-51.207 29.606zm0-146.915-38.132 65.688c-8.014 13.804-8.043 30.304-.078 44.136s22.249 22.091 38.21 22.091c15.962 0 30.246-8.258 38.21-22.09 7.965-13.833 7.936-30.332-.078-44.137z"/></g></g><g/><g/><g/><g/><g/><g/><g/><g/><g/><g/><g/><g/><g/><g/><g/></svg>