<svg id="Layer_1" enable-background="new 0 0 512.036 512.036" height="512" viewBox="0 0 512.036 512.036" width="512" xmlns="http://www.w3.org/2000/svg"><g><path d="m105.179 328.261c0-22.226 11.093-50.799 32.972-84.926l-25.256-16.191c-25.026 39.038-37.716 73.059-37.716 101.118 0 62.736 51.04 113.775 113.775 113.775v-30c-46.194-.001-83.775-37.582-83.775-83.776z"/><path d="m356.857 212.036c-6.13 0-12.172.378-18.111 1.096-4.485-8.109-9.411-16.359-14.802-24.768-35.27-55.018-119.415-167.553-122.98-172.316l-12.01-16.048-12.01 16.048c-3.564 4.764-87.71 117.299-122.98 172.316-32.827 51.207-48.785 96.64-48.785 138.896 0 101.334 82.441 183.775 183.775 183.775 31.733 0 61.613-8.086 87.689-22.304 23.214 14.75 50.733 23.304 80.214 23.304 82.71 0 150-67.29 150-150s-67.289-149.999-150-149.999zm-167.903 269c-84.792 0-153.775-68.983-153.775-153.775 0-36.341 14.406-76.478 44.041-122.705 26.872-41.917 84.662-120.55 109.734-154.384 25.074 33.836 82.86 112.463 109.734 154.383v.001c3.38 5.272 6.551 10.461 9.536 15.578-58.912 20.246-101.367 76.207-101.367 141.903 0 41.343 16.813 78.833 43.96 105.992-18.94 8.355-39.867 13.007-61.863 13.007zm47.903-119c0-66.168 53.831-120 120-120 66.168 0 120 53.832 120 120s-53.832 120-120 120-120-53.831-120-120z"/><path d="m320.848 377.036h21.009v21.01l-32.841 32.841 21.213 21.213 26.628-26.628 26.629 26.628 21.212-21.213-32.841-32.841v-21.01h21.01l32.841 32.841 21.213-21.213-26.628-26.628 26.628-26.627-21.213-21.214-32.841 32.841h-21.01v-21.009l32.841-32.842-21.212-21.212-26.629 26.628-26.628-26.628-21.213 21.212 32.841 32.841v21.01h-21.01l-32.84-32.841-21.213 21.213 26.627 26.628-26.627 26.628 21.213 21.213z"/></g></svg>